<svg width="109" height="99" viewBox="0 0 109 99" fill="none" xmlns="http://www.w3.org/2000/svg">
    <g clip-path="url(#clip0_160_1313)">
        <path
            d="M18.8155 80.5549C6.53414 68.0878 11.664 43.1201 30.2734 24.788C48.8828 6.4558 73.9247 1.70123 86.206 14.1683C98.4874 26.6354 93.3575 51.6031 74.7481 69.9352C56.1387 88.2674 31.0968 93.022 18.8155 80.5549Z"
            fill="#A7F7F5" stroke="#111119" stroke-width="1.29787" stroke-linecap="round" stroke-linejoin="round" />
        <path opacity="0.62"
            d="M15.5567 76.2901C24.5347 91.6543 48.3611 91.1603 68.7656 75.1863C89.1702 59.2124 98.4409 33.7978 89.4516 18.4269C81.5029 4.81805 61.9127 3.65039 43.3726 14.648C40.9726 16.074 38.5854 17.6979 36.2427 19.5306C34.906 20.5856 33.6146 21.6672 32.3753 22.8024C14.7067 38.7965 7.16293 61.9244 15.5657 76.2877L15.5567 76.2901Z"
            fill="#F8F8FF" stroke="#111119" stroke-width="1.29787" stroke-linecap="round" stroke-linejoin="round" />
        <path
            d="M32.3755 22.8022L41.0612 28.67L52.6478 21.3117L43.3728 14.6478C40.9728 16.0738 38.5856 17.6977 36.2429 19.5305C34.9062 20.5854 33.6147 21.6671 32.3755 22.8022Z"
            fill="#F8F8FF" stroke="#111119" stroke-width="1.29787" stroke-linecap="round" stroke-linejoin="round" />
        <path d="M68.1069 7.4802L86.7189 19.048" stroke="#111119" stroke-width="1.29787" stroke-linecap="round"
            stroke-linejoin="round" />
        <path d="M61.4473 8.25494L79.297 19.0619" stroke="#111119" stroke-width="1.29787" stroke-linecap="round"
            stroke-linejoin="round" />
        <path d="M52.8799 10.4721L71.4918 22.04" stroke="#111119" stroke-width="1.29787" stroke-linecap="round"
            stroke-linejoin="round" />
        <path d="M14.4731 49.7414L33.0851 61.3093" stroke="#111119" stroke-width="1.29787" stroke-linecap="round"
            stroke-linejoin="round" />
        <path d="M12.5234 57.6816L31.133 69.2405" stroke="#111119" stroke-width="1.29787" stroke-linecap="round"
            stroke-linejoin="round" />
        <path d="M12.417 66.0837L31.0289 77.6515" stroke="#111119" stroke-width="1.29787" stroke-linecap="round"
            stroke-linejoin="round" />
        <path d="M43.4424 14.879L61.5539 26.3272" stroke="#111119" stroke-width="1.29787" stroke-linecap="round"
            stroke-linejoin="round" />
        <path d="M32.3188 23.0276L50.9308 34.5954" stroke="#111119" stroke-width="1.29787" stroke-linecap="round"
            stroke-linejoin="round" />
        <path
            d="M18.8155 80.5549C6.53414 68.0878 11.664 43.1201 30.2734 24.788C48.8828 6.4558 73.9247 1.70123 86.206 14.1683C98.4874 26.6354 93.3575 51.6031 74.7481 69.9352C56.1387 88.2674 31.0968 93.022 18.8155 80.5549Z"
            stroke="#111119" stroke-width="1.29787" stroke-linecap="round" stroke-linejoin="round" />
        <path
            d="M22.6617 84.2736C10.3803 71.8066 15.5102 46.8389 34.1196 28.5067C52.729 10.1746 77.7708 5.41998 90.0522 17.8871C102.334 30.3541 97.2037 55.3218 78.5943 73.654C59.9849 91.9861 34.943 96.7407 22.6617 84.2736Z"
            fill="#A7F7F5" stroke="#111119" stroke-width="1.29787" stroke-linecap="round" stroke-linejoin="round" />
        <path
            d="M27.763 79.2479C17.3404 68.6677 21.693 47.4796 37.4849 31.9229C53.2768 16.3663 74.5278 12.3322 84.9505 22.9124C95.3731 33.4926 91.0204 54.6807 75.2285 70.2373C59.4367 85.794 38.1856 89.8281 27.763 79.2479Z"
            fill="#A7F7F5" stroke="#111119" stroke-width="1.29787" stroke-linecap="round" stroke-linejoin="round" />
        <path opacity="0.16"
            d="M27.763 79.2479C17.3404 68.6677 21.693 47.4796 37.4849 31.9229C53.2768 16.3663 74.5278 12.3322 84.9505 22.9124C95.3731 33.4926 91.0204 54.6807 75.2285 70.2373C59.4367 85.794 38.1856 89.8281 27.763 79.2479Z"
            fill="black" stroke="#111119" stroke-width="1.29787" stroke-linecap="round" stroke-linejoin="round" />
        <path
            d="M27.763 79.2479C17.3404 68.6677 21.693 47.4796 37.4849 31.9229C53.2768 16.3663 74.5278 12.3322 84.9505 22.9124C95.3731 33.4926 91.0204 54.6807 75.2285 70.2373C59.4367 85.794 38.1856 89.8281 27.763 79.2479Z"
            stroke="#111119" stroke-width="1.29787" stroke-linecap="round" stroke-linejoin="round" />
        <path
            d="M68.6882 72.8494C86.0102 59.2925 93.8729 37.7302 86.2527 24.6878C86.0108 24.2713 85.7532 23.8685 85.4777 23.4703C86.3111 24.3948 87.0619 25.4078 87.7146 26.5228C95.3347 39.5652 87.472 61.1276 70.159 74.6821C53.3959 87.8069 33.9143 88.6137 25.7758 76.8265C34.6112 86.6416 52.8639 85.233 68.6948 72.8381L68.6882 72.8494Z"
            fill="#111119" stroke="#111119" stroke-width="1.29787" stroke-linecap="round" stroke-linejoin="round" />
        <path
            d="M32.3529 70.6976L34.1362 71.405L37.1388 66.939C38.7604 69.3172 40.9355 70.3544 43.6464 70.0552C46.3662 69.7538 49.8123 68.0379 54.0003 64.8939L53.6379 59.1621L51.8547 58.4546C50.1667 59.7442 48.7459 60.6964 47.6013 61.3088C46.4567 61.9213 45.5457 62.2145 44.8796 62.1953C44.2045 62.1784 43.7184 61.8922 43.408 61.3593C43.0109 60.6763 43.0547 59.9943 43.5485 59.3107C44.0424 58.6272 44.6223 58.0172 45.2996 57.4874C46.9091 56.2276 48.4415 55.4478 49.8856 55.1411C51.3321 54.8434 52.9085 54.7516 54.6215 54.8545L59.0807 55.1281C60.377 55.1758 61.6614 55.1405 62.9315 55.013C64.2016 54.8855 65.5486 54.5369 66.9679 53.9492C68.3896 53.3704 69.9454 52.4216 71.6174 51.1074C74.6843 48.7039 76.6994 46.1607 77.6716 43.4753C78.6439 40.7899 78.5867 38.2368 77.5026 35.825L82.8 31.0812L81.0168 30.3737L76.4678 33.9369C75.5479 32.6036 74.4614 31.8116 73.2061 31.552C71.9507 31.2924 70.6444 31.391 69.2847 31.8387C67.925 32.2864 66.5735 32.914 65.2416 33.7282C63.9096 34.5425 62.7014 35.3534 61.6169 36.1611L64.0027 42.5287C64.2509 42.3399 65.7859 43.2361 65.7859 43.2361C65.7859 43.2361 66.4135 40.7741 67.143 40.2978C68.0628 39.7053 68.8315 39.3434 69.4448 39.2326C70.0581 39.1218 70.5213 39.3565 70.8163 39.9412C71.1746 40.548 71.0928 41.2686 70.5866 42.0895C70.0804 42.9104 69.4899 43.5902 68.8125 44.12C67.2679 45.3342 65.8426 46.0097 64.5412 46.1645C63.2398 46.3192 61.9668 46.3613 60.72 46.3198L56.4117 46.0742C54.9265 46.037 53.4197 46.1012 51.8891 46.2961C50.3586 46.491 48.7737 46.9203 47.1459 47.5907C45.518 48.2612 43.7966 49.3103 41.9971 50.7246C40.2849 52.0684 38.8775 53.5537 37.7707 55.2008C36.6639 56.8478 35.9555 58.5163 35.6544 60.204C35.3444 61.8939 35.504 63.5102 36.1219 65.0463L31.2869 68.8368L32.3709 70.6929L32.3529 70.6976Z"
            fill="#111119" stroke="#111119" stroke-width="1.29787" stroke-linecap="round" stroke-linejoin="round" />
        <path
            d="M34.1362 71.4047L38.9244 67.6551C40.5459 70.0333 42.7211 71.0705 45.432 70.7714C48.1518 70.4699 51.5979 68.754 55.7859 65.6101L53.6379 59.1617C51.9499 60.4514 50.5292 61.4036 49.3846 62.016C48.2399 62.6284 47.3289 62.9217 46.6538 62.9048C45.9787 62.8878 45.4926 62.6016 45.1823 62.0687C44.7851 61.3858 44.829 60.7037 45.3228 60.0202C45.8166 59.3367 46.3965 58.7267 47.0739 58.1968C48.6833 56.9371 50.2158 56.1572 51.6599 55.8506C53.1064 55.5529 54.6828 55.4611 56.3957 55.5639L60.855 55.8375C62.1513 55.8853 63.4356 55.8499 64.7058 55.7224C65.9759 55.5949 67.3229 55.2463 68.7422 54.6586C70.1638 54.0799 71.7196 53.1311 73.3917 51.8169C76.4586 49.4134 78.4737 46.8701 79.4459 44.1848C80.4181 41.4994 80.361 38.9463 79.2769 36.5344L83.8751 32.9394L82.7911 31.0832L78.2421 34.6464C77.3221 33.313 76.2356 32.5211 74.9803 32.2615C73.725 32.0019 72.4187 32.1004 71.059 32.5481C69.6992 32.9959 68.3478 33.6235 67.0158 34.4377C65.6839 35.2519 64.4757 36.0629 63.3912 36.8705L65.777 43.2381C66.9553 42.3487 67.9998 41.6089 68.9196 41.0163C69.8394 40.4237 70.6081 40.0619 71.2214 39.9511C71.8347 39.8403 72.2979 40.0749 72.584 40.662C72.9422 41.2688 72.8604 41.9894 72.3542 42.8103C71.8481 43.6311 71.2575 44.311 70.5801 44.8408C69.0355 46.055 67.6102 46.7305 66.3088 46.8852C65.0074 47.04 63.7344 47.082 62.4876 47.0406L58.1794 46.795C56.6941 46.7578 55.1873 46.822 53.6567 47.0169C52.1262 47.2118 50.5413 47.6411 48.9135 48.3115C47.2856 48.9819 45.5642 50.0311 43.7647 51.4454C42.0525 52.7892 40.6451 54.2745 39.5383 55.9216C38.4315 57.5686 37.7231 59.2371 37.422 60.9247C37.112 62.6147 37.2717 64.231 37.8896 65.7671L33.0545 69.5575L34.1385 71.4137L34.1362 71.4047Z"
            fill="#A7F7F5" stroke="#111119" stroke-width="1.29787" stroke-linecap="round" stroke-linejoin="round" />
    </g>
    <defs>
        <clipPath id="clip0_160_1313">
            <rect width="91.5455" height="77.9839" fill="white"
                transform="matrix(-0.968104 0.25055 0.25055 0.968104 88.9751 0)" />
        </clipPath>
    </defs>
</svg>