<svg width="80" height="77" viewBox="0 0 80 77" fill="none" xmlns="http://www.w3.org/2000/svg">
    <g clip-path="url(#clip0_160_1295)">
        <path
            d="M52.9143 67.2107C63.3981 61.7098 65.3031 44.5561 57.1693 28.8968C49.0355 13.2376 33.943 5.00264 23.4592 10.5036C12.9754 16.0045 11.0703 33.1582 19.2041 48.8174C27.3379 64.4767 42.4305 72.7116 52.9143 67.2107Z"
            fill="#111119" stroke="#111119" stroke-linecap="round" stroke-linejoin="round" />
        <path
            d="M56.1575 65.6077C66.6413 60.1067 68.5463 42.953 60.4125 27.2938C52.2787 11.6346 37.1861 3.39961 26.7023 8.90054C16.2185 14.4015 14.3135 31.5552 22.4473 47.2144C30.5811 62.8736 45.6737 71.1086 56.1575 65.6077Z"
            fill="#A7F7F5" stroke="#111119" stroke-linecap="round" stroke-linejoin="round" />
        <path
            d="M53.9264 61.3122C62.8247 56.6433 64.4433 42.0871 57.5417 28.8001C50.64 15.513 37.8317 8.52676 28.9335 13.1957C20.0352 17.8647 18.4166 32.4209 25.3183 45.7079C32.2199 58.9949 45.0282 65.9812 53.9264 61.3122Z"
            fill="#A7F7F5" stroke="#111119" stroke-linecap="round" stroke-linejoin="round" />
        <path opacity="0.49"
            d="M54.1783 61.1883C54.8082 40.4447 39.5316 22.714 29.129 13.0993C31.4547 11.9256 34.0831 11.5411 36.8177 11.873C43.1486 12.6387 50.0661 17.2506 55.2088 24.8855C62.0777 35.0882 63.6398 47.4932 59.6462 55.3392C58.8179 56.963 57.7526 58.3865 56.448 59.5588C55.7372 60.1967 54.9769 60.7379 54.1783 61.1883Z"
            fill="#F8F8FF" />
        <path opacity="0.49"
            d="M59.6516 55.342C59.0919 37.1038 46.5838 21.4023 36.8232 11.8758C43.1541 12.6415 50.0716 17.2534 55.2143 24.8883C62.0832 35.0909 63.6453 47.496 59.6516 55.342Z"
            fill="#F8F8FF" />
        <path
            d="M53.9264 61.3122C62.8247 56.6433 64.4433 42.0871 57.5417 28.8001C50.64 15.513 37.8317 8.52676 28.9335 13.1957C20.0352 17.8647 18.4166 32.4209 25.3183 45.7079C32.2199 58.9949 45.0282 65.9812 53.9264 61.3122Z"
            stroke="#111119" stroke-linecap="round" stroke-linejoin="round" />
        <path
            d="M53.8881 25.7721C62.1845 38.0898 62.7464 53.6102 55.1273 60.4453C54.879 60.6663 54.6308 60.8732 54.3744 61.0686C55.1021 60.6458 55.7969 60.1492 56.445 59.5644C64.0555 52.7321 63.5022 37.2089 55.2058 24.8912C47.1806 12.9692 34.8379 8.42052 27.1521 14.3386C34.8727 9.84057 46.3027 14.5105 53.8881 25.7721Z"
            fill="#111119" stroke="#111119" stroke-linecap="round" stroke-linejoin="round" />
        <path
            d="M30.1002 19.6557L31.3933 19.5664L32.3935 23.0632C33.9297 21.8677 35.5405 21.6429 37.2201 22.4002C38.8998 23.1575 40.7571 24.9742 42.7921 27.8645L41.3677 31.4876L40.0746 31.5768C39.2581 30.3952 38.5424 29.4861 37.9357 28.8609C37.3264 28.2271 36.8039 27.8516 36.3711 27.7286C35.9327 27.6027 35.5594 27.6811 35.251 27.9638C34.8541 28.3219 34.7438 28.7705 34.9172 29.3152C35.0905 29.8599 35.3376 30.3713 35.6641 30.8524C36.4359 31.9968 37.26 32.8193 38.125 33.3141C38.9901 33.809 39.9836 34.1919 41.1082 34.4715L44.0347 35.2155C44.8778 35.4499 45.692 35.7406 46.4801 36.082C47.2682 36.4233 48.057 36.9287 48.852 37.6011C49.6414 38.2705 50.4443 39.2031 51.2494 40.3931C52.7155 42.5708 53.4837 44.6315 53.5456 46.5636C53.6075 48.4958 53.0443 50.1278 51.8419 51.4595L54.2551 55.612L52.962 55.7012L50.7849 52.4674C49.9157 53.1377 49.0516 53.4262 48.1925 53.333C47.3334 53.2399 46.5113 52.9095 45.7291 52.3363C44.9439 51.7687 44.214 51.08 43.525 50.2843C42.8389 49.4829 42.2314 48.7078 41.7053 47.9674L44.5625 44.3553C44.6816 44.5234 45.8556 44.2661 45.8556 44.2661C45.8556 44.2661 45.7511 45.9846 46.1202 46.4378C46.5893 47.0136 47.0073 47.3995 47.3798 47.5982C47.7553 47.7914 48.0945 47.7381 48.4061 47.4216C48.7601 47.1054 48.8595 46.6228 48.7099 45.9907C48.5547 45.3557 48.3167 44.799 47.9902 44.3179C47.246 43.2162 46.4744 42.4847 45.6696 42.1206C44.8649 41.7564 44.0592 41.463 43.2443 41.2288L40.4304 40.5001C39.4694 40.2193 38.5122 39.8621 37.5703 39.4203C36.6284 38.9784 35.6999 38.3727 34.7905 37.6059C33.884 36.8335 33.0005 35.8097 32.1319 34.5229C31.313 33.3046 30.7175 32.0516 30.3509 30.7669C29.9816 29.4737 29.8792 28.2538 30.0327 27.1014C30.1862 25.9491 30.6254 24.9437 31.3392 24.0796L29.021 20.6379L30.1029 19.6642L30.1002 19.6557Z"
            fill="#111119" stroke="#111119" stroke-linecap="round" stroke-linejoin="round" />
        <path
            d="M31.3961 19.561L33.6894 22.9685C35.2256 21.773 36.8364 21.5482 38.516 22.3055C40.1957 23.0628 42.053 24.8795 44.088 27.7697L41.3705 31.4821C40.554 30.3005 39.8383 29.3914 39.2316 28.7662C38.6223 28.1324 38.0998 27.7568 37.667 27.6339C37.2286 27.508 36.8553 27.5864 36.5469 27.869C36.15 28.2272 36.0397 28.6758 36.2131 29.2205C36.3864 29.7651 36.6335 30.2766 36.96 30.7577C37.7318 31.9021 38.5559 32.7246 39.4209 33.2194C40.286 33.7143 41.2795 34.0972 42.4041 34.3768L45.3306 35.1207C46.1737 35.3552 46.9879 35.6459 47.776 35.9872C48.5641 36.3286 49.3529 36.834 50.1479 37.5063C50.9373 38.1758 51.7402 39.1084 52.5453 40.2983C54.0114 42.4761 54.7796 44.5367 54.8415 46.4689C54.9034 48.4011 54.3402 50.0331 53.1378 51.3648L55.3399 54.6328L54.2579 55.6065L52.0808 52.3726C51.2116 53.0429 50.3475 53.3315 49.4884 53.2383C48.6293 53.1451 47.8072 52.8147 47.0249 52.2415C46.2398 51.6739 45.5099 50.9853 44.8209 50.1895C44.1348 49.3882 43.5273 48.613 43.0011 47.8726L45.8584 44.2606C46.4315 45.075 46.947 45.7672 47.4161 46.3431C47.8852 46.9189 48.3032 47.3048 48.6757 47.5035C49.0512 47.6966 49.3904 47.6434 49.702 47.3268C50.056 47.0107 50.1554 46.5281 50.0058 45.8959C49.8506 45.2609 49.6126 44.7043 49.2861 44.2232C48.5419 43.1215 47.7703 42.39 46.9655 42.0259C46.1608 41.6617 45.3551 41.3682 44.5402 41.1341L41.7263 40.4054C40.7653 40.1246 39.8081 39.7674 38.8662 39.3256C37.9243 38.8837 36.9958 38.278 36.0864 37.5112C35.1799 36.7388 34.2964 35.715 33.4278 34.4282C32.6089 33.2098 32.0134 31.9569 31.6468 30.6722C31.2775 29.379 31.1751 28.1591 31.3286 27.0067C31.4821 25.8543 31.9213 24.849 32.6351 23.9848L30.3169 20.5432L31.3988 19.5695L31.3961 19.561Z"
            fill="#A7F7F5" stroke="#111119" stroke-linecap="round" stroke-linejoin="round" />
    </g>
    <defs>
        <clipPath id="clip0_160_1295">
            <rect width="60.461" height="54.5" fill="white" transform="translate(25.3872) rotate(27.2225)" />
        </clipPath>
    </defs>
</svg>