<svg width="135" height="56" viewBox="0 0 135 56" fill="none" xmlns="http://www.w3.org/2000/svg">
    <g clip-path="url(#clip0_160_1305)">
        <path d="M129.041 0.712652L0.987305 41.3491L5.55561 55.4803L133.609 14.8438L129.041 0.712652Z" fill="#A7F7F5"
            stroke="#111119" stroke-width="1.29787" stroke-linecap="round" stroke-linejoin="round" />
        <path d="M118.588 4.03004L11.4409 38.032L16.0092 52.1632L123.156 18.1612L118.588 4.03004Z" fill="#F8F8FF"
            stroke="#111119" stroke-width="1.29787" stroke-linecap="round" stroke-linejoin="round" />
        <path d="M30.3683 32.0173L11.4316 38.0266L15.9999 52.1578L34.9366 46.1485L30.3683 32.0173Z" fill="#A7F7F5"
            stroke="#111119" stroke-width="1.29787" stroke-linecap="round" stroke-linejoin="round" />
        <path opacity="0.35" d="M30.3683 32.0173L11.4316 38.0266L15.9999 52.1578L34.9366 46.1485L30.3683 32.0173Z"
            fill="black" stroke="#111119" stroke-width="1.29787" stroke-linecap="round" stroke-linejoin="round" />
        <path d="M102.666 9.08221L27.3721 32.9761L31.9404 47.1073L107.235 23.2134L102.666 9.08221Z" fill="#A7F7F5"
            stroke="#111119" stroke-width="1.29787" stroke-linecap="round" stroke-linejoin="round" />
        <path opacity="0.16" d="M54.2937 24.4334L27.3662 32.9785L31.9345 47.1097L58.862 38.5646L54.2937 24.4334Z"
            fill="black" stroke="#111119" stroke-width="1.29787" stroke-linecap="round" stroke-linejoin="round" />
        <path d="M79.1363 16.5495L50.8921 25.5125L55.4604 39.6436L83.7046 30.6807L79.1363 16.5495Z" fill="#A7F7F5"
            stroke="#111119" stroke-width="1.29787" stroke-linecap="round" stroke-linejoin="round" />
    </g>
    <defs>
        <clipPath id="clip0_160_1305">
            <rect width="133.681" height="55.8085" fill="white" transform="translate(0.456543 0.191406)" />
        </clipPath>
    </defs>
</svg>