<svg width="169" height="40" viewBox="0 0 169 40" fill="none" xmlns="http://www.w3.org/2000/svg">
    <path fill-rule="evenodd" clip-rule="evenodd"
        d="M0 20C0 31.0495 8.95496 40 20 40C31.045 40 40 31.045 40 20C40 8.95496 31.045 0 20 0C8.95496 0 0 8.95496 0 20Z"
        fill="url(#paint0_linear_343_40)" />
    <path fill-rule="evenodd" clip-rule="evenodd"
        d="M19.9999 7.15771H29.0747C29.443 7.15771 29.7403 7.45059 29.7403 7.81891V13.0863C29.7403 13.4546 29.443 13.7519 29.0747 13.7519H20.741C20.1774 13.7519 19.7204 14.209 19.7204 14.7725V19.3033C19.7204 19.6716 19.423 19.9689 19.0547 19.9689H13.7874C13.419 19.9689 13.1217 19.6716 13.1217 19.3033V14.0359C13.1217 13.6676 13.419 13.3703 13.7874 13.3703H18.3181C18.8817 13.3703 19.3387 12.9176 19.3387 12.3541V7.82335C19.3387 7.45503 19.636 7.15771 20.0044 7.15771H19.9999ZM19.9289 32.7668H10.8497C10.4814 32.7668 10.1841 32.4739 10.1841 32.1056V26.8382C10.1841 26.4699 10.4814 26.1726 10.8497 26.1726H19.1878C19.7514 26.1726 20.2085 25.7155 20.2085 25.1519V20.6212C20.2085 20.2529 20.5058 19.9556 20.8741 19.9556H26.1415C26.5098 19.9556 26.8071 20.2529 26.8071 20.6212V25.8886C26.8071 26.2569 26.5098 26.5542 26.1415 26.5542H21.6107C21.0472 26.5542 20.5901 27.0068 20.5901 27.5704V32.1011C20.5901 32.4695 20.2928 32.7668 19.9245 32.7668H19.9289Z"
        fill="#060B21" />
    <path
        d="M52.7299 24.4745C52.5654 24.6702 52.432 24.7947 52.3252 24.8525C52.2274 24.9059 52.1029 24.937 51.9561 24.937C51.6671 24.937 51.4358 24.8436 51.2579 24.6524C51.0845 24.4567 51 24.1365 51 23.6873V22.4199C51 21.9663 51.0845 21.6461 51.2579 21.4549C51.4358 21.2592 51.6671 21.1614 51.9561 21.1614C52.1785 21.1614 52.3608 21.2192 52.5076 21.3348C52.6588 21.4504 52.7788 21.6461 52.8544 21.9218C52.9345 22.1931 53.0145 22.3754 53.1035 22.4733C53.2814 22.6645 53.5971 22.8557 54.0507 23.0514C54.5043 23.2471 54.998 23.3449 55.5361 23.3449C56.3721 23.3449 57.0614 23.1492 57.5995 22.7579C57.942 22.5178 58.1154 22.2242 58.1154 21.8774C58.1154 21.6461 58.0309 21.4282 57.8664 21.2281C57.7018 21.0191 57.4305 20.8501 57.057 20.7122C56.8124 20.6188 56.2654 20.4943 55.416 20.3342C54.3887 20.143 53.6105 19.9162 53.0857 19.6449C52.5609 19.3736 52.1429 18.9956 51.836 18.5064C51.5292 18.0173 51.378 17.4881 51.378 16.9188C51.378 16.0205 51.756 15.2334 52.5076 14.5619C53.2591 13.8814 54.2375 13.5435 55.4426 13.5435C55.9274 13.5435 56.3721 13.5968 56.7812 13.708C57.1993 13.8103 57.5728 13.9748 57.9108 14.1927C58.1554 13.9526 58.4 13.837 58.6446 13.837C58.9203 13.837 59.1427 13.9348 59.3161 14.1305C59.494 14.3217 59.5829 14.6375 59.5829 15.0866V16.5008C59.5829 16.9544 59.494 17.279 59.3161 17.4747C59.1427 17.6659 58.9203 17.7593 58.6446 17.7593C58.4134 17.7593 58.2088 17.6882 58.0398 17.5503C57.9064 17.448 57.8041 17.239 57.7374 16.9277C57.6707 16.6164 57.5862 16.3941 57.4795 16.2562C57.3016 16.025 57.0347 15.8293 56.6834 15.6692C56.3276 15.5091 55.9185 15.429 55.456 15.429C54.7756 15.429 54.2375 15.5891 53.8417 15.9049C53.4503 16.2162 53.2547 16.5453 53.2547 16.8877C53.2547 17.1189 53.3347 17.3457 53.4948 17.5681C53.6594 17.7816 53.8995 17.9506 54.2108 18.0706C54.4198 18.1551 55.0024 18.293 55.963 18.4842C56.928 18.6754 57.6707 18.88 58.1821 19.1068C58.7024 19.3336 59.1338 19.6894 59.4762 20.1697C59.8186 20.6544 59.9921 21.2281 59.9921 21.8952C59.9921 22.8246 59.663 23.5673 59.0092 24.1232C58.1421 24.8569 57.0347 25.2261 55.6873 25.2261C55.1669 25.2261 54.66 25.1638 54.1619 25.0348C53.6727 24.9103 53.1969 24.728 52.7299 24.4745ZM71.7325 15.7137V23.0736H72.9999C73.4535 23.0736 73.7737 23.1626 73.9649 23.3405C74.1606 23.5139 74.2585 23.7363 74.2585 24.0209C74.2585 24.3055 74.1606 24.5234 73.9649 24.7013C73.7737 24.8747 73.4535 24.9592 72.9999 24.9592H68.5973C68.1437 24.9592 67.819 24.8747 67.6233 24.7013C67.4321 24.5234 67.3387 24.2966 67.3387 24.012C67.3387 23.7274 67.4321 23.5139 67.6233 23.3405C67.819 23.1626 68.1437 23.0736 68.5973 23.0736H69.8558V15.7137H67.819V17.4925C67.819 17.9461 67.7301 18.2708 67.5522 18.4664C67.3788 18.6577 67.1564 18.751 66.8718 18.751C66.5872 18.751 66.3692 18.6577 66.1914 18.4664C66.0179 18.2708 65.9334 17.9461 65.9334 17.4925V13.8236L75.6771 13.8325V17.4925C75.6771 17.9461 75.5881 18.2708 75.4102 18.4664C75.2368 18.6577 75.0144 18.751 74.7298 18.751C74.4452 18.751 74.2273 18.6577 74.0494 18.4664C73.876 18.2708 73.7915 17.9461 73.7915 17.4925V15.7137H71.728H71.7325ZM84.22 20.7033V23.0692H84.9004C85.354 23.0692 85.6742 23.1581 85.8654 23.336C86.0611 23.5095 86.159 23.7318 86.159 24.0164C86.159 24.3011 86.0611 24.519 85.8654 24.6968C85.6742 24.8703 85.354 24.9548 84.9004 24.9548H82.0454C81.5918 24.9548 81.2671 24.8703 81.0714 24.6968C80.8802 24.519 80.7868 24.2922 80.7868 24.0075C80.7868 23.7229 80.8847 23.5095 81.0803 23.336C81.276 23.1581 81.5962 23.0692 82.0454 23.0692H82.3389V15.7092H82.0454C81.5918 15.7092 81.2671 15.6247 81.0714 15.4513C80.8802 15.2734 80.7868 15.0466 80.7868 14.762C80.7868 14.4774 80.8802 14.255 81.0714 14.0816C81.2671 13.9037 81.5918 13.8147 82.0454 13.8147L86.3012 13.8236C87.6265 13.8236 88.6582 14.1527 89.3831 14.8153C90.1169 15.4691 90.486 16.2695 90.486 17.2123C90.486 17.7994 90.3126 18.333 89.9746 18.8177C89.6321 19.2936 89.1163 19.7205 88.4225 20.0941C88.8183 20.441 89.2452 20.8901 89.6989 21.4327C89.979 21.7795 90.3615 22.3265 90.8373 23.0648C91.3132 23.0648 91.6289 23.1137 91.7846 23.2115C92.0603 23.4027 92.1981 23.6651 92.1981 24.0075C92.1981 24.2833 92.1047 24.5101 91.9135 24.688C91.7223 24.8614 91.4021 24.9459 90.9485 24.9459H89.8768C88.3514 22.5889 87.0884 21.1747 86.0878 20.6989H84.2245L84.22 20.7033ZM84.22 18.8222H85.6875C86.2301 18.8222 86.7193 18.7377 87.1462 18.5732C87.7199 18.3508 88.1068 18.1196 88.3025 17.875C88.5026 17.6304 88.6049 17.3902 88.6049 17.1501C88.6049 16.7943 88.4136 16.4697 88.0356 16.1673C87.6576 15.8604 87.1017 15.7092 86.3724 15.7092H84.2156V18.8177L84.22 18.8222ZM99.5448 20.9879V23.0692H100.225C100.679 23.0692 100.999 23.1581 101.19 23.336C101.386 23.5095 101.484 23.7318 101.484 24.0164C101.484 24.3011 101.386 24.519 101.19 24.6968C100.999 24.8703 100.679 24.9548 100.225 24.9548H97.3701C96.9165 24.9548 96.5919 24.8703 96.3962 24.6968C96.205 24.519 96.1116 24.2922 96.1116 24.0075C96.1116 23.7229 96.2094 23.5095 96.4051 23.336C96.6008 23.1581 96.921 23.0692 97.3701 23.0692H97.6637V15.7092H97.3701C96.9165 15.7092 96.5919 15.6247 96.3962 15.4513C96.205 15.2734 96.1116 15.0466 96.1116 14.762C96.1116 14.4774 96.205 14.255 96.3962 14.0816C96.5919 13.9037 96.9165 13.8147 97.3701 13.8147L100.225 13.8236C100.679 13.8236 100.999 13.9081 101.19 14.0816C101.386 14.255 101.484 14.4774 101.484 14.762C101.484 15.0466 101.386 15.2734 101.19 15.4513C100.999 15.6247 100.679 15.7092 100.225 15.7092H99.5448V18.4976L102.885 15.6247C102.689 15.4824 102.555 15.3534 102.48 15.2289C102.409 15.1044 102.369 14.9576 102.369 14.7798C102.369 14.4907 102.462 14.2594 102.653 14.0816C102.849 13.9037 103.174 13.8147 103.627 13.8147L105.544 13.8236C105.998 13.8236 106.318 13.9081 106.509 14.0816C106.705 14.255 106.802 14.4774 106.802 14.762C106.802 15.0466 106.705 15.2645 106.509 15.4424C106.318 15.6203 106.02 15.7092 105.611 15.7092L102.235 18.6621C102.867 19.0223 103.454 19.5738 104.005 20.312C104.561 21.0502 105.055 21.9708 105.482 23.0648H105.984C106.429 23.0648 106.749 23.1537 106.94 23.3316C107.136 23.505 107.234 23.7274 107.234 24.012C107.234 24.2966 107.14 24.5145 106.949 24.6924C106.758 24.8658 106.438 24.9503 105.984 24.9503H104.277C103.885 24.0164 103.458 23.1226 102.991 22.2732C102.613 21.5839 102.253 21.0813 101.906 20.77C101.568 20.4498 101.168 20.1964 100.697 20.0096L99.5403 20.9924L99.5448 20.9879ZM115.559 20.3164V23.0692H117.484C117.938 23.0692 118.258 23.1581 118.45 23.336C118.645 23.5095 118.743 23.7318 118.743 24.0164C118.743 24.3011 118.645 24.519 118.45 24.6968C118.258 24.8703 117.938 24.9548 117.484 24.9548H113.384C112.931 24.9548 112.606 24.8703 112.41 24.6968C112.219 24.519 112.126 24.2922 112.126 24.0075C112.126 23.7229 112.224 23.5095 112.419 23.336C112.615 23.1581 112.935 23.0692 113.384 23.0692H113.678V15.7092H113.384C112.931 15.7092 112.606 15.6247 112.41 15.4513C112.219 15.2734 112.126 15.0466 112.126 14.762C112.126 14.4774 112.219 14.255 112.41 14.0816C112.606 13.9037 112.931 13.8147 113.384 13.8147L122.238 13.8236V16.6965C122.238 17.1412 122.15 17.4658 121.972 17.6615C121.803 17.8527 121.576 17.9461 121.291 17.9461C121.007 17.9461 120.789 17.8527 120.611 17.6615C120.437 17.4703 120.353 17.1501 120.353 16.6965V15.7048H115.554V18.4308H117.204C117.204 17.9417 117.249 17.6259 117.342 17.4836C117.533 17.1857 117.8 17.0345 118.152 17.0345C118.427 17.0345 118.65 17.1323 118.823 17.328C119.001 17.5192 119.09 17.8394 119.09 18.293V20.4587C119.09 20.9123 119.001 21.237 118.823 21.4327C118.654 21.6239 118.427 21.7173 118.143 21.7173C117.8 21.7173 117.533 21.5661 117.342 21.2681C117.249 21.1258 117.204 20.8101 117.204 20.312H115.554L115.559 20.3164ZM133.885 24.9503V24.5101C133.414 24.7591 132.894 24.9459 132.325 25.0704C131.755 25.1994 131.239 25.2616 130.772 25.2616C129.763 25.2616 128.945 24.9948 128.313 24.4612C127.682 23.923 127.366 23.3316 127.366 22.6823C127.366 21.8952 127.766 21.1614 128.567 20.4899C129.376 19.8095 130.488 19.4715 131.907 19.4715C132.476 19.4715 133.134 19.5337 133.881 19.6538V19.2047C133.881 18.9245 133.761 18.6932 133.516 18.5153C133.276 18.3375 132.818 18.2485 132.138 18.2485C131.582 18.2485 130.857 18.3597 129.972 18.5776C129.643 18.6577 129.385 18.6977 129.203 18.6977C128.954 18.6977 128.736 18.6087 128.562 18.4308C128.389 18.2485 128.304 18.0128 128.304 17.7326C128.304 17.5726 128.335 17.4347 128.398 17.3191C128.46 17.2034 128.544 17.1101 128.656 17.0433C128.767 16.9677 128.994 16.8833 129.345 16.7854C129.812 16.6564 130.283 16.5542 130.768 16.483C131.253 16.403 131.689 16.3629 132.08 16.3629C133.25 16.3629 134.152 16.6164 134.797 17.1234C135.446 17.6259 135.771 18.3152 135.771 19.1869V23.0603H136.091C136.545 23.0603 136.865 23.1492 137.056 23.3271C137.252 23.5006 137.35 23.7229 137.35 24.0075C137.35 24.2922 137.252 24.5101 137.056 24.688C136.865 24.8614 136.545 24.9459 136.091 24.9459H133.89L133.885 24.9503ZM133.885 21.5839C133.134 21.4371 132.44 21.3615 131.804 21.3615C131.039 21.3615 130.381 21.5483 129.83 21.9218C129.487 22.162 129.318 22.4021 129.318 22.6467C129.318 22.8246 129.403 22.9669 129.567 23.0781C129.874 23.2782 130.292 23.3805 130.826 23.3805C131.279 23.3805 131.791 23.2916 132.36 23.1137C132.934 22.9358 133.445 22.6956 133.894 22.3888V21.5794L133.885 21.5839ZM147.147 16.6209V17.7949C147.934 17.2257 148.557 16.8477 149.01 16.6564C149.468 16.4652 149.9 16.3718 150.295 16.3718C150.909 16.3718 151.501 16.5986 152.074 17.0522C152.466 17.3591 152.661 17.6704 152.661 17.9861C152.661 18.2574 152.568 18.4842 152.377 18.6754C152.194 18.8578 151.972 18.9512 151.705 18.9512C151.474 18.9512 151.229 18.8355 150.971 18.6043C150.713 18.373 150.487 18.2574 150.282 18.2574C150.02 18.2574 149.624 18.422 149.099 18.751C148.579 19.0801 147.93 19.5782 147.142 20.2364V23.0736H149.824C150.278 23.0736 150.598 23.1626 150.789 23.3405C150.985 23.5139 151.083 23.7363 151.083 24.0209C151.083 24.3055 150.985 24.5234 150.789 24.7013C150.598 24.8747 150.278 24.9592 149.824 24.9592H144.145C143.691 24.9592 143.367 24.8747 143.171 24.7013C142.98 24.5234 142.886 24.2966 142.886 24.012C142.886 23.7274 142.98 23.5139 143.171 23.3405C143.367 23.1626 143.691 23.0736 144.145 23.0736H145.266V18.502H144.585C144.132 18.502 143.807 18.4175 143.611 18.2441C143.42 18.0662 143.327 17.8394 143.327 17.5548C143.327 17.2701 143.42 17.0567 143.611 16.8833C143.807 16.7054 144.132 16.6164 144.585 16.6164H147.147V16.6209ZM159.977 16.6209V17.1545C160.284 16.8566 160.559 16.652 160.804 16.5408C161.053 16.4252 161.342 16.3674 161.667 16.3674C161.942 16.3674 162.214 16.4341 162.485 16.5675C162.752 16.7009 163.019 16.9055 163.272 17.1723C163.597 16.901 163.921 16.7054 164.255 16.5764C164.593 16.443 164.935 16.3763 165.282 16.3763C165.98 16.3763 166.545 16.5631 166.981 16.9366C167.555 17.4258 167.844 18.0662 167.844 18.8622V23.0736C168.235 23.0736 168.524 23.1626 168.715 23.3405C168.907 23.5184 169 23.7452 169 24.0209C169 24.2966 168.907 24.5234 168.715 24.7013C168.524 24.8747 168.204 24.9592 167.75 24.9592H165.963V19.0223C165.963 18.7333 165.909 18.5376 165.807 18.4264C165.705 18.3152 165.545 18.2619 165.331 18.2619C165.118 18.2619 164.931 18.3152 164.753 18.4264C164.526 18.5776 164.25 18.8667 163.926 19.2891V23.0781C164.317 23.0781 164.606 23.167 164.797 23.3449C164.989 23.5228 165.082 23.7496 165.082 24.0253C165.082 24.3011 164.989 24.5279 164.797 24.7057C164.606 24.8792 164.286 24.9637 163.832 24.9637H162.045V19.0268C162.045 18.7466 161.991 18.5509 161.88 18.4397C161.778 18.3241 161.618 18.2663 161.404 18.2663C161.191 18.2663 160.968 18.3375 160.755 18.4753C160.542 18.6087 160.284 18.88 159.986 19.2936V23.0825C160.377 23.0825 160.666 23.1715 160.857 23.3494C161.053 23.5273 161.151 23.7541 161.151 24.0298C161.151 24.3055 161.053 24.5323 160.857 24.7102C160.666 24.8836 160.346 24.9681 159.892 24.9681H158.193C157.74 24.9681 157.42 24.8836 157.228 24.7102C157.033 24.5323 156.935 24.3055 156.935 24.0209C156.935 23.7363 157.028 23.5228 157.22 23.3494C157.411 23.1715 157.704 23.0825 158.1 23.0825V18.5109C157.704 18.5109 157.411 18.422 157.22 18.2441C157.028 18.0662 156.935 17.8394 156.935 17.5637C156.935 17.2879 157.033 17.0656 157.228 16.8921C157.42 16.7143 157.74 16.6253 158.193 16.6253H159.981L159.977 16.6209Z"
        fill="#AD99FF" />
    <defs>
        <linearGradient id="paint0_linear_343_40" x1="0" y1="20" x2="40" y2="20" gradientUnits="userSpaceOnUse">
            <stop stop-color="#6F4FF2" />
            <stop offset="1" stop-color="#AD99FF" />
        </linearGradient>
    </defs>
</svg>