<svg width="77" height="77" viewBox="0 0 77 77" fill="none" xmlns="http://www.w3.org/2000/svg">
    <circle cx="38.35" cy="38.35" r="38.35" fill="#6680E3" />
    <g clip-path="url(#clip0_165_72)">
        <path
            d="M38.4359 9.89947V9.9278C38.4642 10.0695 38.4642 10.2395 38.4642 10.4095V30.8408C38.4359 30.9542 38.3508 30.9825 38.2658 31.0392C37.6707 31.3226 37.104 31.5776 36.5089 31.8326C35.6871 32.201 34.837 32.5978 34.0152 32.9661L31.0398 34.3263C30.218 34.6947 29.3962 35.0631 28.6028 35.4315C27.6393 35.8849 26.6475 36.31 25.684 36.7634C24.8622 37.1317 24.0404 37.5285 23.1903 37.8969C22.5102 38.2086 21.8301 38.4919 21.1784 38.8037C21.1217 38.832 21.065 38.8603 21.0083 38.8603C20.98 38.8603 20.98 38.8603 20.9517 38.832L21.7168 37.5568C23.1903 35.1198 24.6355 32.7111 26.1091 30.2741C27.6676 27.667 29.2545 25.06 30.8131 22.453C32.2583 20.0443 33.7318 17.6356 35.1771 15.2269C36.2255 13.47 37.3024 11.7131 38.3508 9.95614C38.3792 9.89947 38.4075 9.87113 38.4075 9.81445H38.4359C38.4075 9.84279 38.4359 9.87113 38.4359 9.89947Z"
            fill="white" />
        <path
            d="M55.8338 38.8319L55.8621 38.8602L51.6965 41.3256L38.6046 49.0617C38.548 49.09 38.4913 49.1184 38.4629 49.1467C38.3779 49.1467 38.3779 49.0617 38.3779 49.0334V48.7783V31.2658C38.3779 31.1808 38.3779 31.0674 38.4063 30.9824C38.4346 30.8691 38.5196 30.8974 38.6046 30.9257C38.973 31.0958 39.3697 31.2658 39.7381 31.4358C40.8433 31.9459 41.9484 32.456 43.0536 32.9377C44.0171 33.3628 44.9522 33.8162 45.9157 34.2412C46.8792 34.6663 47.8426 35.1197 48.8061 35.5447C49.6279 35.9131 50.478 36.3098 51.2998 36.6782C52.1216 37.0466 52.9717 37.4433 53.7935 37.8117C54.4453 38.0951 55.097 38.4068 55.7488 38.6902C55.7488 38.7752 55.7771 38.8035 55.8338 38.8319Z"
            fill="#8499E8" />
        <path
            d="M38.4344 66.7443C38.4344 66.7726 38.4061 66.801 38.4061 66.8293H38.3777C38.3777 66.7726 38.321 66.7443 38.2927 66.6876C36.5358 64.2223 34.7789 61.7286 33.0219 59.2632C31.2367 56.7412 29.4231 54.1908 27.6378 51.6688C25.9092 49.2318 24.1523 46.7664 22.4237 44.3294C21.9703 43.6776 21.5169 43.0542 21.0635 42.4024C21.0352 42.3458 21.0069 42.3174 20.9502 42.2324C21.0352 42.2324 21.0919 42.2891 21.1202 42.3174C23.5856 43.7626 26.0226 45.2079 28.488 46.6531C31.3217 48.325 34.1271 49.9969 36.9608 51.6688L38.4061 52.5189C38.4627 52.5756 38.4627 52.6323 38.4627 52.6889V66.3476C38.4627 66.4893 38.4627 66.631 38.4344 66.7443Z"
            fill="white" />
        <path
            d="M20.9224 38.8886V38.8603C21.8292 38.4636 22.7076 38.0385 23.6144 37.6418C24.7763 37.1034 25.9381 36.5933 27.0999 36.0549C27.9784 35.6582 28.8852 35.2331 29.7636 34.8364C31.0672 34.2413 32.3424 33.6745 33.6459 33.0794C34.5243 32.6827 35.4028 32.286 36.3096 31.8609C36.933 31.5776 37.5848 31.2942 38.2082 31.0108C38.2649 30.9825 38.3499 30.9541 38.3782 30.8975C38.4066 30.8975 38.4066 30.9258 38.3782 30.9541V48.9484C38.3782 49.0334 38.3499 49.1184 38.4066 49.1751C38.3499 49.2601 38.2932 49.1751 38.2649 49.1468C38.0098 49.0051 37.7548 48.8634 37.4998 48.6934C32.0306 45.4629 26.5332 42.2041 21.0641 38.9736C21.0357 38.9453 20.979 38.917 20.9224 38.8886Z"
            fill="#C3CCF3" />
        <path
            d="M55.7776 42.2324H55.8059C55.8059 42.2891 55.7493 42.3458 55.7209 42.4024C50.5068 49.7418 45.2927 57.1096 40.0786 64.449C39.5402 65.2141 38.9735 65.9792 38.4351 66.7443C38.4067 66.716 38.4067 66.6876 38.4067 66.6593V66.4893V52.7456V52.4906C39.5969 51.7821 40.7587 51.102 41.9489 50.3936C46.5396 47.6732 51.1302 44.9812 55.6926 42.2608C55.7209 42.2891 55.7492 42.2608 55.7776 42.2324Z"
            fill="#C3CCF3" />
        <path
            d="M38.4068 30.9541V30.8974V30.7274V10.1544C38.4068 10.0694 38.3784 10.0127 38.4351 9.92773C44.1876 19.4775 49.9401 28.9988 55.6643 38.5485C55.721 38.6336 55.806 38.7469 55.8343 38.8603C55.4376 38.7186 55.0692 38.5202 54.7008 38.3502C54.2474 38.1518 53.7657 37.9251 53.3123 37.7268C53.0289 37.5851 52.7172 37.4717 52.4338 37.33C51.9521 37.1033 51.4703 36.905 50.9886 36.6783C50.7052 36.5649 50.4218 36.4232 50.1385 36.2816L48.2682 35.4314C47.9565 35.2897 47.6448 35.1481 47.3047 35.0064L45.9445 34.4113C45.6612 34.2979 45.3778 34.1562 45.0944 34.0146L43.2241 33.1644C42.9124 33.0227 42.6007 32.8811 42.2607 32.7394L40.9005 32.1443C40.5888 32.0026 40.3054 31.8609 39.9937 31.7192C39.4553 31.4642 38.9168 31.2092 38.3501 30.9825C38.4351 30.9541 38.4068 30.9541 38.4068 30.9541Z"
            fill="#C3CCF3" />
    </g>
    <defs>
        <clipPath id="clip0_165_72">
            <rect width="57.525" height="57.525" fill="white" transform="translate(9.5874 9.58765)" />
        </clipPath>
    </defs>
</svg>