<svg width="49" height="48" viewBox="0 0 49 48" fill="none" xmlns="http://www.w3.org/2000/svg">
    <circle cx="24" cy="24" r="24" fill="#F5AC37" />
    <path
        d="M26.8224 24.9433H34.6694C34.8367 24.9433 34.9157 24.9433 34.9278 24.724C34.9919 23.9257 34.9919 23.1228 34.9278 22.3236C34.9278 22.1684 34.8506 22.1043 34.6824 22.1043H19.0655C18.8723 22.1043 18.8202 22.1684 18.8202 22.3496V24.6469C18.8202 24.9433 18.8202 24.9433 19.1297 24.9433H26.8224ZM34.0514 19.4195C34.0737 19.361 34.0737 19.2969 34.0514 19.2393C33.9204 18.954 33.7652 18.6817 33.5849 18.4261C33.3136 17.9893 32.9939 17.587 32.6296 17.2255C32.4577 17.0071 32.2588 16.811 32.0358 16.6446C30.9188 15.694 29.5908 15.0212 28.1634 14.6829C27.4432 14.5212 26.7072 14.4441 25.9693 14.4506H19.0386C18.8453 14.4506 18.8193 14.5277 18.8193 14.6959V19.2774C18.8193 19.4706 18.8193 19.5227 19.0646 19.5227H33.9585C33.9585 19.5227 34.0877 19.4967 34.1137 19.4195H34.0505H34.0514ZM34.0514 27.628C33.8321 27.6039 33.611 27.6039 33.3916 27.628H19.0786C18.8853 27.628 18.8202 27.628 18.8202 27.8864V32.3656C18.8202 32.5719 18.8202 32.624 19.0786 32.624H25.6868C26.0028 32.6481 26.3187 32.6258 26.6282 32.5598C27.5872 32.4911 28.5305 32.2829 29.43 31.94C29.7571 31.8266 30.0731 31.6789 30.3714 31.5014H30.4616C32.0107 30.6957 33.269 29.43 34.0626 27.8762C34.0626 27.8762 34.1527 27.681 34.0514 27.6299V27.628ZM16.2265 34.9463V34.8692V31.8619V30.8425V27.8093C16.2265 27.6411 16.2265 27.616 16.0202 27.616H13.2193C13.0641 27.616 13 27.616 13 27.4097V24.9572H15.9942C16.1615 24.9572 16.2265 24.9572 16.2265 24.7379V22.3115C16.2265 22.1563 16.2265 22.1182 16.0202 22.1182H13.2193C13.0641 22.1182 13 22.1182 13 21.9119V19.6407C13 19.4985 13 19.4604 13.2063 19.4604H15.9812C16.1745 19.4604 16.2265 19.4604 16.2265 19.2151V12.2583C16.2265 12.052 16.2265 12 16.4849 12H26.1645C26.867 12.0279 27.5649 12.105 28.2554 12.2323C29.6782 12.4953 31.0452 13.0036 32.2951 13.7294C33.124 14.2173 33.887 14.8065 34.5663 15.4849C35.0774 16.0155 35.5383 16.5898 35.9472 17.2013C36.3533 17.8211 36.6907 18.4837 36.9555 19.1761C36.988 19.3563 37.1609 19.4781 37.3412 19.4474H39.6514C39.9479 19.4474 39.9479 19.4474 39.9609 19.7318V21.8487C39.9609 22.055 39.8837 22.1071 39.6765 22.1071H37.895C37.7147 22.1071 37.6627 22.1071 37.6757 22.3394C37.7463 23.1256 37.7463 23.9146 37.6757 24.7008C37.6757 24.9201 37.6757 24.9461 37.922 24.9461H39.9599C40.0501 25.0622 39.9599 25.1784 39.9599 25.2955C39.9729 25.4451 39.9729 25.5966 39.9599 25.7462V27.3084C39.9599 27.5277 39.8958 27.5927 39.7016 27.5927H37.2622C37.0921 27.5602 36.9267 27.6689 36.8877 27.8381C36.3069 29.3482 35.3776 30.7022 34.1769 31.7876C33.7383 32.1826 33.2773 32.5543 32.796 32.8972C32.2793 33.1946 31.7765 33.504 31.2468 33.7494C30.272 34.188 29.2497 34.5114 28.2006 34.7168C27.2044 34.8952 26.1942 34.976 25.1803 34.9621H16.2228V34.9491L16.2265 34.9463Z"
        fill="white" />
</svg>