<svg width="379" height="476" viewBox="0 0 379 476" fill="none" xmlns="http://www.w3.org/2000/svg">
    <g opacity="0.4">
        <path
            d="M-75 -2.18557e-08L-75 476H-74L-74 2.18557e-08L-75 -2.18557e-08ZM379 22L-97 22L-97 23L379 23V22ZM-27 -2.18557e-08L-27 476H-26L-26 2.18557e-08L-27 -2.18557e-08ZM379 70L-97 70L-97 71L379 71V70ZM21 -2.18557e-08L21 476H22L22 2.18557e-08L21 -2.18557e-08ZM379 118L-97 118L-97 119L379 119V118ZM69 -2.18557e-08L69 476H70L70 2.18557e-08L69 -2.18557e-08ZM379 166L-97 166L-97 167L379 167V166ZM117 -2.18557e-08L117 476H118L118 2.18557e-08L117 -2.18557e-08ZM379 214L-97 214L-97 215L379 215V214ZM165 -2.18557e-08L165 476H166L166 2.18557e-08L165 -2.18557e-08ZM379 262L-97 262L-97 263L379 263V262ZM213 -2.18557e-08L213 476H214L214 2.18557e-08L213 -2.18557e-08ZM379 310L-97 310L-97 311L379 311V310ZM261 -2.18557e-08L261 476H262L262 2.18557e-08L261 -2.18557e-08ZM379 358L-97 358L-97 359L379 359V358ZM309 -2.18557e-08L309 476H310L310 2.18557e-08L309 -2.18557e-08ZM379 406L-97 406L-97 407L379 407V406ZM357 -2.18557e-08L357 476H358L358 2.18557e-08L357 -2.18557e-08ZM379 454L-97 454L-97 455L379 455V454Z"
            fill="url(#paint0_radial_160_1024)" fill-opacity="0.6" />
    </g>
    <defs>
        <radialGradient id="paint0_radial_160_1024" cx="0" cy="0" r="1" gradientUnits="userSpaceOnUse"
            gradientTransform="translate(141 238) rotate(90) scale(238)">
            <stop stop-color="#66EFB0" />
            <stop offset="1" stop-color="#111119" />
        </radialGradient>
    </defs>
</svg>