<svg width="127" height="264" viewBox="0 0 127 264" fill="none" xmlns="http://www.w3.org/2000/svg">
    <g opacity="0.8">
        <path
            d="M114.791 263.992L114.791 -3.15842e-05L114.236 -3.16327e-05L114.236 263.992L114.791 263.992ZM-137 251.791L126.992 251.791L126.992 251.237L-137 251.237L-137 251.791ZM88.1699 263.992L88.1699 -3.39115e-05L87.6153 -3.396e-05L87.6152 263.992L88.1699 263.992ZM-137 225.17L126.992 225.17L126.992 224.615L-137 224.615L-137 225.17ZM61.5486 263.992L61.5487 -3.62388e-05L60.9941 -3.62873e-05L60.994 263.992L61.5486 263.992ZM-137 198.549L126.992 198.549L126.992 197.994L-137 197.994L-137 198.549ZM34.9285 263.992L34.9286 -3.8566e-05L34.374 -3.86145e-05L34.3739 263.992L34.9285 263.992ZM-137 171.928L126.992 171.928L126.992 171.373L-137 171.373L-137 171.928ZM8.30731 263.992L8.30735 -4.08933e-05L7.75274 -4.09418e-05L7.75271 263.992L8.30731 263.992ZM-137 145.307L126.992 145.307L126.992 144.752L-137 144.752L-137 145.307ZM-18.3139 263.992L-18.3139 -4.32206e-05L-18.8685 -4.32691e-05L-18.8685 263.992L-18.3139 263.992ZM-137 118.686L126.992 118.686L126.992 118.131L-137 118.131L-137 118.686ZM-44.9351 263.992L-44.9351 -4.55479e-05L-45.4897 -4.55964e-05L-45.4897 263.992L-44.9351 263.992ZM-137 92.0644L126.992 92.0645L126.992 91.5099L-137 91.5098L-137 92.0644ZM-71.5563 263.992L-71.5563 -4.78752e-05L-72.1109 -4.79237e-05L-72.1109 263.992L-71.5563 263.992ZM-137 65.4435L126.992 65.4435L126.992 64.8889L-137 64.8889L-137 65.4435ZM-98.1775 263.992L-98.1775 -5.02025e-05L-98.7321 -5.0251e-05L-98.7321 263.992L-98.1775 263.992ZM-137 38.8223L126.992 38.8223L126.992 38.2677L-137 38.2677L-137 38.8223ZM-124.799 263.992L-124.799 -5.25298e-05L-125.353 -5.25783e-05L-125.353 263.992L-124.799 263.992ZM-137 12.2013L126.992 12.2014L126.992 11.6468L-137 11.6467L-137 12.2013Z"
            fill="url(#paint0_radial_442_868)" fill-opacity="0.6" />
    </g>
    <defs>
        <radialGradient id="paint0_radial_442_868" cx="0" cy="0" r="1" gradientUnits="userSpaceOnUse"
            gradientTransform="translate(-5.00403 131.996) rotate(-90) scale(131.996)">
            <stop stop-color="#66EFB0" />
            <stop offset="1" stop-color="#111119" />
        </radialGradient>
    </defs>
</svg>