<svg width="246" height="34" viewBox="0 0 246 34" fill="none" xmlns="http://www.w3.org/2000/svg">
    <g clip-path="url(#clip0_160_1393)">
        <path
            d="M53.4345 19.1604C56.8946 19.1604 59.6996 16.5329 59.6996 13.2918C59.6996 10.0506 56.8946 7.4231 53.4345 7.4231C49.9739 7.4231 47.1689 10.0506 47.1689 13.2918C47.1689 16.5329 49.9739 19.1604 53.4345 19.1604Z"
            fill="#F8F8FF" />
        <path
            d="M6.26537 33.8973C9.72562 33.8973 12.5307 31.2698 12.5307 28.0286C12.5307 24.7874 9.72562 22.1599 6.26537 22.1599C2.8051 22.1599 0 24.7874 0 28.0286C0 31.2698 2.8051 33.8973 6.26537 33.8973Z"
            fill="#F8F8FF" />
        <path
            d="M37.7026 22.1596C32.4819 22.1596 28.2348 18.1814 28.2348 13.2918C28.2348 10.0562 25.4237 7.4231 21.9694 7.4231C18.5152 7.4231 15.7041 10.0562 15.7041 13.2918C15.7041 16.5273 18.5152 19.1604 21.9694 19.1604C27.1901 19.1604 31.4373 23.1387 31.4373 28.0288C31.4373 31.2644 34.2484 33.8975 37.7026 33.8975C41.1568 33.8975 43.9681 31.2644 43.9681 28.0288C43.9681 24.7933 41.1568 22.1596 37.7026 22.1596Z"
            fill="#F8F8FF" />
        <path
            d="M73.8573 32.8076V9.7464H78.2703L78.7347 13.1399C80.2676 10.7469 83.3807 9.04956 87.0493 9.04956C92.2986 9.04956 95.7363 12.3566 95.7363 17.5343V32.8071H90.2545V17.7952C90.2545 15.2283 88.4433 13.5315 85.3771 13.5315C81.8005 13.5315 79.384 15.8376 79.338 18.84V32.8071H73.8569L73.8573 32.8076Z"
            fill="#F8F8FF" />
        <path
            d="M98.8042 3.30704C98.8042 1.43583 100.337 0 102.335 0C104.379 0 105.867 1.43583 105.867 3.30704C105.867 5.17825 104.38 6.65729 102.335 6.65729C100.338 6.65729 98.8042 5.17825 98.8042 3.30704Z"
            fill="#F8F8FF" />
        <path d="M105.075 9.74658H99.5942V32.8078H105.075V9.74658Z" fill="#F8F8FF" />
        <path
            d="M109.257 32.8078V9.74659H113.67L114.088 12.9667C115.621 10.7044 118.64 9.05029 122.31 9.05029C125.841 9.05029 128.535 10.7038 129.835 13.3583C131.229 10.9215 134.388 9.05029 138.29 9.05029C143.446 9.05029 146.745 12.4881 146.745 17.4481V32.8078H141.216V17.7095C141.216 15.142 139.545 13.489 136.898 13.489C133.134 13.489 130.766 15.7951 130.719 18.8407V32.8078H125.236V17.7095C125.236 15.142 123.565 13.489 120.918 13.489C117.155 13.489 114.786 15.7951 114.739 18.8407V32.8078H109.257Z"
            fill="#F8F8FF" />
        <path
            d="M155.622 28.718L155.111 32.8083H150.698V0.173828H156.179V12.7489C157.944 10.4866 160.871 9.05023 164.355 9.05023C170.859 9.05023 175.457 14.0108 175.457 21.1467C175.457 28.4133 170.858 33.4608 164.309 33.4608C160.406 33.4608 157.154 31.6334 155.622 28.718ZM169.837 21.1467C169.837 16.5777 167.096 13.4014 163.101 13.4014C159.059 13.4014 156.179 16.534 156.179 21.0159C156.179 25.7588 159.059 29.1096 163.101 29.1096C167.096 29.1096 169.837 25.8463 169.837 21.1467Z"
            fill="#F8F8FF" />
        <path
            d="M177.038 21.0598C177.038 13.5322 182.473 9.05029 189.673 9.05029C197.617 9.05029 202.262 14.2718 202.262 21.0598C202.262 28.8488 197.012 33.4609 189.673 33.4609C181.684 33.4609 177.038 28.1957 177.038 21.0598ZM196.688 21.0598C196.688 16.4909 193.946 13.4453 189.673 13.4453C185.399 13.4453 182.612 16.4909 182.612 21.0598C182.612 26.1073 185.632 29.0659 189.673 29.0659C194.087 29.0659 196.688 25.6719 196.688 21.0598Z"
            fill="#F8F8FF" />
        <path
            d="M205.145 32.8078V9.74653H209.557L210.208 14.2717C211.787 11.1392 214.667 9.48511 218.756 9.48511H219.685V14.4889H218.756C213.646 14.4889 210.626 17.0564 210.626 21.4076V32.8078H205.145Z"
            fill="#F8F8FF" />
        <path
            d="M219.918 21.1467C219.918 14.0109 224.61 9.05029 231.159 9.05029C235.015 9.05029 238.221 10.7476 239.8 13.3583L240.264 9.74713H244.677V32.8078H239.242V29.6753C237.662 32.0251 234.876 33.4609 231.344 33.4609C224.701 33.4609 219.917 28.4134 219.917 21.1467H219.918ZM239.242 21.103C239.242 16.5341 236.455 13.3578 232.461 13.3578C228.372 13.3578 225.538 16.5779 225.538 21.19C225.538 25.8459 228.325 29.1091 232.366 29.1091C236.407 29.1091 239.242 25.8021 239.242 21.103Z"
            fill="#F8F8FF" />
    </g>
    <defs>
        <clipPath id="clip0_160_1393">
            <rect width="245.049" height="34" fill="white" />
        </clipPath>
    </defs>
</svg>