<svg width="201" height="44" viewBox="0 0 201 44" fill="none" xmlns="http://www.w3.org/2000/svg">
    <g clip-path="url(#clip0_160_1406)">
        <mask id="mask0_160_1406" style="mask-type:luminance" maskUnits="userSpaceOnUse" x="0" y="0" width="202"
            height="44">
            <path d="M201.008 0H0.818359V44H201.008V0Z" fill="white" />
        </mask>
        <g mask="url(#mask0_160_1406)">
            <path
                d="M68.1872 22.9348C67.001 20.8773 65.3194 17.6311 64.2034 15.2939H64.1333C64.2384 17.8758 64.2734 21.0821 64.2734 23.2794V32.4536H60.4648V11.5283H66.3354L70.8797 19.7237C72.3111 22.3056 73.9226 25.4419 75.0386 27.7442H75.0737C75.0386 25.337 75.0036 22.7551 75.0036 20.6975V11.5283H78.8122V32.4536H73.6023L68.1822 22.9298L68.1872 22.9348Z"
                fill="#F8F8FF" />
            <path
                d="M102.414 22.3405C102.414 18.3303 100.037 15.1191 95.633 15.1191C91.2288 15.1191 88.8516 18.3303 88.8516 22.3405C88.8516 26.7353 91.1938 29.7717 95.633 29.7717C100.072 29.7717 102.414 26.7353 102.414 22.3405ZM84.9028 22.3755C84.9028 16.1329 89.0968 11.5283 95.633 11.5283C102.169 11.5283 106.398 16.1329 106.398 22.3755C106.398 28.6182 102.379 33.3625 95.633 33.3625C88.8866 33.3625 84.9028 28.6531 84.9028 22.3755Z"
                fill="#F8F8FF" />
            <path
                d="M111.873 25.9663L115.717 25.1972C116.278 28.1637 118.304 29.9066 121.518 29.9066C124.21 29.9066 125.606 28.8579 125.606 27.1848C125.606 25.5118 124.385 24.6029 120.431 24.0086C114.631 23.0997 112.774 20.7624 112.774 17.5912C112.774 13.8956 115.502 11.5234 120.601 11.5234C126.126 11.5234 128.364 14.4899 129.165 18.3253L125.251 19.1294C124.585 16.3726 123.399 14.9094 120.426 14.9094C118.084 14.9094 116.793 15.9532 116.793 17.5263C116.793 18.9196 117.564 19.9334 122.178 20.7025C128.084 21.6464 129.66 24.0836 129.66 27.05C129.66 30.8156 127.038 33.3626 121.272 33.3626C114.912 33.3275 112.359 30.0165 111.868 25.9663"
                fill="#F8F8FF" />
            <path d="M134.67 11.5283H151.586V15.2939H145.119V32.4536H141.136V15.2939H134.67V11.5283Z" fill="#F8F8FF" />
            <path
                d="M161.531 15.0492V20.6326H166.285C168.697 20.6326 170.059 19.5839 170.059 17.701C170.059 16.028 169.078 15.0492 166.495 15.0492H161.531ZM165.024 24.1534H161.531V32.4536H157.547V11.5283H166.67C171.6 11.5283 173.977 13.7957 173.977 17.5962C173.977 20.9472 172.266 23.0747 169.188 23.8387L175.339 32.3837V32.4536H170.514L165.024 24.1534Z"
                fill="#F8F8FF" />
            <path
                d="M187.025 24.0136H193.561L192.65 21.5715C191.879 19.5839 191.078 17.4214 190.412 15.4337H190.167C189.502 17.4214 188.701 19.5839 187.931 21.5715L187.019 24.0136H187.025ZM194.787 27.2597H185.768L183.811 32.4586H179.688L188.076 11.5283H192.62L201.008 32.4586H196.709L194.787 27.2597Z"
                fill="#F8F8FF" />
            <path
                d="M0.818359 28.2885L16.4331 19.2941L0.818359 10.2948V28.2885ZM20.3218 21.5315L0.818359 32.7682L20.3218 44.0049L39.8203 32.7682V10.2948L20.3218 21.5315ZM20.0766 6.46436L11.1281 11.7581L20.3168 17.0518L29.5055 11.7581L20.0716 6.46436H20.0766Z"
                fill="#F8F8FF" />
        </g>
    </g>
    <defs>
        <clipPath id="clip0_160_1406">
            <rect width="200.19" height="44" fill="white" transform="translate(0.818359)" />
        </clipPath>
    </defs>
</svg>