<svg width="197" height="44" viewBox="0 0 197 44" fill="none" xmlns="http://www.w3.org/2000/svg">
    <mask id="mask0_160_1418" style="mask-type:luminance" maskUnits="userSpaceOnUse" x="0" y="0" width="197"
        height="44">
        <path d="M196.23 0H0.818359V44H196.23V0Z" fill="white" />
    </mask>
    <g mask="url(#mask0_160_1418)">
        <path
            d="M48.377 34.122V3.02295H60.7633C63.5549 3.02295 65.6994 3.81793 67.2005 5.40788C68.7017 6.9977 69.4523 9.17182 69.4523 11.9337C69.4523 14.6958 68.7017 16.8735 67.2005 18.4597C65.6994 20.0497 63.5549 20.8446 60.7633 20.8446H52.1188V34.122H48.377ZM52.1188 17.5464H60.7633C62.2496 17.5464 63.3996 17.162 64.2167 16.3892C65.0338 15.6164 65.4405 14.5183 65.4405 13.0911V10.7728C65.4405 9.34562 65.0302 8.24743 64.2167 7.47471C63.3996 6.70187 62.2496 6.31738 60.7633 6.31738H52.1188V17.5464Z"
            fill="white" />
        <path
            d="M74.5728 34.1219V11.1313H78.137V15.3648H78.359C78.7731 14.2667 79.5162 13.287 80.5847 12.4255C81.6533 11.5638 83.1249 11.135 84.9958 11.135H86.3786V14.6994H84.2859C82.3558 14.6994 80.8473 15.0617 79.764 15.79C78.6805 16.5185 78.137 17.4318 78.137 18.5298V34.1219H74.5728Z"
            fill="white" />
        <path
            d="M107.453 34.1217C106.119 34.1217 105.157 33.7667 104.58 33.0531C104 32.3396 103.638 31.4484 103.49 30.3799H103.268C102.761 31.8071 101.929 32.8757 100.772 33.5893C99.6148 34.3029 98.232 34.6578 96.6273 34.6578C94.1907 34.6578 92.2976 34.033 90.9481 32.7869C89.5948 31.541 88.9219 29.8475 88.9219 27.7067C88.9219 25.5659 89.7168 23.8762 91.3067 22.7152C92.8966 21.5579 95.3664 20.9773 98.7238 20.9773H103.268V18.7034C103.268 17.0692 102.82 15.8231 101.929 14.9616C101.038 14.1001 99.6703 13.6713 97.8289 13.6713C96.4314 13.6713 95.2667 13.9818 94.3312 14.6066C93.3958 15.2316 92.6155 16.0634 91.9907 17.1025L89.8536 15.0984C90.4784 13.8524 91.4731 12.7876 92.8375 11.9113C94.2017 11.035 95.9247 10.5986 98.0064 10.5986C100.798 10.5986 102.968 11.2791 104.51 12.6433C106.056 14.0077 106.828 15.9045 106.828 18.3337V30.9604H109.457V34.1254H107.453V34.1217ZM97.2077 31.626C98.0989 31.626 98.916 31.5224 99.6592 31.3154C100.402 31.1083 101.042 30.8089 101.574 30.4243C102.111 30.0398 102.525 29.5924 102.82 29.0895C103.116 28.583 103.268 28.0357 103.268 27.4404V23.6543H98.5462C96.4979 23.6543 95.0041 23.95 94.0687 24.5453C93.1332 25.1406 92.6637 26.0021 92.6637 27.1298V28.0653C92.6637 29.193 93.0703 30.0693 93.8875 30.6942C94.7046 31.319 95.8102 31.6296 97.2077 31.6296V31.626Z"
            fill="white" />
        <path
            d="M133.916 36.6843C133.916 39.0506 132.988 40.7921 131.132 41.9014C129.276 43.0106 126.492 43.5653 122.78 43.5653C119.068 43.5653 116.601 43.0735 115.026 42.0973C113.451 41.1176 112.664 39.7235 112.664 37.9155C112.664 36.6695 112.989 35.697 113.643 35.0019C114.298 34.3031 115.189 33.7929 116.317 33.4675V32.9795C114.949 32.3287 114.268 31.2639 114.268 29.7848C114.268 28.6313 114.638 27.7513 115.381 27.145C116.124 26.5385 117.075 26.0874 118.232 25.7917V25.6142C116.864 24.9597 115.803 24.0206 115.045 22.8005C114.287 21.5803 113.91 20.1642 113.91 18.5558C113.91 17.3948 114.117 16.3225 114.534 15.339C114.949 14.3556 115.537 13.5162 116.294 12.8137C117.052 12.115 117.958 11.5714 119.012 11.1832C120.066 10.795 121.245 10.6027 122.554 10.6027C124.188 10.6027 125.642 10.8985 126.921 11.4938V11.0944C126.921 10.1923 127.128 9.44908 127.546 8.86116C127.96 8.27325 128.644 7.97754 129.594 7.97754H133.025V11.1424H128.659V12.6177C129.491 13.3351 130.138 14.1892 130.596 15.1875C131.055 16.1857 131.287 17.3098 131.287 18.5595C131.287 19.7205 131.08 20.7928 130.662 21.7763C130.244 22.7597 129.661 23.6028 128.903 24.3017C128.145 25.0004 127.231 25.5439 126.163 25.9321C125.094 26.3204 123.904 26.5127 122.599 26.5127C121.855 26.5127 121.112 26.4388 120.373 26.2909C119.6 26.4979 118.901 26.8047 118.28 27.2041C117.655 27.6033 117.345 28.1618 117.345 28.8753C117.345 29.5889 117.67 30.0178 118.324 30.2581C118.979 30.4948 119.825 30.6131 120.864 30.6131H125.764C128.614 30.6131 130.688 31.153 131.979 32.2325C133.269 33.3122 133.916 34.7986 133.916 36.6954V36.6843ZM130.574 36.9284C130.574 36.0076 130.223 35.2719 129.527 34.7246C128.829 34.1737 127.59 33.9001 125.808 33.9001H118.143C116.716 34.5546 116.006 35.5935 116.006 37.0208C116.006 38.0302 116.383 38.8917 117.141 39.6053C117.899 40.3188 119.182 40.6738 120.994 40.6738H124.292C126.281 40.6738 127.827 40.3632 128.925 39.7384C130.023 39.1135 130.574 38.1781 130.574 36.932V36.9284ZM122.599 23.6509C124.114 23.6509 125.316 23.2849 126.207 22.5564C127.098 21.8243 127.546 20.7003 127.546 19.177V17.9236C127.546 16.4039 127.098 15.2762 126.207 14.5441C125.316 13.8121 124.114 13.4497 122.599 13.4497C121.083 13.4497 119.881 13.8157 118.99 14.5441C118.099 15.2762 117.651 16.4002 117.651 17.9236V19.177C117.651 20.7003 118.099 21.8243 118.99 22.5564C119.881 23.2885 121.083 23.6509 122.599 23.6509Z"
            fill="white" />
        <path
            d="M138.063 34.1217V11.1312H141.627V14.8322H141.805C142.071 14.2443 142.378 13.6934 142.718 13.1795C143.059 12.6656 143.477 12.2182 143.965 11.8336C144.456 11.4528 145.026 11.1497 145.679 10.9277C146.334 10.7059 147.107 10.5986 147.998 10.5986C149.514 10.5986 150.908 10.961 152.187 11.6821C153.463 12.403 154.413 13.5899 155.038 15.239H155.126C155.541 14.004 156.321 12.9207 157.467 11.9927C158.61 11.0645 160.163 10.6024 162.122 10.6024C164.47 10.6024 166.304 11.3677 167.624 12.8985C168.944 14.4292 169.606 16.5885 169.606 19.3801V34.1254H166.041V19.9679C166.041 17.9158 165.642 16.3666 164.84 15.324C164.038 14.2813 162.762 13.76 161.009 13.76C160.295 13.76 159.62 13.8487 158.983 14.0299C158.344 14.2074 157.774 14.4772 157.268 14.8322C156.761 15.1909 156.362 15.6419 156.066 16.1928C155.77 16.7437 155.618 17.3908 155.618 18.134V34.1181H152.054V19.9679C152.054 17.9158 151.654 16.3666 150.852 15.324C150.05 14.2813 148.805 13.76 147.111 13.76C146.398 13.76 145.713 13.8487 145.062 14.0299C144.409 14.2074 143.831 14.4772 143.324 14.8322C142.818 15.1909 142.412 15.6419 142.101 16.1928C141.791 16.7437 141.631 17.3908 141.631 18.134V34.1181H138.067L138.063 34.1217Z"
            fill="white" />
        <path
            d="M193.664 34.1222C192.329 34.1222 191.368 33.7672 190.791 33.0536C190.211 32.3399 189.849 31.4489 189.7 30.3804H189.478C188.971 31.8075 188.14 32.8761 186.982 33.5896C185.825 34.3033 184.442 34.6582 182.837 34.6582C180.401 34.6582 178.508 34.0334 177.158 32.7874C175.805 31.5413 175.132 29.848 175.132 27.7071C175.132 25.5662 175.928 23.8765 177.517 22.7156C179.107 21.5582 181.577 20.9778 184.933 20.9778H189.478V18.7039C189.478 17.0696 189.031 15.8236 188.14 14.9621C187.249 14.1006 185.881 13.6716 184.039 13.6716C182.642 13.6716 181.477 13.9822 180.541 14.6071C179.606 15.2319 178.827 16.0639 178.201 17.1028L176.064 15.0989C176.689 13.8528 177.684 12.788 179.048 11.9117C180.412 11.0354 182.136 10.5991 184.217 10.5991C187.008 10.5991 189.178 11.2794 190.721 12.6438C192.266 14.0081 193.039 15.9049 193.039 18.3341V30.9608H195.668V34.1258H193.664V34.1222ZM183.418 31.6263C184.31 31.6263 185.126 31.5228 185.869 31.3157C186.613 31.1087 187.253 30.8092 187.784 30.4247C188.321 30.0401 188.736 29.5928 189.031 29.09C189.327 28.5833 189.478 28.0362 189.478 27.4409V23.6547H184.756C182.708 23.6547 181.214 23.9505 180.279 24.5458C179.344 25.1411 178.874 26.0026 178.874 27.1303V28.0657C178.874 29.1935 179.281 30.0698 180.097 30.6946C180.915 31.3195 182.02 31.6301 183.418 31.6301V31.6263Z"
            fill="white" />
        <path
            d="M33.0902 8.89355C33.4315 9.56895 33.6284 10.3254 33.6284 11.131V27.4852C33.6284 30.2292 31.3981 32.4594 28.6542 32.4594H12.2964C11.4908 32.4594 10.731 32.2623 10.0591 31.9212C10.8787 33.5429 12.5567 34.658 14.495 34.658H30.8493C33.5932 34.658 35.8235 32.4277 35.8235 29.6838V13.3295C35.8235 11.3912 34.7084 9.71325 33.0867 8.89355H33.0902Z"
            fill="white" />
        <path
            d="M26.5613 30.5879C29.3051 30.5879 31.5354 28.3576 31.5354 25.6137V9.25588C31.5354 8.9603 31.5038 8.67546 31.4545 8.39399C31.3419 7.76078 31.1132 7.16976 30.7861 6.64215C30.3042 5.86464 29.6183 5.23143 28.7986 4.81641C29.0166 5.24554 29.1714 5.70637 29.2559 6.19542C29.3051 6.47676 29.3368 6.76172 29.3368 7.05717V23.4116C29.3368 26.1554 27.1065 28.3858 24.3626 28.3858H8.00832C7.80429 28.3858 7.60026 28.3682 7.40325 28.3435C6.82282 28.2732 6.27405 28.1008 5.771 27.8474C6.26701 28.829 7.07962 29.6205 8.07164 30.0953C8.54654 30.3205 9.06015 30.4753 9.60189 30.5422C9.80241 30.5668 10.0029 30.5844 10.207 30.5844H26.5613V30.5879Z"
            fill="white" />
        <path
            d="M7.32279 26.6653H22.1503C24.8943 26.6653 27.1245 24.435 27.1245 21.6911V5.33333C27.1245 4.98159 27.0858 4.63684 27.0154 4.30257C26.8713 3.61306 26.5793 2.97985 26.1818 2.43114C25.2777 1.17883 23.8108 0.359131 22.1503 0.359131H5.79255C3.04865 0.359131 0.818359 2.58941 0.818359 5.33333V21.6911C0.818359 23.7912 2.1305 25.5889 3.97735 26.3171C4.40653 26.4859 4.86385 26.5985 5.34227 26.6407C5.49001 26.6547 5.64128 26.6653 5.79607 26.6653H7.32631H7.32279ZM24.2082 21.6911C24.2082 22.8273 23.2831 23.7525 22.1468 23.7525H11.9346V16.5269C11.9346 13.7831 14.165 11.5527 16.9088 11.5527H24.2082V21.6911ZM24.2082 9.35415H14.7102C11.9663 9.35415 9.73601 11.5844 9.73601 14.3284V23.7525H7.64643V12.4533C7.64643 9.70939 9.87673 7.47911 12.6206 7.47911H24.2082V9.35415ZM5.23322 23.6716C4.36783 23.4254 3.73463 22.6339 3.73463 21.6911V5.33333C3.73463 4.1971 4.65981 3.2718 5.79607 3.2718H22.1503C22.9031 3.2718 23.5574 3.67634 23.9198 4.27798C24.0958 4.57342 24.2013 4.91119 24.2082 5.27704H10.422C7.67809 5.27704 5.44779 7.50732 5.44779 10.2512V23.7138C5.37393 23.6998 5.30356 23.6857 5.23322 23.6646V23.6716Z"
            fill="white" />
    </g>
</svg>