<svg width="433" height="476" viewBox="0 0 433 476" fill="none" xmlns="http://www.w3.org/2000/svg">
    <g opacity="0.8">
        <path
            d="M22.4565 -2.18557e-08L22.4565 476H23.4565L23.4565 2.18557e-08L22.4565 -2.18557e-08ZM476.457 22L0.456543 22L0.456543 23L476.457 23V22ZM70.4565 -2.18557e-08L70.4565 476H71.4565L71.4565 2.18557e-08L70.4565 -2.18557e-08ZM476.457 70L0.456543 70L0.456543 71L476.457 71V70ZM118.457 -2.18557e-08L118.457 476H119.457L119.457 2.18557e-08L118.457 -2.18557e-08ZM476.457 118L0.456543 118L0.456543 119L476.457 119V118ZM166.457 -2.18557e-08L166.457 476H167.457L167.457 2.18557e-08L166.457 -2.18557e-08ZM476.457 166L0.456543 166L0.456543 167L476.457 167V166ZM214.457 -2.18557e-08L214.457 476H215.457L215.457 2.18557e-08L214.457 -2.18557e-08ZM476.457 214L0.456543 214L0.456543 215L476.457 215V214ZM262.457 -2.18557e-08L262.457 476H263.457L263.457 2.18557e-08L262.457 -2.18557e-08ZM476.457 262L0.456543 262L0.456543 263L476.457 263V262ZM310.457 -2.18557e-08L310.457 476H311.457L311.457 2.18557e-08L310.457 -2.18557e-08ZM476.457 310L0.456543 310L0.456543 311L476.457 311V310ZM358.457 -2.18557e-08L358.457 476H359.457L359.457 2.18557e-08L358.457 -2.18557e-08ZM476.457 358L0.456543 358L0.456543 359L476.457 359V358ZM406.457 -2.18557e-08L406.457 476H407.457L407.457 2.18557e-08L406.457 -2.18557e-08ZM476.457 406L0.456543 406L0.456543 407L476.457 407V406ZM454.457 -2.18557e-08L454.457 476H455.457L455.457 2.18557e-08L454.457 -2.18557e-08ZM476.457 454L0.456543 454L0.456543 455L476.457 455V454Z"
            fill="url(#paint0_radial_160_1237)" fill-opacity="0.6" />
    </g>
    <defs>
        <radialGradient id="paint0_radial_160_1237" cx="0" cy="0" r="1" gradientUnits="userSpaceOnUse"
            gradientTransform="translate(238.457 238) rotate(90) scale(238)">
            <stop stop-color="#66EFB0" />
            <stop offset="1" stop-color="#111119" />
        </radialGradient>
    </defs>
</svg>