<svg width="203" height="476" viewBox="0 0 203 476" fill="none" xmlns="http://www.w3.org/2000/svg">
    <g opacity="0.4">
        <path
            d="M19.0884 -1.8963e-08L19.0884 476H20.0884L20.0884 1.8963e-08L19.0884 -1.8963e-08ZM413 22L5.03792e-08 22L-5.03792e-08 23L413 23V22ZM60.7353 -1.8963e-08L60.7353 476H61.7353L61.7353 1.8963e-08L60.7353 -1.8963e-08ZM413 70L5.03792e-08 70L-5.03792e-08 71L413 71V70ZM102.382 -1.8963e-08L102.382 476H103.382L103.382 1.8963e-08L102.382 -1.8963e-08ZM413 118L5.03792e-08 118L-5.03792e-08 119L413 119V118ZM144.029 -1.8963e-08L144.029 476H145.029L145.029 1.8963e-08L144.029 -1.8963e-08ZM413 166L5.03792e-08 166L-5.03792e-08 167L413 167V166ZM185.676 -1.8963e-08L185.676 476H186.676L186.676 1.8963e-08L185.676 -1.8963e-08ZM413 214L5.03792e-08 214L-5.03792e-08 215L413 215V214ZM227.324 -1.8963e-08L227.324 476H228.324L228.324 1.8963e-08L227.324 -1.8963e-08ZM413 262L5.03792e-08 262L-5.03792e-08 263L413 263V262ZM268.971 -1.8963e-08L268.971 476H269.971L269.971 1.8963e-08L268.971 -1.8963e-08ZM413 310L5.03792e-08 310L-5.03792e-08 311L413 311V310ZM310.618 -1.8963e-08L310.618 476H311.618L311.618 1.8963e-08L310.618 -1.8963e-08ZM413 358L5.03792e-08 358L-5.03792e-08 359L413 359V358ZM352.265 -1.8963e-08L352.265 476H353.265L353.265 1.8963e-08L352.265 -1.8963e-08ZM413 406L5.03792e-08 406L-5.03792e-08 407L413 407V406ZM393.912 -1.8963e-08L393.912 476H394.912L394.912 1.8963e-08L393.912 -1.8963e-08ZM413 454L5.03792e-08 454L-5.03792e-08 455L413 455V454Z"
            fill="url(#paint0_radial_160_1046)" fill-opacity="0.6" />
    </g>
    <defs>
        <radialGradient id="paint0_radial_160_1046" cx="0" cy="0" r="1" gradientUnits="userSpaceOnUse"
            gradientTransform="translate(206.5 238) rotate(90) scale(238 206.5)">
            <stop stop-color="#66EFB0" />
            <stop offset="1" stop-color="#111119" />
        </radialGradient>
    </defs>
</svg>