<svg width="12" height="14" viewBox="0 0 12 14" fill="none" xmlns="http://www.w3.org/2000/svg">
    <path
        d="M6.4836 0.860489C6.36923 0.559662 5.94366 0.559661 5.82929 0.860488L4.33572 4.78887C4.30345 4.87374 4.23947 4.94275 4.15728 4.98133L0.53136 6.68327C0.262977 6.80924 0.262977 7.19097 0.531359 7.31695L4.15728 9.01889C4.23947 9.05747 4.30345 9.12648 4.33572 9.21134L5.82929 13.1397C5.94366 13.4406 6.36923 13.4406 6.4836 13.1397L7.97718 9.21134C8.00944 9.12648 8.07342 9.05747 8.15561 9.01889L11.7815 7.31695C12.0499 7.19097 12.0499 6.80924 11.7815 6.68327L8.15561 4.98133C8.07342 4.94275 8.00944 4.87374 7.97718 4.78887L6.4836 0.860489Z"
        fill="#63E6B7" />
</svg>