<svg width="238" height="54" viewBox="0 0 238 54" fill="none" xmlns="http://www.w3.org/2000/svg">
    <path fill-rule="evenodd" clip-rule="evenodd"
        d="M0.0551758 26.9187C0.0551758 41.7365 12.0671 53.7483 26.885 53.7483C41.7027 53.7483 53.7155 41.7365 53.7155 26.9187C53.7155 12.1008 41.7027 0.0888672 26.885 0.0888672C12.0671 0.0888672 0.0551758 12.1008 0.0551758 26.9187Z"
        fill="#F8F8FF" />
    <path fill-rule="evenodd" clip-rule="evenodd"
        d="M15.0507 20.5979L15.713 18.5518C15.8476 18.1356 16.176 17.8118 16.5937 17.6841L18.6499 17.0518C18.9345 16.9648 18.9368 16.5633 18.6545 16.4718L16.6076 15.8094C16.1922 15.6748 15.8683 15.3463 15.7399 14.9287L15.1083 12.8725C15.0214 12.5886 14.6199 12.5856 14.5283 12.8687L13.866 14.9148C13.7314 15.3302 13.4029 15.654 12.9852 15.7825L10.9291 16.414C10.6445 16.5017 10.6414 16.9025 10.9244 16.9941L12.9714 17.6564C13.3868 17.791 13.7106 18.1202 13.8391 18.5379L14.4707 20.5933C14.5576 20.8779 14.9591 20.881 15.0507 20.5979Z"
        fill="#111119" />
    <path fill-rule="evenodd" clip-rule="evenodd"
        d="M47.5504 19.4069C46.7031 18.4591 45.3799 17.9253 44.0938 17.7065C42.7974 17.4963 41.4379 17.5158 40.1582 17.7432C37.5686 18.1812 35.216 19.2535 33.1641 20.5763C32.0985 21.2254 31.1898 21.9767 30.2484 22.7417C29.7948 23.1286 29.3812 23.5406 28.9505 23.9467L27.7737 25.1177C26.4949 26.4543 25.2345 27.6718 24.015 28.6809C22.7905 29.6854 21.6458 30.4483 20.5176 30.981C19.3902 31.5166 18.1838 31.8315 16.6114 31.8819C15.0528 31.9369 13.2088 31.6556 11.2363 31.1913C9.25324 30.729 7.17081 30.0701 4.84375 29.5031C5.65572 31.7558 6.87843 33.7464 8.44827 35.5659C10.0365 37.354 12.0198 38.9839 14.5675 40.0557C17.0784 41.1514 20.2338 41.5446 23.1843 40.9513C26.1425 40.3818 28.7385 39.0127 30.8369 37.4298C32.9407 35.8305 34.6427 34.0087 36.0777 32.1146C36.4737 31.5913 36.6832 31.2984 36.9698 30.8894L37.7622 29.7158C38.3127 28.9899 38.814 28.1634 39.3591 27.4442C40.4275 25.9379 41.4807 24.4334 42.7047 23.0472C43.3208 22.3442 43.9705 21.6717 44.7374 21.0254C45.1201 20.71 45.5331 20.4013 45.9909 20.1232C46.4555 19.8232 46.9463 19.5884 47.5504 19.4069Z"
        fill="#C6C6C6" />
    <path fill-rule="evenodd" clip-rule="evenodd"
        d="M47.5504 19.407C46.6399 17.1092 44.9469 15.1749 42.6748 13.7475C40.416 12.3359 37.2792 11.6154 34.171 12.2295C32.6352 12.5265 31.1474 13.0983 29.8419 13.8598C28.5422 14.6182 27.3775 15.5312 26.3693 16.5106C25.866 17.002 25.4091 17.5145 24.9552 18.03L23.7789 19.5298L21.9619 21.9441C19.6456 25.0505 17.1512 28.6909 13.0578 29.7696C9.03931 30.8285 7.2964 29.8907 4.84375 29.5032C5.29222 30.6611 5.84771 31.7855 6.60082 32.7746C7.33987 33.7838 8.21281 34.7317 9.2981 35.544C9.84656 35.9343 10.4256 36.3194 11.0688 36.6461C11.7089 36.9616 12.3993 37.2394 13.1362 37.4486C14.6021 37.8504 16.2523 37.991 17.8501 37.775C19.4487 37.5617 20.9767 37.055 22.3123 36.3822C23.6577 35.7159 24.8298 34.9042 25.8763 34.0477C27.9567 32.3199 29.5748 30.411 30.9417 28.4815C31.6292 27.5167 32.2533 26.5338 32.8305 25.5506L33.5099 24.3801C33.7175 24.0379 33.9276 23.6936 34.1411 23.373C35.0017 22.0848 35.8437 21.0519 36.8663 20.2766C37.8746 19.4813 39.2789 18.8937 41.1554 18.7572C43.024 18.619 45.1812 18.8742 47.5504 19.407Z"
        fill="#111119" />
    <path fill-rule="evenodd" clip-rule="evenodd"
        d="M37.4409 38.4992C37.4409 40.1868 38.8099 41.5558 40.4975 41.5558C42.1854 41.5558 43.5524 40.1868 43.5524 38.4992C43.5524 36.8116 42.1854 35.4426 40.4975 35.4426C38.8099 35.4426 37.4409 36.8116 37.4409 38.4992Z"
        fill="#C6C6C6" />
    <path
        d="M234.542 19.4165V16.3302C234.542 16.2078 234.443 16.1086 234.321 16.1086H216.735C216.613 16.1086 216.514 16.2078 216.514 16.3302V19.4165H223.661V39.3831H227.395V19.4165H234.542Z"
        fill="#FAFAFA" />
    <path
        d="M198.134 16.1086C198.012 16.1086 197.913 16.2078 197.913 16.3302V39.1613C197.913 39.2836 198.012 39.3831 198.134 39.3831H212.933C213.055 39.3831 213.155 39.2836 213.155 39.1613V36.1078H201.647V28.7932H211.154V25.5837H201.647V19.3838H212.335V16.3302C212.335 16.2078 212.236 16.1086 212.113 16.1086H198.134Z"
        fill="#FAFAFA" />
    <path
        d="M189.553 39.2476L189.633 39.3831H192.501C192.624 39.3831 192.723 39.2836 192.723 39.1613V16.3302C192.723 16.2078 192.624 16.1086 192.501 16.1086H189.055V32.2274C188.456 31.2746 187.761 30.2258 186.97 29.0811C185.962 27.5915 184.878 26.0803 183.718 24.5477C182.579 22.9932 181.419 21.4933 180.236 20.0479C179.074 18.5795 177.977 17.2952 176.944 16.1959L176.862 16.1086H174.162C174.04 16.1086 173.94 16.2078 173.94 16.3302V39.1613C173.94 39.2836 174.04 39.3831 174.162 39.3831H177.609V22.1155C178.08 22.6722 178.582 23.289 179.114 23.9663C179.833 24.8814 180.574 25.8623 181.338 26.909L181.338 26.9101L181.339 26.9113C182.102 27.9355 182.865 29.0036 183.628 30.1155L183.629 30.117L183.63 30.1185C184.415 31.231 185.168 32.3324 185.887 33.4227L185.888 33.4238L185.889 33.4248C186.608 34.4925 187.272 35.5274 187.882 36.5289L187.883 36.5306L187.884 36.5326C188.517 37.5362 189.073 38.4413 189.553 39.2476Z"
        fill="#FAFAFA" />
    <path
        d="M169.43 16.5722L169.515 16.4795C169.645 16.3372 169.544 16.1086 169.351 16.1086H165.263L165.18 16.2048C164.637 16.8342 163.963 17.574 163.156 18.4244C162.37 19.2539 161.53 20.1273 160.634 21.0444C159.739 21.9612 158.833 22.878 157.917 23.7948C157.183 24.5107 156.499 25.1706 155.864 25.7743V16.1086H152.351C152.229 16.1086 152.13 16.2078 152.13 16.3302V39.1613C152.13 39.2836 152.229 39.3831 152.351 39.3831H155.864V28.8243C156.635 29.3291 157.423 29.9198 158.228 30.597L158.23 30.598L158.231 30.599C159.206 31.4009 160.16 32.2793 161.094 33.2342L161.096 33.2365L161.098 33.2387C162.052 34.1712 162.952 35.1578 163.798 36.1988L163.799 36.1998L163.8 36.2012C164.645 37.2204 165.392 38.2382 166.042 39.2551L166.123 39.3831H170.108C170.279 39.3831 170.385 39.1987 170.3 39.0509L170.253 38.9681C169.655 37.9271 168.904 36.8346 168.002 35.69C167.123 34.5472 166.178 33.4268 165.167 32.3286C164.157 31.2302 163.124 30.1973 162.069 29.2301C161.113 28.354 160.2 27.6018 159.33 26.9745C160.07 26.2519 160.855 25.4759 161.684 24.6467C162.603 23.7279 163.522 22.7983 164.44 21.8576C165.381 20.8951 166.278 19.9653 167.131 19.0682L167.132 19.067L167.134 19.0657C167.987 18.1473 168.752 17.3161 169.43 16.5722Z"
        fill="#FAFAFA" />
    <path fill-rule="evenodd" clip-rule="evenodd"
        d="M130.933 15.9341C130.811 15.9341 130.711 16.0333 130.711 16.1557V39.1752C130.711 39.2978 130.811 39.3969 130.933 39.3969H134.097V30.9333H138.719C139.239 31.5559 139.746 32.2074 140.241 32.8876L140.243 32.8902L140.245 32.8927C141.054 33.9535 141.801 35.0599 142.488 36.2126L142.489 36.2136L142.489 36.215C143.111 37.2349 143.653 38.2422 144.117 39.237L144.191 39.3969H147.935C148.096 39.3969 148.203 39.2315 148.136 39.0855C147.706 38.142 147.239 37.2179 146.721 36.3179C146.017 35.0599 145.244 33.8143 144.403 32.5814C143.923 31.8768 143.432 31.1923 142.931 30.5279C144.328 30.1009 145.433 29.3287 146.232 28.208L146.233 28.2071C147.192 26.8508 147.667 25.2556 147.667 23.4336C147.667 22.1816 147.45 21.036 147.009 20.0008C146.567 18.9506 145.902 18.0797 145.015 17.3925C144.135 16.7017 143.051 16.2622 141.773 16.0651C141.475 16.0102 141.168 15.9773 140.851 15.9661C140.541 15.9448 140.27 15.934 140.041 15.934C139.07 15.934 138.099 15.9339 137.128 15.9338C135.063 15.9336 132.998 15.9334 130.933 15.9341ZM144.218 23.4336C144.218 24.0383 144.118 24.6334 143.915 25.2199C143.718 25.7832 143.402 26.277 142.965 26.7036C142.552 27.1076 142.006 27.3942 141.315 27.5545C141.096 27.6042 140.86 27.6395 140.607 27.6598L140.607 27.6598L140.606 27.6598C140.357 27.6806 140.137 27.6907 139.945 27.6907H134.097V19.1765H139.945C140.137 19.1765 140.357 19.1866 140.606 19.2074L140.612 19.2079L140.618 19.2081C140.864 19.2179 141.093 19.2523 141.304 19.3099L141.311 19.3118L141.318 19.3134C142.007 19.463 142.55 19.7485 142.963 20.1613L142.964 20.1624L142.965 20.1635C143.401 20.5895 143.717 21.0883 143.915 21.6625V21.6633L143.916 21.664C144.117 22.2392 144.218 22.8287 144.218 23.4336Z"
        fill="#FAFAFA" />
    <path fill-rule="evenodd" clip-rule="evenodd"
        d="M122.404 36.3102L122.404 36.3112L122.405 36.3122C122.733 37.2543 123.084 38.2182 123.456 39.2038L123.524 39.3831H127.269C127.423 39.3831 127.53 39.2303 127.478 39.0856C126.659 36.8376 125.834 34.5924 124.991 32.3535C124.225 30.2974 123.471 28.3503 122.727 26.5122C122.005 24.674 121.282 22.923 120.56 21.2591C119.835 19.568 119.072 17.8937 118.278 16.2343C118.241 16.1575 118.163 16.1086 118.078 16.1086H115.091C115.005 16.1086 114.928 16.1575 114.891 16.2343C114.096 17.8938 113.334 19.5681 112.609 21.2593C111.887 22.9225 111.154 24.673 110.41 26.5108L110.409 26.5121L110.409 26.5134C109.687 28.351 108.943 30.2976 108.178 32.3534C107.335 34.5924 106.509 36.8376 105.691 39.0856C105.638 39.2303 105.745 39.3831 105.899 39.3831H109.485L109.485 39.3827H109.555L109.637 39.2944C110.502 38.3659 111.469 37.4544 112.538 36.5605L112.539 36.5598L112.54 36.5588C113.614 35.6425 114.733 34.7927 115.897 34.0092L115.9 34.0075L115.902 34.0055C117.05 33.195 118.204 32.4676 119.366 31.8232L119.367 31.8224L119.369 31.8217C119.787 31.5835 120.199 31.3617 120.605 31.156L121.389 33.395L121.389 33.3967C121.738 34.379 122.077 35.3501 122.404 36.3102ZM118.374 25.2701L118.375 25.272L118.376 25.2739C118.691 26.0726 119.007 26.8846 119.322 27.7101C119.299 27.7205 119.275 27.7313 119.25 27.7424C118.14 28.2481 116.947 28.9018 115.671 29.7021C114.449 30.4684 113.237 31.3008 112.035 32.1994L112.544 30.7456C113.217 28.856 113.891 27.0315 114.564 25.2719C115.183 23.6851 115.828 22.1589 116.499 20.6931C117.149 22.1583 117.775 23.6839 118.374 25.2701Z"
        fill="#FAFAFA" />
    <path
        d="M106.605 19.4165V16.3302C106.605 16.2078 106.506 16.1086 106.383 16.1086H88.7981C88.6758 16.1086 88.5767 16.2078 88.5767 16.3302V19.4165H95.7237V39.1613C95.7237 39.2836 95.8229 39.3831 95.9455 39.3831H99.2364C99.3587 39.3831 99.4578 39.2836 99.4578 39.1613V19.4165H106.605Z"
        fill="#FAFAFA" />
    <path
        d="M72.4406 39.0997L72.4396 39.0993C71.0851 38.522 69.9586 37.6977 69.0654 36.6259L69.0644 36.6245L69.0634 36.6235C68.1793 35.538 67.605 34.2583 67.3384 32.7911C67.3252 32.7177 67.3418 32.6421 67.385 32.5813C67.4281 32.5204 67.494 32.4796 67.5677 32.468L70.5465 31.9985C70.6874 31.9763 70.8223 32.0649 70.8576 32.2031C71.2196 33.6096 71.9648 34.7012 73.0944 35.4925C74.2409 36.2771 75.593 36.6734 77.162 36.6734C78.1799 36.6734 79.0894 36.5162 79.8946 36.2068C80.709 35.8868 81.3414 35.4382 81.803 34.8663C82.257 34.3039 82.4863 33.6378 82.4863 32.8549C82.4863 32.3689 82.4 31.971 82.24 31.6513C82.2387 31.6484 82.2373 31.6455 82.236 31.6426C82.0804 31.302 81.8631 31.0175 81.5829 30.7857C81.5802 30.7835 81.5774 30.7813 81.5751 30.7789C81.2939 30.5279 80.9709 30.3157 80.6051 30.1429C80.2308 29.9661 79.8406 29.8203 79.4341 29.7057L79.4304 29.7046L73.4887 27.9399C72.8271 27.7415 72.1876 27.4934 71.5701 27.1957L71.5684 27.1948L71.5664 27.1939C70.9394 26.8803 70.3777 26.4931 69.8825 26.0318L69.8812 26.0303L69.8802 26.0295C69.3782 25.5504 68.9802 24.9808 68.6857 24.3236L68.685 24.322C68.3855 23.6427 68.2405 22.853 68.2405 21.9602C68.2405 20.5289 68.6103 19.2929 69.3626 18.2673L69.3629 18.2669C70.1182 17.2409 71.1368 16.4612 72.4083 15.9257C73.6785 15.391 75.1032 15.1322 76.6784 15.1432C78.2746 15.1542 79.7105 15.4405 80.9807 16.0085C82.2608 16.5652 83.3224 17.3689 84.1606 18.4195C85.0117 19.4723 85.5792 20.7286 85.8676 22.1815C85.8822 22.2546 85.8665 22.3305 85.8244 22.392C85.7823 22.4535 85.7171 22.4954 85.6437 22.5082L82.5841 23.0424C82.5114 23.0551 82.437 23.0383 82.3769 22.9959C82.3165 22.9534 82.2757 22.8887 82.2635 22.8161C82.109 21.9096 81.7659 21.1407 81.2382 20.5015L81.2351 20.4977C80.7134 19.8431 80.0593 19.3415 79.268 18.9921L79.2653 18.9908C78.4723 18.6304 77.5988 18.4433 76.641 18.4329H76.6407C75.7227 18.4225 74.9022 18.5685 74.1747 18.8656C73.4452 19.1635 72.876 19.5747 72.4562 20.0945L72.4545 20.0965C72.0425 20.5966 71.8377 21.1708 71.8377 21.8307C71.8377 22.4859 72.0245 22.9913 72.3781 23.3733C72.7595 23.7747 73.2285 24.0987 73.7896 24.3438C74.3842 24.5879 74.9613 24.789 75.5213 24.9475L75.5227 24.9479L79.9568 26.2263C80.4737 26.3694 81.0639 26.5663 81.7269 26.8162C82.4207 27.0737 83.0898 27.4365 83.7337 27.9027C84.3967 28.3716 84.9411 28.9977 85.3687 29.7741C85.8081 30.5607 86.0187 31.5389 86.0187 32.693C86.0187 33.853 85.7844 34.8958 85.3082 35.8142C84.8463 36.7267 84.1976 37.4932 83.3656 38.1117L83.3635 38.1131C82.5362 38.7169 81.5781 39.1727 80.4934 39.4828C79.4079 39.8037 78.2485 39.9633 77.0163 39.9633C75.3335 39.9633 73.8065 39.6774 72.4406 39.0997Z"
        fill="#FAFAFA" />
</svg>