<svg width="266" height="318" viewBox="0 0 266 318" fill="none" xmlns="http://www.w3.org/2000/svg">
    <g clip-path="url(#clip0_160_1089)">
        <rect width="265.61" height="318" rx="6.74994" fill="#010412" />
        <g clip-path="url(#clip1_160_1089)">
            <rect width="565.333" height="318" transform="translate(-270)" fill="#1A1C26" />
            <g style="mix-blend-mode:multiply" filter="url(#filter0_f_160_1089)">
                <ellipse cx="197.845" cy="226.038" rx="13.2432" ry="6.76469" fill="#0D0C4E" fill-opacity="0.2" />
            </g>
            <path
                d="M-237.266 143.642H-242.282V119.948H-237.266V129.287H-227.003V119.948H-221.987V143.642H-227.003V133.61H-237.266V143.642ZM-209.466 143.939C-214.746 143.939 -218.277 140.276 -218.277 134.765C-218.277 129.518 -214.614 125.69 -209.532 125.69C-203.955 125.69 -200.259 130.211 -201.084 135.953H-213.591C-213.294 138.824 -211.908 140.408 -209.565 140.408C-207.552 140.408 -206.199 139.418 -205.671 137.669H-201.117C-202.107 141.662 -205.176 143.939 -209.466 143.939ZM-209.631 129.056C-211.776 129.056 -213.129 130.442 -213.525 133.049H-205.935C-206.067 130.607 -207.453 129.056 -209.631 129.056ZM-187.13 143.642V141.464C-188.285 143.114 -190.034 143.972 -192.443 143.972C-196.106 143.972 -198.548 141.827 -198.548 138.527C-198.548 135.095 -195.776 133.247 -190.628 133.247C-189.638 133.247 -188.78 133.313 -187.691 133.445V132.389C-187.691 130.409 -188.813 129.254 -190.727 129.254C-192.707 129.254 -193.895 130.409 -194.06 132.389H-198.185C-197.921 128.33 -194.984 125.69 -190.727 125.69C-186.107 125.69 -183.401 128.231 -183.401 132.554V143.642H-187.13ZM-194.225 138.395C-194.225 139.88 -193.169 140.804 -191.453 140.804C-189.11 140.804 -187.691 139.517 -187.691 137.471V136.217C-188.78 136.052 -189.539 135.986 -190.331 135.986C-192.938 135.986 -194.225 136.811 -194.225 138.395ZM-174.473 135.095V143.642H-179.06V126.02H-174.836V129.419C-173.549 127.175 -170.81 125.822 -167.972 125.822V130.574C-171.866 130.277 -174.473 131.201 -174.473 135.095ZM-153.118 139.187V143.18C-154.24 143.741 -155.296 143.972 -156.649 143.972C-160.279 143.972 -162.556 141.893 -162.556 137.933V129.947H-166.12V126.02H-162.556V120.806H-158.002V126.02H-152.953V129.947H-158.002V136.877C-158.002 138.923 -157.078 139.748 -155.428 139.748C-154.57 139.748 -153.778 139.55 -153.118 139.187ZM-143.237 143.642H-147.791V129.947H-151.355V126.02H-147.791V125.063C-147.791 121.565 -145.91 119.585 -142.247 119.585C-141.125 119.585 -140.168 119.783 -139.409 120.113V123.743C-139.904 123.545 -140.564 123.446 -141.158 123.446C-142.412 123.446 -143.237 123.941 -143.237 125.162V126.02H-138.65V129.947H-143.237V143.642ZM-128.733 143.939C-134.013 143.939 -137.544 140.276 -137.544 134.765C-137.544 129.518 -133.881 125.69 -128.799 125.69C-123.222 125.69 -119.526 130.211 -120.351 135.953H-132.858C-132.561 138.824 -131.175 140.408 -128.832 140.408C-126.819 140.408 -125.466 139.418 -124.938 137.669H-120.384C-121.374 141.662 -124.443 143.939 -128.733 143.939ZM-128.898 129.056C-131.043 129.056 -132.396 130.442 -132.792 133.049H-125.202C-125.334 130.607 -126.72 129.056 -128.898 129.056ZM-112.271 143.642H-116.891V119.948H-112.271V143.642ZM-96.8138 139.187V143.18C-97.9358 143.741 -98.9918 143.972 -100.345 143.972C-103.975 143.972 -106.252 141.893 -106.252 137.933V129.947H-109.816V126.02H-106.252V120.806H-101.698V126.02H-96.6488V129.947H-101.698V136.877C-101.698 138.923 -100.774 139.748 -99.1238 139.748C-98.2658 139.748 -97.4738 139.55 -96.8138 139.187ZM-75.1869 143.642H-80.2028V124.469H-87.6607V119.948H-67.6959V124.469H-75.1869V143.642ZM-60.1249 134.039V143.642H-64.7119V119.948H-60.1249V128.33C-58.904 126.713 -57.386 125.69 -55.076 125.69C-51.545 125.69 -49.1031 128 -49.1031 132.257V143.642H-53.657V133.808C-53.657 131.201 -54.68 129.749 -56.759 129.749C-58.574 129.749 -60.1249 131.201 -60.1249 134.039ZM-34.2688 143.642V141.464C-35.4238 143.114 -37.1728 143.972 -39.5817 143.972C-43.2447 143.972 -45.6867 141.827 -45.6867 138.527C-45.6867 135.095 -42.9147 133.247 -37.7668 133.247C-36.7768 133.247 -35.9188 133.313 -34.8298 133.445V132.389C-34.8298 130.409 -35.9518 129.254 -37.8658 129.254C-39.8457 129.254 -41.0337 130.409 -41.1987 132.389H-45.3237C-45.0597 128.33 -42.1227 125.69 -37.8658 125.69C-33.2458 125.69 -30.5398 128.231 -30.5398 132.554V143.642H-34.2688ZM-41.3637 138.395C-41.3637 139.88 -40.3077 140.804 -38.5917 140.804C-36.2488 140.804 -34.8298 139.517 -34.8298 137.471V136.217C-35.9188 136.052 -36.6778 135.986 -37.4698 135.986C-40.0767 135.986 -41.3637 136.811 -41.3637 138.395ZM-21.6122 134.039V143.642H-26.1992V126.02H-21.9752V128.528C-20.6882 126.779 -18.8733 125.69 -16.5633 125.69C-13.0323 125.69 -10.5904 128 -10.5904 132.257V143.642H-15.1443V133.808C-15.1443 131.201 -16.1673 129.749 -18.2463 129.749C-20.0613 129.749 -21.6122 131.201 -21.6122 134.039ZM-1.66302 143.642H-6.24997V119.948H-1.66302V133.478L4.77192 126.02H10.0519L2.75894 134.468L10.9098 143.642H5.06891L-1.66302 135.458V143.642ZM27.293 137.999C27.293 141.695 24.4881 143.972 19.4721 143.972C14.4562 143.972 11.6512 141.563 11.2882 137.636H15.6772C15.7102 139.451 17.2612 140.606 19.5381 140.606C21.3201 140.606 22.6731 140.045 22.6731 138.791C22.6731 137.669 21.9471 137.207 20.2641 136.877L17.0962 136.283C13.9282 135.722 12.0142 133.973 12.0142 131.234C12.0142 127.967 14.8192 125.69 19.2081 125.69C23.6301 125.69 26.6661 128.033 26.996 131.828H22.6071C22.4421 130.112 21.1551 129.056 19.2081 129.056C17.5252 129.056 16.4032 129.683 16.4032 130.805C16.4032 131.861 17.1292 132.29 18.7131 132.587L22.1121 133.214C25.5441 133.874 27.293 135.458 27.293 137.999Z"
                fill="url(#paint0_linear_160_1089)" />
            <g clip-path="url(#clip2_160_1089)">
                <path d="M299.583 -2.57715H-271.914V318.89H299.583V-2.57715Z" fill="url(#paint1_linear_160_1089)" />
                <path opacity="0.5"
                    d="M137.51 335.26C327.134 335.26 480.855 277.489 480.855 206.227C480.855 134.966 327.134 77.1938 137.51 77.1938C-52.1137 77.1938 -205.834 134.966 -205.834 206.227C-205.834 277.489 -52.1137 335.26 137.51 335.26Z"
                    stroke="url(#paint2_linear_160_1089)" stroke-width="0.619121" stroke-miterlimit="10" />
                <path opacity="0.5"
                    d="M137.361 372.765C382.137 372.765 580.569 298.202 580.569 206.227C580.569 114.252 382.137 39.6895 137.361 39.6895C-107.415 39.6895 -305.847 114.252 -305.847 206.227C-305.847 298.202 -107.415 372.765 137.361 372.765Z"
                    stroke="url(#paint3_linear_160_1089)" stroke-width="0.619121" stroke-miterlimit="10" />
                <g style="mix-blend-mode:overlay" opacity="0.2">
                    <path
                        d="M137.51 298.947C273.872 298.947 384.414 257.436 384.414 206.227C384.414 155.019 273.872 113.508 137.51 113.508C1.14846 113.508 -109.395 155.019 -109.395 206.227C-109.395 257.436 1.14846 298.947 137.51 298.947Z"
                        fill="url(#paint4_linear_160_1089)" />
                </g>
                <g style="mix-blend-mode:overlay">
                    <path
                        d="M137.51 298.947C273.872 298.947 384.414 257.436 384.414 206.227C384.414 155.019 273.872 113.508 137.51 113.508C1.14845 113.508 -109.395 155.019 -109.395 206.227C-109.395 257.436 1.14845 298.947 137.51 298.947Z"
                        stroke="url(#paint5_linear_160_1089)" stroke-width="0.378021" stroke-miterlimit="10" />
                </g>
                <g style="mix-blend-mode:overlay">
                    <path
                        d="M274.472 206.189C274.472 234.633 213.126 257.692 137.447 257.692C61.7685 257.692 0.421875 234.636 0.421875 206.189C0.421875 177.742 61.7685 154.686 137.447 154.686C213.126 154.686 274.472 177.742 274.472 206.189Z"
                        fill="url(#paint6_linear_160_1089)" />
                </g>
                <g style="mix-blend-mode:soft-light">
                    <path
                        d="M209.394 206.227C209.394 221.104 177.211 233.165 137.51 233.165C97.8089 233.165 65.6265 221.104 65.6265 206.227C65.6265 191.351 97.8089 179.29 137.51 179.29C177.211 179.29 209.394 191.351 209.394 206.227Z"
                        fill="url(#paint7_linear_160_1089)" fill-opacity="0.5" />
                </g>
                <path
                    d="M137.447 257.689C213.126 257.689 274.472 234.63 274.472 206.186C274.472 177.742 213.126 154.683 137.447 154.683C61.7685 154.683 0.421875 177.742 0.421875 206.186C0.421875 234.63 61.7714 257.689 137.447 257.689Z"
                    stroke="url(#paint8_linear_160_1089)" stroke-width="0.378021" stroke-miterlimit="10" />
                <path
                    d="M137.447 257.921C111.587 257.921 86.2472 255.183 64.3398 250.019L65.0691 249.581C86.7622 254.692 111.846 257.403 137.447 257.403V257.921Z"
                    fill="url(#paint9_linear_160_1089)" />
                <path
                    d="M349.66 157.858C377.554 175.247 389.594 195.58 383.95 215.773C378.304 235.969 355.283 254.918 318.386 269.741C281.486 284.564 232.736 294.449 179.533 297.893C126.336 301.337 71.6034 298.155 23.6572 288.826L24.7943 287.999C72.2612 297.235 126.449 300.387 179.116 296.976C231.78 293.568 280.048 283.781 316.576 269.104C353.104 254.432 375.893 235.671 381.486 215.678C387.076 195.687 375.157 175.551 347.544 158.341L349.666 157.861L349.66 157.855V157.858Z"
                    fill="url(#paint10_linear_160_1089)" />
                <path
                    d="M-0.191406 206.188C-0.191406 196.47 7.09219 186.951 20.823 178.715C34.5538 170.482 54.1782 163.868 77.4488 159.632L78.0501 160.097C55.0146 164.291 35.5866 170.839 21.9898 178.992C8.39887 187.142 1.18674 196.568 1.18674 206.188H-0.191406Z"
                    fill="url(#paint11_linear_160_1089)" />
                <path
                    d="M131.253 154.495C155.744 154.085 180.086 156.135 201.761 160.443C223.437 164.75 241.656 171.152 254.538 178.992L253.366 179.266C240.611 171.506 222.57 165.166 201.115 160.901C179.658 156.635 155.562 154.606 131.315 155.013L131.253 154.495Z"
                    fill="url(#paint12_linear_160_1089)" />
                <path
                    d="M262.59 187.524C263.861 187.524 264.893 186.491 264.893 185.217C264.893 183.944 263.861 182.911 262.59 182.911C261.319 182.911 260.283 183.944 260.283 185.217C260.283 186.491 261.316 187.524 262.59 187.524Z"
                    fill="#FDF9DA" />
                <path
                    d="M0.862469 208.493C2.13643 208.493 3.16929 207.46 3.16929 206.186C3.16929 204.912 2.13643 203.879 0.862469 203.879C-0.411493 203.879 -1.44434 204.912 -1.44434 206.186C-1.44434 207.46 -0.411493 208.493 0.862469 208.493Z"
                    fill="#E87884" />
                <path
                    d="M141.882 257.936C117.391 258.35 93.046 256.296 71.3738 251.989C49.6986 247.682 31.4792 241.279 18.5967 233.439L19.7694 233.165C32.5239 240.925 50.5618 247.265 72.0167 251.53C93.4776 255.796 117.573 257.826 141.82 257.418L141.882 257.936Z"
                    fill="url(#paint13_linear_160_1089)" />
                <path
                    d="M141.882 255.438C140.608 255.438 139.575 256.471 139.575 257.745C139.575 259.019 140.608 260.052 141.882 260.052C143.156 260.052 144.186 259.019 144.186 257.745C144.186 256.471 143.156 255.438 141.882 255.438Z"
                    fill="#FFFDD8" />
                <g opacity="0.35">
                    <path
                        d="M209.096 205.477C209.096 220.768 176.981 233.165 137.362 233.165C97.7427 233.165 65.627 220.771 65.627 205.477V-30.8545L209.096 -26.2647V205.477Z"
                        fill="url(#paint14_radial_160_1089)" />
                </g>
                <g clip-path="url(#clip3_160_1089)">
                    <mask id="mask0_160_1089" style="mask-type:luminance" maskUnits="userSpaceOnUse" x="73" y="43"
                        width="127" height="127">
                        <path d="M199.911 43.9487H73.8887V169.971H199.911V43.9487Z" fill="white" />
                    </mask>
                    <g mask="url(#mask0_160_1089)">
                        <path
                            d="M75.4834 106.96C75.4834 140.88 102.979 168.375 136.899 168.375C170.819 168.375 198.314 140.877 198.314 106.96C198.314 73.0426 170.816 45.5444 136.899 45.5444C102.982 45.5444 75.4834 73.0397 75.4834 106.96Z"
                            fill="url(#paint15_radial_160_1089)" stroke="url(#paint16_linear_160_1089)"
                            stroke-width="3.19178" />
                        <path fill-rule="evenodd" clip-rule="evenodd"
                            d="M109.106 92.113L110.661 87.3077C110.976 86.3301 111.748 85.5704 112.731 85.2701L117.56 83.7861C118.228 83.5829 118.231 82.6378 117.569 82.4228L112.763 80.8682C111.786 80.5531 111.026 79.7817 110.726 78.8012L109.242 73.9723C109.036 73.3068 108.093 73.298 107.879 73.9634L106.324 78.7688C106.009 79.7434 105.237 80.506 104.254 80.8063L99.425 82.2903C98.7566 82.4964 98.7508 83.4387 99.4162 83.6536L104.222 85.2083C105.199 85.5233 105.959 86.2977 106.259 87.2782L107.743 92.1042C107.946 92.7726 108.891 92.7784 109.106 92.1159V92.113Z"
                            fill="#FAFAFA" />
                        <path fill-rule="evenodd" clip-rule="evenodd"
                            d="M185.432 89.3159C183.441 87.0899 180.335 85.8356 177.314 85.3233C174.269 84.8286 171.075 84.8757 168.071 85.4087C161.988 86.4363 156.464 88.9567 151.644 92.0631C149.142 93.5883 147.007 95.352 144.799 97.1481C143.733 98.058 142.761 99.0238 141.748 99.9778L138.986 102.728C135.983 105.867 133.021 108.726 130.159 111.096C127.282 113.454 124.594 115.248 121.944 116.499C119.297 117.756 116.464 118.495 112.772 118.613C109.109 118.743 104.781 118.083 100.146 116.991C95.4909 115.904 90.6001 114.358 85.1353 113.028C87.0403 118.319 89.9111 122.992 93.6005 127.267C97.3282 131.466 101.986 135.293 107.969 137.811C113.867 140.384 121.278 141.309 128.207 139.913C135.155 138.576 141.25 135.361 146.179 131.642C151.12 127.885 155.119 123.607 158.487 119.161C159.418 117.933 159.909 117.244 160.584 116.284L162.445 113.528C163.737 111.823 164.915 109.883 166.193 108.193C168.702 104.656 171.178 101.123 174.052 97.8666C175.497 96.2148 177.023 94.6365 178.825 93.1172C179.723 92.3752 180.694 91.6509 181.769 90.9972C182.861 90.2935 184.013 89.7429 185.432 89.3159Z"
                            fill="url(#paint17_linear_160_1089)" />
                        <path fill-rule="evenodd" clip-rule="evenodd"
                            d="M185.432 89.3164C183.294 83.9192 179.316 79.3759 173.981 76.0251C168.675 72.7097 161.308 71.0166 154.009 72.4594C150.402 73.1573 146.91 74.4999 143.842 76.2872C140.791 78.0686 138.056 80.2121 135.688 82.5118C134.505 83.666 133.433 84.8703 132.367 86.0804L129.602 89.602L125.336 95.273C119.897 102.569 114.038 111.117 104.424 113.652C94.9874 116.14 90.8946 113.938 85.1353 113.028C86.1864 115.749 87.4908 118.387 89.2604 120.71C90.9976 123.08 93.047 125.306 95.5939 127.214C96.8836 128.13 98.2439 129.034 99.7544 129.802C101.256 130.544 102.878 131.195 104.61 131.687C108.052 132.629 111.927 132.962 115.681 132.452C119.435 131.952 123.021 130.762 126.16 129.181C129.32 127.615 132.073 125.71 134.528 123.699C139.416 119.641 143.214 115.157 146.427 110.625C148.04 108.358 149.507 106.05 150.861 103.741L152.457 100.991C152.946 100.187 153.438 99.3775 153.938 98.6267C155.961 95.6028 157.937 93.1765 160.339 91.3539C162.707 89.4871 166.004 88.1062 170.412 87.7853C174.799 87.4614 179.867 88.0591 185.432 89.3105V89.3164Z"
                            fill="#FAFAFA" />
                        <path fill-rule="evenodd" clip-rule="evenodd"
                            d="M161.688 134.155C161.688 138.118 164.903 141.333 168.866 141.333C172.829 141.333 176.042 138.118 176.042 134.155C176.042 130.191 172.829 126.976 168.866 126.976C164.903 126.976 161.688 130.191 161.688 134.155Z"
                            fill="url(#paint18_linear_160_1089)" />
                    </g>
                </g>
                <g style="mix-blend-mode:overlay" opacity="0.2">
                    <path
                        d="M209.394 206.228C209.394 221.105 178.118 233.165 139.535 233.165C100.952 233.165 65.6265 221.384 65.6265 206.505V-18.9688L209.394 -19.2456V206.228Z"
                        fill="url(#paint19_radial_160_1089)" />
                </g>
            </g>
            <g opacity="0.8" clip-path="url(#clip4_160_1089)">
                <path
                    d="M119.519 249.266C119.657 266.526 105.958 273.014 88.2227 273.014C70.4875 273.014 55.0574 266.311 55.1346 250.578C55.1346 250.578 69.6106 240.104 87.3459 240.104C105.081 240.104 119.519 249.272 119.519 249.272V249.266Z"
                    fill="url(#paint20_linear_160_1089)" />
                <path
                    d="M64.1675 262.127C76.5425 268.99 97.013 268.869 109.758 261.691C122.502 254.514 122.849 242.948 110.535 235.997C98.2208 229.046 77.7061 229.244 64.9451 236.433C52.1841 243.627 51.6381 255.176 64.1675 262.121V262.127Z"
                    fill="#0D0C4E" />
                <path
                    d="M87.6992 261.3C79.9841 261.3 72.5724 259.635 67.35 256.449C63.2581 253.946 60.9254 250.953 60.9474 248.092C60.975 245.225 63.3684 242.232 67.5154 239.806C72.6055 236.835 79.5044 235.214 86.9382 235.214C94.372 235.214 102.059 237.056 107.271 240.247C111.363 242.756 113.695 245.843 113.668 248.709C113.64 251.576 111.247 254.442 107.111 256.857C102.026 259.823 95.133 261.295 87.7047 261.295L87.6992 261.3Z"
                    fill="url(#paint21_linear_160_1089)" />
                <g style="mix-blend-mode:soft-light" opacity="0.48">
                    <path
                        d="M67.6976 241.868C72.7546 238.958 79.5983 237.37 86.977 237.37C94.3556 237.37 101.988 239.173 107.161 242.298C110.685 244.426 113.034 247.012 113.541 249.487C113.613 249.151 113.591 248.781 113.596 248.439C113.624 245.628 111.225 242.607 107.161 240.154C101.988 237.028 94.6314 235.226 86.977 235.226C79.3226 235.226 72.7491 236.813 67.6976 239.724C63.5781 242.1 60.9807 245.055 60.9531 247.866C60.9531 248.235 60.9531 248.61 61.0248 248.985C61.5432 246.499 64.08 243.958 67.6976 241.874V241.868Z"
                        fill="black" />
                </g>
                <g opacity="0.7">
                    <path
                        d="M100.851 249.635C100.107 249.635 99.3623 249.618 98.6178 249.629C96.7263 249.646 94.8347 249.673 92.9432 249.695C90.5277 249.723 88.1123 249.74 85.6969 249.767C83.9983 249.784 82.3053 249.806 80.6068 249.822C78.445 249.85 76.2833 249.872 74.1215 249.899C74.0167 249.899 73.9064 249.899 73.8017 249.921C72.8697 250.136 72.2906 249.541 71.684 249.006C71.4745 248.824 71.2649 248.642 71.0112 248.428C71.116 248.411 71.1822 248.394 71.2484 248.394C72.4892 248.378 73.73 248.367 74.9708 248.356C77.116 248.334 79.2557 248.317 81.4009 248.295C83.1877 248.279 84.9689 248.257 86.7557 248.24C89.0719 248.213 91.3935 248.19 93.7097 248.163C95.4193 248.146 97.1233 248.119 98.8329 248.113C98.9983 248.113 99.1858 248.19 99.3182 248.295C99.8421 248.692 100.344 249.117 100.851 249.53V249.646V249.635Z"
                        fill="#0C1167" />
                    <path
                        d="M86.8327 257.926C84.329 257.876 82.3547 257.568 80.6286 256.377C80.2812 256.14 79.9614 255.842 79.6911 255.517C78.9136 254.569 79.0183 253.505 79.9283 252.656C80.761 251.884 81.7812 251.476 82.8455 251.162C84.6599 250.633 86.5128 250.456 88.3933 250.682C90.1746 250.892 91.84 251.41 93.1966 252.656C93.6599 253.08 94.0404 253.576 94.0845 254.232C94.1396 255.043 93.6819 255.6 93.0863 256.057C91.9779 256.906 90.6709 257.314 89.3308 257.579C88.3547 257.766 87.3621 257.854 86.8216 257.926H86.8327ZM84.8033 255.699C86.2371 255.644 87.4448 255.313 88.6194 254.861C89.0661 254.69 89.4963 254.453 89.8823 254.172C90.2518 253.907 90.2187 253.521 89.8382 253.268C89.6121 253.119 89.3474 252.998 89.0827 252.931C88.2941 252.733 87.5055 252.849 86.7279 253.02C85.6305 253.257 84.5441 253.527 83.5845 254.144C82.8952 254.596 82.9448 255.109 83.6893 255.478C83.761 255.511 83.8327 255.55 83.9044 255.561C84.2573 255.622 84.6102 255.677 84.8033 255.704V255.699Z"
                        fill="#0C1167" />
                    <path
                        d="M85.719 247.402C83.5076 247.402 81.9028 247.137 80.3918 246.432C79.7576 246.134 79.173 245.765 78.6988 245.236C77.7006 244.122 77.8164 242.92 78.9911 242.005C79.7576 241.41 80.64 241.035 81.5609 240.759C83.3311 240.23 85.1455 240.037 86.9874 240.219C88.5811 240.373 90.0977 240.77 91.4102 241.724C91.7686 241.983 92.1105 242.281 92.3863 242.623C93.1859 243.593 93.0094 244.695 91.9782 245.5C91.0903 246.195 90.0646 246.581 88.9947 246.878C87.7374 247.226 86.458 247.413 85.708 247.402H85.719ZM87.0591 242.364C85.8789 242.402 84.7539 242.672 83.662 243.08C83.1602 243.268 82.6694 243.516 82.2337 243.824C81.7594 244.161 81.8256 244.569 82.3275 244.877C82.8293 245.186 83.3863 245.23 83.9543 245.197C85.2172 245.12 86.4304 244.778 87.5995 244.321C87.9966 244.166 88.3771 243.929 88.719 243.67C89.0609 243.405 89.0168 243.075 88.6749 242.805C88.1951 242.424 87.6271 242.386 87.0591 242.369V242.364Z"
                        fill="#0C1167" />
                </g>
            </g>
            <g opacity="0.8" clip-path="url(#clip5_160_1089)">
                <path
                    d="M50.6408 166.998C50.6824 172.188 46.554 174.139 41.2092 174.139C35.8643 174.139 31.2141 172.123 31.2374 167.392C31.2374 167.392 35.6 164.243 40.9449 164.243C46.2898 164.243 50.6408 166.999 50.6408 166.999V166.998Z"
                    fill="url(#paint22_linear_160_1089)" />
                <path
                    d="M33.9597 170.865C37.6892 172.929 43.8584 172.892 47.6992 170.734C51.54 168.576 51.6447 165.098 47.9335 163.008C44.2224 160.918 38.0399 160.977 34.1941 163.139C30.3483 165.302 30.1838 168.775 33.9597 170.863V170.865Z"
                    fill="#0D0C4E" />
                <path
                    d="M41.052 170.616C38.7269 170.616 36.4932 170.115 34.9193 169.157C33.6862 168.405 32.9831 167.505 32.9898 166.644C32.9981 165.782 33.7194 164.882 34.9692 164.153C36.5032 163.259 38.5823 162.772 40.8226 162.772C43.063 162.772 45.3797 163.326 46.9503 164.285C48.1835 165.04 48.8865 165.968 48.8782 166.83C48.8698 167.692 48.1486 168.554 46.9021 169.28C45.3698 170.172 43.2923 170.614 41.0536 170.614L41.052 170.616Z"
                    fill="url(#paint23_linear_160_1089)" />
                <g style="mix-blend-mode:soft-light" opacity="0.48">
                    <path
                        d="M35.0243 164.773C36.5483 163.898 38.6108 163.421 40.8345 163.421C43.0582 163.421 45.3584 163.963 46.9173 164.903C47.9793 165.542 48.6873 166.32 48.8402 167.064C48.8618 166.963 48.8551 166.852 48.8568 166.749C48.8651 165.904 48.1422 164.995 46.9173 164.258C45.3584 163.318 43.1413 162.776 40.8345 162.776C38.5277 162.776 36.5466 163.253 35.0243 164.129C33.7828 164.843 33 165.731 32.9917 166.577C32.9917 166.688 32.9917 166.801 33.0133 166.913C33.1695 166.166 33.934 165.402 35.0243 164.775V164.773Z"
                        fill="black" />
                </g>
                <g opacity="0.7">
                    <path
                        d="M45.0153 167.109C44.791 167.109 44.5666 167.104 44.3422 167.107C43.7722 167.112 43.2021 167.12 42.6321 167.127C41.9041 167.135 41.1762 167.14 40.4483 167.149C39.9364 167.154 39.4262 167.16 38.9143 167.165C38.2628 167.174 37.6113 167.18 36.9598 167.188C36.9282 167.188 36.895 167.188 36.8634 167.195C36.5825 167.26 36.408 167.081 36.2252 166.92C36.1621 166.865 36.0989 166.811 36.0225 166.746C36.054 166.741 36.074 166.736 36.0939 166.736C36.4679 166.731 36.8418 166.728 37.2158 166.724C37.8623 166.718 38.5071 166.713 39.1536 166.706C39.6921 166.701 40.2289 166.694 40.7674 166.689C41.4654 166.681 42.1651 166.675 42.8631 166.666C43.3783 166.661 43.8919 166.653 44.4071 166.651C44.4569 166.651 44.5134 166.675 44.5533 166.706C44.7112 166.825 44.8624 166.953 45.0153 167.077V167.112V167.109Z"
                        fill="#0C1167" />
                    <path
                        d="M40.7906 169.602C40.0361 169.587 39.4411 169.494 38.9209 169.136C38.8162 169.065 38.7198 168.975 38.6384 168.877C38.404 168.592 38.4356 168.272 38.7098 168.017C38.9608 167.785 39.2683 167.662 39.589 167.568C40.1358 167.409 40.6942 167.356 41.261 167.423C41.7978 167.486 42.2997 167.642 42.7085 168.017C42.8481 168.145 42.9628 168.294 42.9761 168.491C42.9927 168.735 42.8548 168.902 42.6753 169.04C42.3412 169.295 41.9473 169.418 41.5435 169.497C41.2493 169.554 40.9502 169.58 40.7873 169.602H40.7906ZM40.179 168.932C40.6111 168.915 40.9751 168.816 41.3291 168.68C41.4637 168.629 41.5933 168.557 41.7097 168.473C41.821 168.393 41.8111 168.277 41.6964 168.201C41.6282 168.156 41.5485 168.12 41.4687 168.1C41.231 168.04 40.9934 168.075 40.759 168.126C40.4283 168.198 40.1009 168.279 39.8117 168.465C39.604 168.6 39.6189 168.755 39.8433 168.866C39.8649 168.876 39.8865 168.887 39.9081 168.891C40.0145 168.909 40.1208 168.925 40.179 168.934V168.932Z"
                        fill="#0C1167" />
                    <path
                        d="M40.4556 166.438C39.7891 166.438 39.3055 166.358 38.8501 166.146C38.659 166.057 38.4828 165.945 38.3399 165.786C38.0391 165.452 38.074 165.09 38.428 164.815C38.659 164.636 38.9249 164.523 39.2025 164.44C39.736 164.281 40.2827 164.223 40.8378 164.278C41.3181 164.324 41.7752 164.444 42.1707 164.73C42.2788 164.808 42.3818 164.898 42.4649 165.001C42.7059 165.292 42.6527 165.624 42.3419 165.866C42.0743 166.075 41.7652 166.191 41.4428 166.28C41.0639 166.385 40.6783 166.441 40.4523 166.438H40.4556ZM40.8594 164.923C40.5038 164.934 40.1647 165.016 39.8357 165.138C39.6844 165.195 39.5365 165.269 39.4052 165.362C39.2623 165.463 39.2822 165.586 39.4335 165.679C39.5847 165.771 39.7526 165.785 39.9238 165.775C40.3043 165.752 40.67 165.649 41.0223 165.511C41.142 165.465 41.2567 165.393 41.3597 165.316C41.4627 165.236 41.4494 165.137 41.3464 165.055C41.2018 164.941 41.0306 164.929 40.8594 164.924V164.923Z"
                        fill="#0C1167" />
                </g>
            </g>
            <g opacity="0.8" clip-path="url(#clip6_160_1089)">
                <path
                    d="M209.379 220.644C209.439 228.103 203.521 230.907 195.86 230.907C188.198 230.907 181.533 228.01 181.566 221.211C181.566 221.211 187.82 216.685 195.481 216.685C203.142 216.685 209.379 220.647 209.379 220.647V220.644Z"
                    fill="url(#paint24_linear_160_1089)" />
                <path
                    d="M185.468 226.203C190.814 229.169 199.657 229.116 205.162 226.015C210.668 222.913 210.818 217.915 205.498 214.911C200.179 211.907 191.316 211.993 185.804 215.099C180.291 218.208 180.055 223.199 185.468 226.201V226.203Z"
                    fill="#0D0C4E" />
                <path
                    d="M195.634 225.845C192.301 225.845 189.099 225.125 186.843 223.748C185.075 222.667 184.068 221.373 184.077 220.137C184.089 218.898 185.123 217.604 186.915 216.556C189.113 215.272 192.094 214.572 195.305 214.572C198.516 214.572 201.837 215.367 204.088 216.747C205.856 217.831 206.864 219.165 206.852 220.404C206.84 221.642 205.806 222.881 204.019 223.925C201.823 225.206 198.845 225.842 195.636 225.842L195.634 225.845Z"
                    fill="url(#paint25_linear_160_1089)" />
                <g style="mix-blend-mode:soft-light" opacity="0.48">
                    <path
                        d="M186.993 217.448C189.177 216.19 192.134 215.504 195.321 215.504C198.509 215.504 201.806 216.283 204.04 217.634C205.563 218.553 206.577 219.67 206.797 220.74C206.828 220.595 206.818 220.435 206.82 220.287C206.832 219.073 205.796 217.767 204.04 216.707C201.806 215.356 198.628 214.577 195.321 214.577C192.014 214.577 189.175 215.263 186.993 216.521C185.213 217.548 184.091 218.825 184.079 220.04C184.079 220.199 184.079 220.361 184.11 220.523C184.334 219.449 185.43 218.351 186.993 217.45V217.448Z"
                        fill="black" />
                </g>
                <g opacity="0.7">
                    <path
                        d="M201.315 220.804C200.993 220.804 200.672 220.797 200.35 220.802C199.533 220.809 198.716 220.821 197.899 220.831C196.855 220.843 195.812 220.85 194.768 220.862C194.035 220.869 193.303 220.878 192.569 220.885C191.636 220.897 190.702 220.907 189.768 220.919C189.723 220.919 189.675 220.919 189.63 220.928C189.227 221.021 188.977 220.764 188.715 220.533C188.624 220.454 188.534 220.376 188.424 220.283C188.47 220.276 188.498 220.268 188.527 220.268C189.063 220.261 189.599 220.257 190.135 220.252C191.062 220.242 191.986 220.235 192.913 220.226C193.684 220.218 194.454 220.209 195.226 220.202C196.226 220.19 197.229 220.18 198.23 220.168C198.968 220.161 199.704 220.149 200.443 220.147C200.514 220.147 200.595 220.18 200.653 220.226C200.879 220.397 201.096 220.581 201.315 220.759V220.809V220.804Z"
                        fill="#0C1167" />
                    <path
                        d="M195.259 224.387C194.178 224.365 193.325 224.232 192.579 223.717C192.429 223.615 192.291 223.486 192.174 223.346C191.838 222.936 191.884 222.476 192.277 222.109C192.636 221.776 193.077 221.6 193.537 221.464C194.321 221.235 195.121 221.159 195.933 221.256C196.703 221.347 197.422 221.571 198.008 222.109C198.208 222.293 198.373 222.507 198.392 222.791C198.416 223.141 198.218 223.381 197.961 223.579C197.482 223.946 196.917 224.122 196.338 224.237C195.917 224.318 195.488 224.356 195.254 224.387H195.259ZM194.383 223.424C195.002 223.401 195.524 223.258 196.031 223.062C196.224 222.988 196.41 222.886 196.577 222.764C196.736 222.65 196.722 222.483 196.558 222.374C196.46 222.309 196.346 222.257 196.231 222.228C195.891 222.143 195.55 222.193 195.214 222.267C194.74 222.369 194.271 222.486 193.856 222.753C193.558 222.948 193.58 223.169 193.901 223.329C193.932 223.343 193.963 223.36 193.994 223.365C194.147 223.391 194.299 223.415 194.383 223.427V223.424Z"
                        fill="#0C1167" />
                    <path
                        d="M194.778 219.839C193.822 219.839 193.129 219.725 192.476 219.42C192.202 219.291 191.95 219.131 191.745 218.903C191.314 218.422 191.364 217.902 191.871 217.507C192.202 217.249 192.584 217.087 192.981 216.968C193.746 216.74 194.53 216.656 195.326 216.735C196.014 216.802 196.669 216.973 197.236 217.385C197.391 217.497 197.539 217.626 197.658 217.774C198.003 218.193 197.927 218.669 197.482 219.017C197.098 219.317 196.655 219.484 196.193 219.613C195.65 219.763 195.097 219.844 194.773 219.839H194.778ZM195.357 217.662C194.847 217.678 194.361 217.795 193.889 217.971C193.672 218.052 193.46 218.16 193.272 218.293C193.067 218.438 193.096 218.615 193.313 218.748C193.529 218.881 193.77 218.9 194.015 218.886C194.561 218.853 195.085 218.705 195.59 218.507C195.762 218.441 195.926 218.338 196.074 218.226C196.221 218.112 196.202 217.969 196.055 217.852C195.847 217.688 195.602 217.671 195.357 217.664V217.662Z"
                        fill="#0C1167" />
                </g>
            </g>
            <g style="mix-blend-mode:multiply" filter="url(#filter1_f_160_1089)">
                <ellipse cx="193.483" cy="219.081" rx="13.2432" ry="6.76469" fill="#0D0C4E" fill-opacity="0.6" />
            </g>
            <g opacity="0.8" clip-path="url(#clip7_160_1089)">
                <path
                    d="M204.468 214.16C204.528 221.619 198.61 224.423 190.949 224.423C183.287 224.423 176.622 221.526 176.655 214.727C176.655 214.727 182.908 210.201 190.57 210.201C198.231 210.201 204.468 214.162 204.468 214.162V214.16Z"
                    fill="url(#paint26_linear_160_1089)" />
                <path
                    d="M180.557 219.718C185.903 222.684 194.746 222.632 200.252 219.53C205.757 216.428 205.907 211.43 200.588 208.426C195.268 205.422 186.406 205.508 180.893 208.614C175.381 211.723 175.145 216.714 180.557 219.716V219.718Z"
                    fill="#0D0C4E" />
                <path
                    d="M190.722 219.361C187.389 219.361 184.187 218.641 181.931 217.264C180.164 216.183 179.156 214.889 179.166 213.653C179.178 212.414 180.211 211.121 182.003 210.072C184.202 208.788 187.182 208.088 190.393 208.088C193.605 208.088 196.926 208.884 199.177 210.263C200.944 211.347 201.952 212.681 201.94 213.92C201.928 215.159 200.894 216.397 199.108 217.441C196.911 218.722 193.933 219.358 190.724 219.358L190.722 219.361Z"
                    fill="url(#paint27_linear_160_1089)" />
                <g style="mix-blend-mode:soft-light" opacity="0.48">
                    <path
                        d="M182.082 210.963C184.267 209.705 187.223 209.019 190.41 209.019C193.598 209.019 196.895 209.798 199.13 211.149C200.652 212.068 201.667 213.186 201.886 214.255C201.917 214.11 201.907 213.95 201.91 213.803C201.922 212.588 200.885 211.282 199.13 210.222C196.895 208.871 193.717 208.092 190.41 208.092C187.104 208.092 184.264 208.778 182.082 210.036C180.302 211.063 179.18 212.34 179.168 213.555C179.168 213.714 179.168 213.876 179.199 214.038C179.423 212.964 180.519 211.866 182.082 210.965V210.963Z"
                        fill="black" />
                </g>
                <g opacity="0.7">
                    <path
                        d="M196.404 214.32C196.083 214.32 195.761 214.313 195.439 214.318C194.622 214.325 193.805 214.337 192.988 214.346C191.945 214.358 190.901 214.365 189.858 214.377C189.124 214.384 188.393 214.394 187.659 214.401C186.725 214.413 185.791 214.423 184.857 214.434C184.812 214.434 184.764 214.434 184.719 214.444C184.317 214.537 184.066 214.28 183.804 214.049C183.714 213.97 183.623 213.891 183.514 213.798C183.559 213.791 183.588 213.784 183.616 213.784C184.152 213.777 184.688 213.772 185.224 213.767C186.151 213.758 187.075 213.751 188.002 213.741C188.774 213.734 189.543 213.725 190.315 213.717C191.316 213.705 192.319 213.696 193.319 213.684C194.058 213.677 194.794 213.665 195.532 213.663C195.604 213.663 195.685 213.696 195.742 213.741C195.968 213.913 196.185 214.096 196.404 214.275V214.325V214.32Z"
                        fill="#0C1167" />
                    <path
                        d="M190.348 217.903C189.267 217.881 188.414 217.748 187.668 217.233C187.518 217.131 187.38 217.002 187.263 216.862C186.927 216.452 186.972 215.992 187.365 215.625C187.725 215.292 188.166 215.116 188.626 214.98C189.409 214.751 190.21 214.675 191.022 214.773C191.792 214.863 192.511 215.087 193.097 215.625C193.297 215.809 193.462 216.023 193.481 216.307C193.505 216.657 193.307 216.898 193.05 217.095C192.571 217.462 192.006 217.638 191.427 217.753C191.006 217.834 190.577 217.872 190.343 217.903H190.348ZM189.471 216.94C190.091 216.917 190.613 216.774 191.12 216.578C191.313 216.505 191.499 216.402 191.665 216.281C191.825 216.166 191.811 215.999 191.646 215.89C191.549 215.826 191.434 215.773 191.32 215.745C190.979 215.659 190.639 215.709 190.303 215.783C189.829 215.885 189.359 216.002 188.945 216.269C188.647 216.464 188.669 216.686 188.99 216.845C189.021 216.859 189.052 216.876 189.083 216.881C189.236 216.907 189.388 216.931 189.471 216.943V216.94Z"
                        fill="#0C1167" />
                    <path
                        d="M189.867 213.355C188.911 213.355 188.218 213.241 187.565 212.936C187.291 212.807 187.039 212.648 186.834 212.419C186.403 211.938 186.453 211.418 186.96 211.023C187.291 210.766 187.673 210.604 188.07 210.484C188.835 210.256 189.619 210.172 190.415 210.251C191.103 210.318 191.758 210.489 192.325 210.901C192.48 211.013 192.628 211.142 192.747 211.29C193.092 211.709 193.016 212.185 192.57 212.533C192.187 212.833 191.744 213 191.282 213.129C190.739 213.279 190.186 213.36 189.862 213.355H189.867ZM190.445 211.178C189.936 211.194 189.45 211.311 188.978 211.487C188.761 211.568 188.549 211.676 188.361 211.809C188.156 211.954 188.185 212.131 188.401 212.264C188.618 212.397 188.859 212.417 189.104 212.402C189.65 212.369 190.174 212.221 190.679 212.023C190.85 211.957 191.015 211.854 191.163 211.742C191.31 211.628 191.291 211.485 191.143 211.368C190.936 211.204 190.691 211.187 190.445 211.18V211.178Z"
                        fill="#0C1167" />
                </g>
            </g>
        </g>
    </g>
    <defs>
        <filter id="filter0_f_160_1089" x="181.334" y="216.005" width="33.023" height="20.066"
            filterUnits="userSpaceOnUse" color-interpolation-filters="sRGB">
            <feFlood flood-opacity="0" result="BackgroundImageFix" />
            <feBlend mode="normal" in="SourceGraphic" in2="BackgroundImageFix" result="shape" />
            <feGaussianBlur stdDeviation="1.63417" result="effect1_foregroundBlur_160_1089" />
        </filter>
        <filter id="filter1_f_160_1089" x="176.972" y="209.048" width="33.023" height="20.066"
            filterUnits="userSpaceOnUse" color-interpolation-filters="sRGB">
            <feFlood flood-opacity="0" result="BackgroundImageFix" />
            <feBlend mode="normal" in="SourceGraphic" in2="BackgroundImageFix" result="shape" />
            <feGaussianBlur stdDeviation="1.63417" result="effect1_foregroundBlur_160_1089" />
        </filter>
        <linearGradient id="paint0_linear_160_1089" x1="202.516" y1="98.4667" x2="-278.689" y2="92.0617"
            gradientUnits="userSpaceOnUse">
            <stop stop-color="#14166F" />
            <stop offset="0.570009" stop-color="#A464F4" />
            <stop offset="1" stop-color="#EC796B" />
        </linearGradient>
        <linearGradient id="paint1_linear_160_1089" x1="63.245" y1="373.194" x2="-35.5763" y2="-56.8812"
            gradientUnits="userSpaceOnUse">
            <stop stop-color="#010412" />
            <stop offset="1" stop-color="#111644" />
        </linearGradient>
        <linearGradient id="paint2_linear_160_1089" x1="204.339" y1="369.839" x2="70.6807" y2="42.6153"
            gradientUnits="userSpaceOnUse">
            <stop stop-color="#FFFDD8" />
            <stop offset="0.22" stop-color="#EC796B" />
            <stop offset="0.52" stop-color="#D672EF" />
            <stop offset="0.98" stop-color="#8BF3F9" stop-opacity="0" />
        </linearGradient>
        <linearGradient id="paint3_linear_160_1089" x1="223.571" y1="417.318" x2="51.1513" y2="-4.86346"
            gradientUnits="userSpaceOnUse">
            <stop stop-color="#FFFDD8" />
            <stop offset="0.22" stop-color="#EC796B" />
            <stop offset="0.52" stop-color="#D672EF" />
            <stop offset="0.98" stop-color="#8BF3F9" stop-opacity="0" />
        </linearGradient>
        <linearGradient id="paint4_linear_160_1089" x1="200.473" y1="359.034" x2="46.0288" y2="-15.7904"
            gradientUnits="userSpaceOnUse">
            <stop stop-color="#F9E8E8" />
            <stop offset="1" stop-color="#CDCDE8" />
        </linearGradient>
        <linearGradient id="paint5_linear_160_1089" x1="30.6311" y1="304.879" x2="203.818" y2="145.023"
            gradientUnits="userSpaceOnUse">
            <stop stop-color="#FFFDD8" stop-opacity="0.21" />
            <stop offset="0.22" stop-color="#EC796B" />
            <stop offset="0.52" stop-color="#D672EF" />
            <stop offset="0.98" stop-color="#8BF3F9" stop-opacity="0.2" />
        </linearGradient>
        <linearGradient id="paint6_linear_160_1089" x1="172.16" y1="291.163" x2="102.738" y2="121.214"
            gradientUnits="userSpaceOnUse">
            <stop stop-color="#F9E8E8" />
            <stop offset="1" stop-color="#CDCDE8" />
        </linearGradient>
        <linearGradient id="paint7_linear_160_1089" x1="155.625" y1="250.709" x2="119.395" y2="161.746"
            gradientUnits="userSpaceOnUse">
            <stop stop-color="#F9E8E8" />
            <stop offset="1" stop-color="#CDCDE8" />
        </linearGradient>
        <linearGradient id="paint8_linear_160_1089" x1="78.077" y1="260.942" x2="174.279" y2="172.22"
            gradientUnits="userSpaceOnUse">
            <stop stop-color="#FFFDD8" stop-opacity="0.21" />
            <stop offset="0.22" stop-color="#EC796B" />
            <stop offset="0.52" stop-color="#D672EF" />
            <stop offset="0.98" stop-color="#8BF3F9" stop-opacity="0.2" />
        </linearGradient>
        <linearGradient id="paint9_linear_160_1089" x1="139.905" y1="267.613" x2="65.0304" y2="240.928"
            gradientUnits="userSpaceOnUse">
            <stop stop-color="#FFFDD8" />
            <stop offset="0.22" stop-color="#EC796B" />
            <stop offset="0.52" stop-color="#D672EF" />
            <stop offset="0.98" stop-color="#8BF3F9" stop-opacity="0" />
        </linearGradient>
        <linearGradient id="paint10_linear_160_1089" x1="215.266" y1="100.048" x2="202.048" y2="281.504"
            gradientUnits="userSpaceOnUse">
            <stop stop-color="#FFFDD8" />
            <stop offset="0.22" stop-color="#EC796B" />
            <stop offset="0.52" stop-color="#D672EF" />
            <stop offset="0.98" stop-color="#8BF3F9" stop-opacity="0" />
        </linearGradient>
        <linearGradient id="paint11_linear_160_1089" x1="9.61036" y1="234.882" x2="52.6988" y2="155.022"
            gradientUnits="userSpaceOnUse">
            <stop stop-color="#FFFDD8" />
            <stop offset="0.22" stop-color="#EC796B" />
            <stop offset="0.52" stop-color="#D672EF" />
            <stop offset="0.98" stop-color="#8BF3F9" stop-opacity="0" />
        </linearGradient>
        <linearGradient id="paint12_linear_160_1089" x1="141.62" y1="138.738" x2="231.732" y2="188.297"
            gradientUnits="userSpaceOnUse">
            <stop stop-color="#FFFDD8" />
            <stop offset="0.22" stop-color="#EC796B" />
            <stop offset="0.52" stop-color="#D672EF" />
            <stop offset="0.98" stop-color="#8BF3F9" stop-opacity="0" />
        </linearGradient>
        <linearGradient id="paint13_linear_160_1089" x1="131.515" y1="273.694" x2="41.403" y2="224.134"
            gradientUnits="userSpaceOnUse">
            <stop stop-color="#FFFDD8" />
            <stop offset="0.22" stop-color="#EC796B" />
            <stop offset="0.52" stop-color="#D672EF" />
            <stop offset="0.98" stop-color="#8BF3F9" stop-opacity="0" />
        </linearGradient>
        <radialGradient id="paint14_radial_160_1089" cx="0" cy="0" r="1" gradientUnits="userSpaceOnUse"
            gradientTransform="translate(134.57 231.685) rotate(-90) scale(293.696 178.035)">
            <stop stop-color="#F9E8E8" />
            <stop offset="1" stop-color="white" stop-opacity="0" />
        </radialGradient>
        <radialGradient id="paint15_radial_160_1089" cx="0" cy="0" r="1" gradientUnits="userSpaceOnUse"
            gradientTransform="translate(112.613 48.6412) rotate(75.07) scale(84.5644)">
            <stop stop-color="#1B1BB5" />
            <stop offset="1" stop-color="#0C0C4F" />
        </radialGradient>
        <linearGradient id="paint16_linear_160_1089" x1="196.765" y1="95.8503" x2="82.397" y2="117.071"
            gradientUnits="userSpaceOnUse">
            <stop stop-color="#EC796B" />
            <stop offset="1" stop-color="#E175B1" />
        </linearGradient>
        <linearGradient id="paint17_linear_160_1089" x1="183.503" y1="84.9169" x2="95.2259" y2="133.965"
            gradientUnits="userSpaceOnUse">
            <stop stop-color="#EC796B" />
            <stop offset="1" stop-color="#E175B1" />
        </linearGradient>
        <linearGradient id="paint18_linear_160_1089" x1="176.483" y1="133.351" x2="162.126" y2="134.87"
            gradientUnits="userSpaceOnUse">
            <stop stop-color="#EC796B" />
            <stop offset="1" stop-color="#E175B1" />
        </linearGradient>
        <radialGradient id="paint19_radial_160_1089" cx="0" cy="0" r="1" gradientUnits="userSpaceOnUse"
            gradientTransform="translate(138.159 233.811) rotate(-90) scale(132.903 97.941)">
            <stop stop-color="#F9E8E8" />
            <stop offset="1" stop-color="white" stop-opacity="0" />
        </radialGradient>
        <linearGradient id="paint20_linear_160_1089" x1="55.1346" y1="256.559" x2="119.519" y2="256.559"
            gradientUnits="userSpaceOnUse">
            <stop stop-color="#EC796B" />
            <stop offset="1" stop-color="#E175B1" />
        </linearGradient>
        <linearGradient id="paint21_linear_160_1089" x1="60.9474" y1="248.257" x2="113.668" y2="248.257"
            gradientUnits="userSpaceOnUse">
            <stop stop-color="#EC796B" />
            <stop offset="1" stop-color="#E175B1" />
        </linearGradient>
        <linearGradient id="paint22_linear_160_1089" x1="31.2374" y1="169.191" x2="50.6408" y2="169.191"
            gradientUnits="userSpaceOnUse">
            <stop stop-color="#EC796B" />
            <stop offset="1" stop-color="#E175B1" />
        </linearGradient>
        <linearGradient id="paint23_linear_160_1089" x1="32.9898" y1="166.694" x2="48.8782" y2="166.694"
            gradientUnits="userSpaceOnUse">
            <stop stop-color="#EC796B" />
            <stop offset="1" stop-color="#E175B1" />
        </linearGradient>
        <linearGradient id="paint24_linear_160_1089" x1="181.566" y1="223.796" x2="209.379" y2="223.796"
            gradientUnits="userSpaceOnUse">
            <stop stop-color="#EC796B" />
            <stop offset="1" stop-color="#E175B1" />
        </linearGradient>
        <linearGradient id="paint25_linear_160_1089" x1="184.077" y1="220.208" x2="206.852" y2="220.208"
            gradientUnits="userSpaceOnUse">
            <stop stop-color="#EC796B" />
            <stop offset="1" stop-color="#E175B1" />
        </linearGradient>
        <linearGradient id="paint26_linear_160_1089" x1="176.655" y1="217.312" x2="204.468" y2="217.312"
            gradientUnits="userSpaceOnUse">
            <stop stop-color="#EC796B" />
            <stop offset="1" stop-color="#E175B1" />
        </linearGradient>
        <linearGradient id="paint27_linear_160_1089" x1="179.166" y1="213.724" x2="201.94" y2="213.724"
            gradientUnits="userSpaceOnUse">
            <stop stop-color="#EC796B" />
            <stop offset="1" stop-color="#E175B1" />
        </linearGradient>
        <clipPath id="clip0_160_1089">
            <rect width="265.61" height="318" rx="6.74994" fill="white" />
        </clipPath>
        <clipPath id="clip1_160_1089">
            <rect width="565.333" height="318" fill="white" transform="translate(-270)" />
        </clipPath>
        <clipPath id="clip2_160_1089">
            <rect width="887.034" height="403.929" fill="white" transform="translate(-306.157 -30.8545)" />
        </clipPath>
        <clipPath id="clip3_160_1089">
            <rect width="126.022" height="126.022" fill="white" transform="translate(73.8877 43.9487)" />
        </clipPath>
        <clipPath id="clip4_160_1089">
            <rect width="64.4833" height="42.1056" fill="white" transform="translate(55.0664 230.907)" />
        </clipPath>
        <clipPath id="clip5_160_1089">
            <rect width="19.4333" height="12.6611" fill="white" transform="translate(31.2168 161.478)" />
        </clipPath>
        <clipPath id="clip6_160_1089">
            <rect width="27.8561" height="18.1959" fill="white" transform="translate(181.538 212.711)" />
        </clipPath>
        <clipPath id="clip7_160_1089">
            <rect width="27.8561" height="18.1959" fill="white" transform="translate(176.626 206.227)" />
        </clipPath>
    </defs>
</svg>