<svg width="170" height="236" viewBox="0 0 170 236" fill="none" xmlns="http://www.w3.org/2000/svg">
    <g clip-path="url(#clip0_161_81)">
        <path d="M0.662598 186.955L84.7026 235.644L168.513 187.387L84.2184 142.307L0.662598 186.955Z" stroke="#6F4FF2"
            stroke-miterlimit="10" />
        <path d="M142.267 182.889L141.732 190.513L84.1421 223.675L84.6772 216.052L142.267 182.889Z"
            fill="url(#paint0_linear_161_81)" />
        <path d="M84.677 216.052L84.1419 223.675L26.3994 190.208L26.9091 182.584L84.677 216.052Z"
            fill="url(#paint1_linear_161_81)" />
        <path d="M26.9092 182.584L84.6771 216.052L142.267 182.889L84.3458 151.912L26.9092 182.584Z"
            fill="url(#paint2_linear_161_81)" />
        <path
            d="M57.5897 160.273C57.5897 160.273 57.5387 160.222 57.5133 160.171C57.1055 159.765 56.7233 159.333 56.3666 158.901C56.1627 158.647 55.9589 158.418 55.7805 158.164C55.5257 157.833 55.2963 157.503 55.0925 157.173C54.9651 156.969 54.8376 156.792 54.7357 156.588C54.4809 156.156 54.2515 155.724 54.0732 155.292C54.0222 155.191 53.9712 155.089 53.9203 154.987C53.6909 154.454 53.5126 153.92 53.3597 153.386C53.3342 153.259 53.3087 153.132 53.2577 152.98C53.1558 152.548 53.0794 152.141 53.0284 151.709C53.0284 151.582 53.0029 151.43 52.9774 151.303C52.9265 150.744 52.9265 150.21 52.9774 149.676L52.1875 182.737C52.1875 182.737 52.1875 182.839 52.1875 182.89C52.1875 183.322 52.1875 183.728 52.1875 184.16C52.1875 184.236 52.1875 184.313 52.213 184.389C52.213 184.516 52.2385 184.668 52.2639 184.795C52.2639 184.999 52.2894 185.202 52.3404 185.405C52.3659 185.634 52.4423 185.837 52.4933 186.066C52.5188 186.193 52.5442 186.346 52.5952 186.473C52.5952 186.549 52.6207 186.625 52.6462 186.676C52.7736 187.108 52.9265 187.54 53.1049 187.972C53.1049 187.997 53.1303 188.023 53.1303 188.048C53.1813 188.15 53.2323 188.251 53.2832 188.353C53.4361 188.683 53.5635 188.988 53.7419 189.319C53.7929 189.42 53.8693 189.522 53.9458 189.624C54.0477 189.827 54.1751 190.005 54.3025 190.208C54.4299 190.386 54.5064 190.564 54.6338 190.742C54.7357 190.894 54.8886 191.047 54.9905 191.199C55.1689 191.453 55.3728 191.707 55.5766 191.936C55.6785 192.063 55.7805 192.216 55.8824 192.343C56.1372 192.648 56.4175 192.927 56.6978 193.207C56.7233 193.232 56.7488 193.258 56.7743 193.308C57.131 193.639 57.4878 193.995 57.87 194.325C58.0229 194.452 58.2013 194.579 58.3542 194.706C58.5071 194.833 58.66 194.96 58.8128 195.087C59.3989 195.545 60.0105 196.028 60.6985 196.46C61.3865 196.917 62.1255 197.374 62.89 197.781C63.1448 197.908 63.3996 198.035 63.629 198.162C64.1386 198.442 64.6737 198.721 65.2089 198.975C65.5146 199.128 65.8204 199.255 66.1262 199.382C66.6359 199.611 67.171 199.839 67.7061 200.043C68.0374 200.17 68.3432 200.297 68.6744 200.424C68.8783 200.5 69.0821 200.576 69.286 200.652C69.5153 200.729 69.7447 200.78 69.974 200.856C70.662 201.084 71.3755 201.288 72.089 201.491C72.3184 201.567 72.5222 201.644 72.7516 201.694C72.9554 201.745 73.1338 201.771 73.3377 201.821C73.7963 201.923 74.2295 202.025 74.6882 202.126C74.994 202.203 75.2743 202.279 75.5801 202.33C75.8349 202.38 76.0642 202.406 76.3191 202.457C76.6758 202.533 77.0071 202.584 77.3638 202.635C77.5932 202.685 77.848 202.736 78.0773 202.762C78.485 202.812 78.8927 202.863 79.3005 202.914C79.5553 202.94 79.8101 202.99 80.0904 203.016C80.1923 203.016 80.3197 203.041 80.4217 203.067C81.1607 203.143 81.8996 203.219 82.6641 203.27C82.7151 203.27 82.766 203.27 82.817 203.27C82.9699 203.27 83.1228 203.27 83.2757 203.27C83.8108 203.295 84.3204 203.346 84.8556 203.346C85.1104 203.346 85.3397 203.346 85.5945 203.346C85.8494 203.346 86.1042 203.346 86.359 203.346C86.5883 203.346 86.7922 203.346 87.0215 203.346C87.6076 203.346 88.1937 203.321 88.7798 203.295C88.8817 203.295 88.9837 203.295 89.1111 203.295C89.1366 203.295 89.162 203.295 89.1875 203.295C89.9265 203.27 90.64 203.219 91.379 203.143C91.5064 203.143 91.6338 203.117 91.7867 203.092C92.0415 203.067 92.2963 203.041 92.5766 203.016C92.9334 202.965 93.2901 202.94 93.6469 202.889C93.9272 202.863 94.182 202.787 94.4623 202.762C94.7936 202.711 95.0994 202.66 95.4306 202.609C95.6345 202.584 95.8383 202.558 96.0167 202.508C96.3735 202.431 96.7047 202.355 97.0615 202.279C97.4437 202.203 97.8514 202.126 98.2337 202.025C98.3611 201.999 98.514 201.974 98.6414 201.923C98.9217 201.847 99.1765 201.771 99.4568 201.694C100.043 201.542 100.629 201.364 101.215 201.186C101.368 201.135 101.546 201.084 101.699 201.034C102.056 200.907 102.413 200.78 102.744 200.627C102.999 200.525 103.254 200.449 103.508 200.348C104.298 200.043 105.063 199.712 105.802 199.331C112.198 196.18 115.587 191.707 115.918 187.032L116.708 153.971C116.377 158.647 112.988 163.119 106.592 166.27C105.853 166.626 105.088 166.956 104.298 167.287C104.044 167.388 103.789 167.465 103.559 167.566C103.05 167.744 102.54 167.947 102.005 168.1C101.419 168.278 100.833 168.456 100.247 168.608C99.839 168.71 99.4313 168.837 99.0236 168.938C98.6414 169.04 98.2592 169.116 97.8514 169.193C97.3163 169.32 96.7557 169.421 96.2206 169.523C95.8893 169.574 95.5835 169.625 95.2523 169.675C94.6152 169.777 94.0036 169.853 93.3666 169.93C93.1118 169.955 92.8315 169.98 92.5766 170.006C91.6848 170.082 90.7929 170.158 89.901 170.209C89.7991 170.209 89.6972 170.209 89.5952 170.209C88.7798 170.234 87.9899 170.26 87.1744 170.26C86.9196 170.26 86.6648 170.26 86.41 170.26C85.6455 170.26 84.881 170.209 84.1166 170.184C83.9637 170.184 83.8108 170.184 83.6579 170.184C82.766 170.133 81.8487 170.031 80.9568 169.93C80.702 169.904 80.4217 169.853 80.1669 169.828C79.5043 169.752 78.8673 169.65 78.2302 169.548C77.8735 169.498 77.5422 169.421 77.1854 169.37C76.6503 169.269 76.0897 169.142 75.5546 169.04C75.0959 168.938 74.6627 168.837 74.204 168.735C73.7708 168.634 73.3631 168.506 72.9554 168.405C72.2419 168.202 71.5284 167.998 70.8404 167.77C70.4072 167.617 69.974 167.49 69.5663 167.338C69.235 167.21 68.9038 167.083 68.598 166.956C68.0629 166.753 67.5532 166.524 67.0181 166.296C66.7123 166.169 66.4065 166.016 66.1007 165.889C65.5656 165.635 65.0305 165.355 64.5208 165.101C64.266 164.974 64.0112 164.847 63.7564 164.695C63.0174 164.263 62.2784 163.831 61.5649 163.373C60.9024 162.916 60.2653 162.458 59.6792 162.001C59.5263 161.874 59.3735 161.747 59.2206 161.62C58.66 161.162 58.1248 160.705 57.6662 160.222L57.5897 160.273Z"
            fill="url(#paint3_linear_161_81)" />
        <path
            d="M61.4885 163.424C49.4864 155.419 50.1999 143.755 63.0683 137.402C75.9368 131.024 96.0931 132.371 108.095 140.375C120.097 148.38 119.384 160.019 106.515 166.397C93.6469 172.75 73.4905 171.429 61.4885 163.424Z"
            fill="url(#paint4_linear_161_81)" />
        <path
            d="M66.1009 161.137C56.4942 154.733 57.0548 145.381 67.375 140.299C77.6953 135.191 93.8509 136.259 103.458 142.688C113.064 149.092 112.504 158.443 102.184 163.525C91.8633 168.633 75.7077 167.566 66.1009 161.137Z"
            fill="url(#paint5_linear_161_81)" />
        <path style="mix-blend-mode:screen"
            d="M52.9518 149.727C52.9263 150.261 52.9518 150.82 52.9518 151.353C52.9518 151.481 52.9772 151.633 53.0027 151.76C53.0537 152.192 53.1301 152.599 53.2321 153.031C53.2575 153.158 53.283 153.285 53.334 153.437C53.4869 153.971 53.6652 154.505 53.8946 155.038C53.9456 155.14 53.9965 155.241 54.0475 155.343C54.2513 155.775 54.4552 156.207 54.71 156.639C54.8119 156.842 54.9394 157.02 55.0668 157.224C55.2706 157.554 55.5254 157.884 55.7548 158.215C55.9332 158.469 56.137 158.723 56.3409 158.952C56.6976 159.384 57.0798 159.816 57.4876 160.222C57.513 160.248 57.5385 160.273 57.564 160.324C58.0482 160.807 58.5833 161.264 59.1184 161.721C59.2713 161.849 59.4242 161.976 59.5771 162.103C60.1632 162.56 60.8002 163.043 61.4628 163.475C62.1508 163.932 62.8898 164.39 63.6542 164.796C63.9091 164.923 64.1639 165.05 64.4187 165.203C64.9283 165.482 65.4635 165.737 65.9986 165.991C66.3044 166.143 66.6102 166.27 66.9159 166.397C67.4256 166.626 67.9607 166.855 68.4958 167.058C68.8271 167.185 69.1329 167.312 69.4642 167.439C69.8974 167.592 70.3305 167.744 70.7383 167.871C71.4263 168.1 72.1398 168.303 72.8533 168.506C73.261 168.634 73.6942 168.735 74.1019 168.837C74.5606 168.938 74.9938 169.04 75.4524 169.142C75.9876 169.269 76.5227 169.37 77.0833 169.472C77.4401 169.548 77.7713 169.599 78.1281 169.65C78.7651 169.752 79.4277 169.853 80.0647 169.93C80.3195 169.955 80.5998 170.006 80.8547 170.031C81.7465 170.133 82.6639 170.234 83.5558 170.285C83.7087 170.285 83.8615 170.285 84.0144 170.285C84.7789 170.336 85.5434 170.362 86.3078 170.362C86.5626 170.362 86.8175 170.362 87.0723 170.362C87.8877 170.362 88.7031 170.362 89.4931 170.311C89.595 170.311 89.6969 170.311 89.7989 170.311C90.6908 170.26 91.5826 170.209 92.4745 170.107C92.7293 170.082 93.0096 170.057 93.2644 170.031C93.9015 169.955 94.5385 169.879 95.1501 169.777C95.4814 169.726 95.7872 169.675 96.1184 169.625C96.679 169.523 97.2142 169.421 97.7493 169.294C98.1315 169.218 98.5392 169.142 98.9215 169.04C99.3292 168.938 99.7369 168.811 100.145 168.71C100.731 168.557 101.317 168.379 101.903 168.202C102.438 168.024 102.948 167.846 103.457 167.668C103.712 167.566 103.967 167.49 104.196 167.388C104.986 167.083 105.751 166.753 106.49 166.372C112.707 163.297 116.096 158.977 116.555 154.428L116.759 82.0807L53.1046 81.9282L52.9263 150.794V149.702L52.9518 149.727Z"
            fill="url(#paint6_linear_161_81)" />
        <path style="mix-blend-mode:screen"
            d="M59.2717 150.184C59.2462 150.616 59.2717 151.048 59.2717 151.506C59.2717 151.607 59.2717 151.709 59.2972 151.836C59.3481 152.166 59.3991 152.522 59.4755 152.853C59.4755 152.954 59.5265 153.056 59.552 153.183C59.6794 153.615 59.8068 154.021 59.9852 154.453C60.0107 154.53 60.0616 154.606 60.0871 154.682C60.24 155.038 60.4184 155.368 60.6222 155.724C60.7242 155.877 60.8006 156.029 60.9025 156.181C61.0809 156.436 61.2593 156.715 61.4631 156.969C61.616 157.173 61.7689 157.376 61.9218 157.554C62.2021 157.909 62.5079 158.24 62.8392 158.57C62.8392 158.57 62.8901 158.621 62.9156 158.646C63.2978 159.028 63.731 159.409 64.1642 159.765C64.2916 159.866 64.3936 159.968 64.521 160.069C65.0051 160.451 65.4893 160.806 66.0244 161.188C66.585 161.569 67.1711 161.925 67.7827 162.255C67.9865 162.357 68.1904 162.458 68.3943 162.56C68.802 162.789 69.2352 162.992 69.6684 163.195C69.8977 163.297 70.1525 163.424 70.4073 163.525C70.8151 163.703 71.2483 163.881 71.656 164.059C71.9108 164.161 72.1656 164.262 72.4459 164.364C72.7772 164.491 73.1339 164.593 73.4652 164.72C74.0258 164.898 74.5864 165.076 75.147 165.228C75.4783 165.33 75.8096 165.406 76.1663 165.508C76.5231 165.609 76.8798 165.686 77.2365 165.762C77.6697 165.863 78.1029 165.94 78.5361 166.041C78.8164 166.092 79.0967 166.143 79.377 166.194C79.8867 166.27 80.4218 166.346 80.9315 166.422C81.1353 166.448 81.3392 166.473 81.5685 166.499C82.282 166.575 83.021 166.651 83.7345 166.702C83.8619 166.702 83.9893 166.702 84.0912 166.702C84.7028 166.727 85.3144 166.753 85.926 166.778C86.1298 166.778 86.3337 166.778 86.5375 166.778C87.1746 166.778 87.8371 166.778 88.4742 166.753C88.5506 166.753 88.6271 166.753 88.729 166.753C89.4425 166.727 90.156 166.651 90.8695 166.6C91.0733 166.6 91.3027 166.55 91.5065 166.524C92.0162 166.473 92.5258 166.397 93.01 166.321C93.2648 166.27 93.5196 166.245 93.7744 166.194C94.2076 166.118 94.6408 166.016 95.0995 165.94C95.4053 165.863 95.7366 165.813 96.0423 165.736C96.3736 165.66 96.7049 165.558 97.0107 165.482C97.4948 165.355 97.9535 165.228 98.4122 165.076C98.8199 164.949 99.2531 164.796 99.6608 164.644C99.8647 164.567 100.069 164.491 100.272 164.415C100.909 164.161 101.521 163.907 102.107 163.602C107.102 161.137 109.803 157.681 110.185 154.047L110.516 34.9923L59.5265 34.8652L59.2207 151.099V150.235L59.2717 150.184Z"
            fill="url(#paint7_linear_161_81)" />
        <path
            d="M100.298 31.1295C100.298 31.1295 100.4 31.1041 100.476 31.0787C101.24 30.8245 102.005 30.6212 102.744 30.4434C103.177 30.3417 103.61 30.2401 104.018 30.1638C104.579 30.0622 105.114 29.9605 105.674 29.9097C105.98 29.8843 106.311 29.8335 106.617 29.8081C107.305 29.7572 107.968 29.7572 108.63 29.7572C108.783 29.7572 108.936 29.7572 109.089 29.7572C109.879 29.8081 110.643 29.9097 111.382 30.0368C111.561 30.0622 111.739 30.113 111.943 30.1638C112.529 30.2909 113.09 30.4688 113.65 30.6467C113.829 30.6975 114.007 30.7737 114.185 30.8245C114.899 31.1041 115.587 31.409 116.224 31.7902L103.457 24.3953C103.457 24.3953 103.355 24.3191 103.279 24.2937C102.769 24.0142 102.26 23.76 101.725 23.5313C101.623 23.4805 101.521 23.4551 101.419 23.4297C101.24 23.3535 101.062 23.3026 100.884 23.2518C100.603 23.1502 100.349 23.0485 100.068 22.9723C99.788 22.896 99.4567 22.8452 99.1764 22.769C98.998 22.7182 98.8197 22.6673 98.6158 22.6419C98.5139 22.6419 98.412 22.5911 98.31 22.5657C97.6985 22.464 97.0614 22.3878 96.4244 22.337C96.3734 22.337 96.3479 22.337 96.2969 22.337C96.1441 22.337 95.9912 22.337 95.8383 22.337C95.3541 22.337 94.8699 22.3116 94.3603 22.337C94.1819 22.337 94.029 22.3878 93.8507 22.3878C93.5449 22.3878 93.2391 22.4386 92.9078 22.4895C92.6275 22.5149 92.3217 22.5403 92.0414 22.5657C91.7866 22.6165 91.5318 22.6927 91.277 22.7436C90.8438 22.8198 90.4361 22.9215 90.0029 23.0231C89.7735 23.0739 89.5442 23.0993 89.3148 23.1756C88.8052 23.328 88.2701 23.4805 87.735 23.6584C87.684 23.6584 87.633 23.6838 87.5566 23.7092C86.9195 23.9379 86.2825 24.1666 85.6454 24.4207C85.3906 24.5224 85.1358 24.6495 84.881 24.7765C84.6261 24.8782 84.3968 25.0052 84.142 25.1069C83.1991 25.5389 82.2563 26.0217 81.288 26.5808C80.2942 27.1652 79.3004 27.8005 78.3066 28.4612C78.0008 28.6899 77.6695 28.9187 77.3637 29.1474C76.7012 29.6302 76.0387 30.113 75.4016 30.6212C75.0449 30.9008 74.6881 31.2057 74.3314 31.5107C73.7453 32.0189 73.1592 32.5271 72.5731 33.0608C72.2164 33.3911 71.8596 33.6961 71.5283 34.0264C71.299 34.2297 71.0951 34.433 70.8658 34.6363C70.6365 34.865 70.4326 35.1191 70.2033 35.3479C69.4898 36.0594 68.8018 36.7963 68.1137 37.5587C67.9099 37.7874 67.6551 38.0161 67.4512 38.2702C67.2728 38.4735 67.0945 38.7022 66.9161 38.9055C66.5084 39.3883 66.1007 39.8712 65.6929 40.3794C65.4381 40.7098 65.1578 41.0147 64.903 41.3451C64.6991 41.6246 64.4953 41.9041 64.2914 42.1836C64.0111 42.5648 63.7053 42.9714 63.425 43.3526C63.2212 43.6321 63.0173 43.8862 62.8389 44.1658C62.5077 44.6232 62.2019 45.106 61.8961 45.5888C61.6923 45.8938 61.4884 46.1733 61.2845 46.4783C61.2081 46.6053 61.1062 46.7324 61.0297 46.8594C60.4691 47.7234 59.934 48.6128 59.4243 49.5023C59.3989 49.5531 59.3479 49.6293 59.3224 49.6801C59.2205 49.858 59.1186 50.0359 59.0166 50.2138C58.6599 50.8491 58.3031 51.4844 57.9464 52.1197C57.7935 52.4246 57.6406 52.7296 57.4877 53.0091C57.3348 53.314 57.1819 53.619 57.0035 53.9493C56.8761 54.2289 56.7232 54.483 56.5958 54.7625C56.2391 55.4995 55.9078 56.211 55.602 56.9479C55.5511 57.075 55.4746 57.2275 55.4237 57.3545C55.4237 57.3799 55.3982 57.4308 55.3727 57.4562C54.965 58.371 54.5827 59.3112 54.226 60.2515C54.1495 60.4294 54.0986 60.6072 54.0476 60.7597C53.9202 61.0901 53.7928 61.4458 53.6909 61.7762C53.5125 62.2336 53.3341 62.7164 53.1812 63.1739C53.0538 63.5296 52.9519 63.9108 52.85 64.2666C52.7225 64.6986 52.5697 65.1306 52.4677 65.5626C52.3913 65.8167 52.2894 66.0962 52.2129 66.3503C52.0855 66.8332 51.9836 67.2906 51.8562 67.7734C51.7287 68.307 51.5759 68.8407 51.4739 69.3743C51.423 69.5522 51.372 69.7555 51.3465 69.9334C51.2701 70.3146 51.2191 70.6958 51.1427 71.0769C50.9898 71.9155 50.8369 72.7287 50.7095 73.5673C50.684 73.796 50.633 74.0247 50.5821 74.2534C50.5056 74.7617 50.4801 75.2953 50.4292 75.8035C50.4037 76.1593 50.3527 76.5405 50.3272 76.8963C50.2508 78.0398 50.1743 79.2087 50.1998 80.3269C50.2253 90.1358 53.6909 97.0225 59.2969 100.275L72.0635 107.67C66.4574 104.417 62.9918 97.5307 62.9664 87.7217C62.9664 86.5782 63.0173 85.4346 63.0938 84.2911C63.1192 83.9353 63.1702 83.5542 63.1957 83.1984C63.2721 82.4615 63.3486 81.6991 63.476 80.9622C63.6034 80.149 63.7563 79.3104 63.9092 78.4718C64.0111 77.9127 64.113 77.3537 64.2405 76.7692C64.3679 76.2355 64.4953 75.7019 64.6227 75.1682C64.8011 74.4313 65.0049 73.6944 65.2088 72.9574C65.3362 72.5254 65.4636 72.0934 65.591 71.6614C65.8458 70.8228 66.1261 70.0096 66.4319 69.171C66.5593 68.8407 66.6613 68.4849 66.7887 68.1546C67.2219 67.011 67.6805 65.8675 68.1647 64.7494C68.2157 64.6223 68.2921 64.4953 68.3431 64.3682C68.8018 63.3517 69.2604 62.3607 69.7701 61.3442C69.923 61.0392 70.0759 60.7089 70.2542 60.404C70.7384 59.4637 71.248 58.5235 71.7577 57.6086C71.8596 57.4308 71.9615 57.2275 72.0635 57.0496C72.7005 55.9823 73.3376 54.915 74.0256 53.8731C74.2294 53.5682 74.4333 53.2632 74.6372 52.9583C75.1468 52.1959 75.6564 51.459 76.1916 50.7474C76.4719 50.3663 76.7777 49.9597 77.058 49.5785C77.5166 48.9686 78.0008 48.3841 78.4595 47.7743C78.8672 47.266 79.2494 46.7832 79.6826 46.3004C80.0648 45.843 80.4726 45.411 80.8803 44.9535C81.5683 44.1912 82.2563 43.4542 82.9698 42.7427C83.403 42.3107 83.8362 41.8533 84.2949 41.4213C84.6516 41.0909 84.9829 40.7606 85.3396 40.4302C85.9257 39.8966 86.5118 39.3883 87.0979 38.9055C87.4547 38.6006 87.8114 38.321 88.1682 38.0161C88.8052 37.5079 89.4677 37.025 90.1303 36.5422C90.4361 36.3135 90.7673 36.0848 91.0731 35.8561C92.0414 35.1954 93.0352 34.5601 94.0545 33.9756C95.0228 33.4166 95.9657 32.9337 96.9085 32.5017C97.1633 32.3747 97.3927 32.273 97.6475 32.1714C98.5648 31.7648 99.4567 31.409 100.349 31.1041L100.298 31.1295Z"
            fill="url(#paint8_linear_161_81)" />
        <path
            d="M94.0033 34.0265C111.229 24.1159 125.219 32.0698 125.295 51.8148C125.346 71.5598 111.433 95.5994 94.2072 105.51C76.9813 115.421 62.9916 107.492 62.9152 87.7218C62.8642 68.0022 76.7774 43.9371 94.0033 34.0265Z"
            fill="url(#paint9_linear_161_81)" />
        <path
            d="M94.029 41.1164C107.815 33.1625 119.052 39.5408 119.103 55.3724C119.154 71.204 107.993 90.4408 94.2074 98.3947C80.4216 106.349 69.184 99.9703 69.133 84.1387C69.082 68.3325 80.2432 49.0703 94.029 41.1164Z"
            fill="url(#paint10_linear_161_81)" />
        <path
            d="M110.354 79.2305C119.362 63.7709 119.385 47.02 110.405 41.8162C101.424 36.6124 86.8421 44.9264 77.834 60.3859C68.8259 75.8455 68.8033 92.5964 77.7834 97.8002C86.7635 103.004 101.346 94.6901 110.354 79.2305Z"
            fill="#0C0C4F" />
        <path fill-rule="evenodd" clip-rule="evenodd"
            d="M74.51 80.2509C72.0892 93.7446 78.74 100.047 89.3915 94.329C100.043 88.6114 110.644 73.0593 113.064 59.5656C115.485 46.0719 108.834 39.7698 98.1828 45.4874C87.5313 51.2051 76.9308 66.7572 74.51 80.2509Z"
            fill="#0C0C4F" />
        <path fill-rule="evenodd" clip-rule="evenodd"
            d="M86.3082 68.7137L87.1236 66.6045C87.2765 66.1725 87.5823 65.7405 87.8881 65.4864L89.4679 64.1141C89.6973 63.9362 89.7482 63.555 89.5699 63.5805L88.2193 63.7583C87.939 63.7838 87.7606 63.6313 87.7352 63.3009L87.6077 61.6746C87.6077 61.4459 87.302 61.5983 87.2 61.9033L86.3846 64.0125C86.2317 64.4445 85.9259 64.8511 85.6201 65.1306L84.0402 66.5028C83.8109 66.6807 83.7599 67.0619 83.9383 67.0365L85.2889 66.8586C85.5692 66.8332 85.7475 66.9856 85.773 67.316L85.9004 68.9424C85.9004 69.1711 86.2062 69.0186 86.3082 68.7137Z"
            fill="#FAFAFA" />
        <path fill-rule="evenodd" clip-rule="evenodd"
            d="M109.854 55.1185C109.395 54.5848 108.529 54.6102 107.637 54.8898C106.745 55.1947 105.751 55.7284 104.808 56.4399C102.872 57.8375 101.011 59.718 99.3297 61.7001C98.4633 62.6912 97.6733 63.7331 96.8834 64.8004C96.5012 65.334 96.1189 65.8677 95.7622 66.4013L94.7174 67.9261C93.5707 69.6286 92.475 71.2296 91.4302 72.6272C90.3855 74.0249 89.4426 75.143 88.5507 76.0579C87.6589 76.9727 86.7415 77.735 85.5948 78.3703C84.4736 79.031 83.1995 79.463 81.849 79.8188C80.4984 80.1492 79.1224 80.3525 77.5425 80.7336C77.7463 82.4616 78.3069 83.8085 79.1479 84.8758C79.9888 85.8922 81.1609 86.6038 82.8173 86.6038C84.4481 86.6292 86.6396 85.7652 88.8565 84.088C91.0735 82.4362 93.163 80.1746 94.9213 77.9383C96.705 75.6767 98.2085 73.3642 99.559 71.0771C99.9412 70.4418 100.12 70.1115 100.4 69.6286L101.164 68.2564C101.674 67.3924 102.184 66.4268 102.693 65.5627C103.713 63.7839 104.706 62.0051 105.828 60.2771C106.388 59.3877 106.974 58.5491 107.611 57.6597C107.943 57.2277 108.274 56.7957 108.656 56.3637C109.038 55.9062 109.421 55.4997 109.905 55.1185H109.854Z"
            fill="url(#paint11_linear_161_81)" />
        <path fill-rule="evenodd" clip-rule="evenodd"
            d="M109.853 55.1185C109.573 53.3651 108.681 52.2724 107.28 51.8404C105.878 51.4338 103.763 51.9674 101.419 53.7463C100.272 54.6103 99.1 55.703 98.0298 56.8973C96.9595 58.0917 95.9912 59.3623 95.0993 60.6583C94.6661 61.2936 94.233 61.9543 93.8252 62.5896L92.7295 64.4192L91.0222 67.3162C88.8562 71.0263 86.4609 75.3209 83.3521 77.8621C80.2942 80.3779 79.1985 80.2 77.4912 80.7845C77.6186 81.6739 77.848 82.4871 78.2047 83.097C78.5615 83.7323 79.0456 84.2659 79.6827 84.5708C80.0139 84.7233 80.3707 84.8504 80.7784 84.9012C81.1861 84.952 81.6448 84.9266 82.129 84.825C83.1228 84.6217 84.2695 84.1134 85.4671 83.3002C86.6393 82.4871 87.8369 81.4452 88.9072 80.3017C89.9774 79.1835 90.9458 77.9892 91.8376 76.7948C93.6214 74.4315 95.0993 72.0682 96.3989 69.7811C97.0615 68.6376 97.673 67.4941 98.2336 66.376L98.9217 65.0545C99.1255 64.6734 99.3294 64.2668 99.5332 63.8856C100.374 62.3863 101.139 61.1157 102.005 60.023C102.871 58.9049 103.967 57.8376 105.343 56.999C106.719 56.1604 108.223 55.5505 109.828 55.1185H109.853Z"
            fill="#FAFAFA" />
        <path fill-rule="evenodd" clip-rule="evenodd"
            d="M99.4568 76.3881C99.1765 77.9128 99.941 78.6498 101.164 77.9891C102.387 77.3284 103.585 75.5749 103.865 74.0248C104.146 72.4747 103.381 71.7632 102.183 72.4239C100.986 73.0846 99.7626 74.838 99.4823 76.3881H99.4568Z"
            fill="url(#paint12_linear_161_81)" />
        <path
            d="M125.623 85.1875C145.643 51.8295 146.16 15.41 126.778 3.84222C107.396 -7.72556 75.4551 9.93888 55.4355 43.2968C35.416 76.6548 34.899 113.074 54.2808 124.642C73.6626 136.21 105.604 118.545 125.623 85.1875Z"
            stroke="url(#paint13_linear_161_81)" stroke-miterlimit="10" />
        <path
            d="M126.798 124.678C146.18 113.11 145.663 76.6905 125.643 43.3325C105.624 9.97459 73.6826 -7.68985 54.3008 3.87793C34.9191 15.4457 35.4361 51.8652 55.4556 85.2232C75.4751 118.581 107.416 136.246 126.798 124.678Z"
            stroke="url(#paint14_linear_161_81)" stroke-miterlimit="10" />
        <path
            d="M49.4352 24.0904C18.7038 32.7304 12.1804 57.7357 34.8849 79.8949C57.5895 102.105 100.909 113.057 131.64 104.417C162.372 95.7773 168.921 70.7974 146.191 48.6128C123.486 26.4283 80.1666 15.4504 49.4352 24.0904Z"
            stroke="url(#paint15_linear_161_81)" stroke-miterlimit="10" />
    </g>
    <defs>
        <linearGradient id="paint0_linear_161_81" x1="84.1421" y1="203.282" x2="142.267" y2="203.282"
            gradientUnits="userSpaceOnUse">
            <stop stop-color="#6F4FF2" />
            <stop offset="1" stop-color="#61FCAE" />
        </linearGradient>
        <linearGradient id="paint1_linear_161_81" x1="84.677" y1="203.13" x2="26.3994" y2="203.13"
            gradientUnits="userSpaceOnUse">
            <stop stop-color="#6F4FF2" />
            <stop offset="1" stop-color="#61FCAE" />
        </linearGradient>
        <linearGradient id="paint2_linear_161_81" x1="222" y1="183.982" x2="26.9092" y2="183.982"
            gradientUnits="userSpaceOnUse">
            <stop stop-color="#6F4FF2" />
            <stop offset="1" stop-color="#61FCAE" />
        </linearGradient>
        <linearGradient id="paint3_linear_161_81" x1="116.708" y1="176.511" x2="52.1875" y2="176.511"
            gradientUnits="userSpaceOnUse">
            <stop stop-color="#6F4FF2" />
            <stop offset="1" stop-color="#61FCAE" />
        </linearGradient>
        <linearGradient id="paint4_linear_161_81" x1="89.4657" y1="193.602" x2="70.4778" y2="21.7167"
            gradientUnits="userSpaceOnUse">
            <stop stop-color="#85FFC4" />
            <stop offset="0.06" stop-color="#83F5C3" />
            <stop offset="0.16" stop-color="#7FDCC2" />
            <stop offset="0.29" stop-color="#78B2C1" />
            <stop offset="0.44" stop-color="#6F79BF" />
            <stop offset="0.57" stop-color="#6742BD" />
            <stop offset="0.87" stop-color="#411D87" />
            <stop offset="0.99" stop-color="#3C148A" />
        </linearGradient>
        <linearGradient id="paint5_linear_161_81" x1="117.657" y1="168.375" x2="22.4955" y2="120.048"
            gradientUnits="userSpaceOnUse">
            <stop stop-color="#85FFC4" />
            <stop offset="0.06" stop-color="#83F5C3" />
            <stop offset="0.16" stop-color="#7FDCC2" />
            <stop offset="0.29" stop-color="#78B2C1" />
            <stop offset="0.44" stop-color="#6F79BF" />
            <stop offset="0.57" stop-color="#6742BD" />
            <stop offset="0.87" stop-color="#411D87" />
            <stop offset="0.99" stop-color="#3C148A" />
        </linearGradient>
        <linearGradient id="paint6_linear_161_81" x1="84.7267" y1="169.211" x2="85.4113" y2="-92.9874"
            gradientUnits="userSpaceOnUse">
            <stop offset="0.04" stop-color="#85FFC4" stop-opacity="0.6" />
            <stop offset="0.09" stop-color="#AAFFD6" stop-opacity="0.41" />
            <stop offset="0.16" stop-color="#D8FFEC" stop-opacity="0.19" />
            <stop offset="0.21" stop-color="#F4FFF9" stop-opacity="0.05" />
            <stop offset="0.23" stop-color="white" stop-opacity="0" />
        </linearGradient>
        <linearGradient id="paint7_linear_161_81" x1="84.7382" y1="164.967" x2="85.7598" y2="-226.323"
            gradientUnits="userSpaceOnUse">
            <stop stop-color="#85FFC4" />
            <stop offset="0.05" stop-color="#B8FFDC" stop-opacity="0.58" />
            <stop offset="0.1" stop-color="#DEFFEF" stop-opacity="0.27" />
            <stop offset="0.13" stop-color="#F5FFFA" stop-opacity="0.07" />
            <stop offset="0.14" stop-color="white" stop-opacity="0" />
        </linearGradient>
        <linearGradient id="paint8_linear_161_81" x1="50.1948" y1="64.9979" x2="116.224" y2="64.9979"
            gradientUnits="userSpaceOnUse">
            <stop stop-color="#6F4FF2" />
            <stop offset="1" stop-color="#61FCAE" />
        </linearGradient>
        <linearGradient id="paint9_linear_161_81" x1="125.295" y1="69.7706" x2="62.915" y2="69.7706"
            gradientUnits="userSpaceOnUse">
            <stop stop-color="#6F4FF2" />
            <stop offset="1" stop-color="#61FCAE" />
        </linearGradient>
        <linearGradient id="paint10_linear_161_81" x1="53.5634" y1="100.148" x2="170.929" y2="11.6577"
            gradientUnits="userSpaceOnUse">
            <stop stop-color="#85FFC4" />
            <stop offset="0.06" stop-color="#83F5C3" />
            <stop offset="0.16" stop-color="#7FDCC2" />
            <stop offset="0.29" stop-color="#78B2C1" />
            <stop offset="0.44" stop-color="#6F79BF" />
            <stop offset="0.57" stop-color="#6742BD" />
            <stop offset="0.87" stop-color="#411D87" />
            <stop offset="0.99" stop-color="#3C148A" />
        </linearGradient>
        <linearGradient id="paint11_linear_161_81" x1="-293.052" y1="272.093" x2="-309.807" y2="301.601"
            gradientUnits="userSpaceOnUse">
            <stop stop-color="#EC796B" />
            <stop offset="1" stop-color="#E175B1" />
        </linearGradient>
        <linearGradient id="paint12_linear_161_81" x1="-288.128" y1="286.349" x2="-292.221" y2="289.245"
            gradientUnits="userSpaceOnUse">
            <stop stop-color="#EC796B" />
            <stop offset="1" stop-color="#E175B1" />
        </linearGradient>
        <linearGradient id="paint13_linear_161_81" x1="54.2808" y1="124.642" x2="126.484" y2="3.66657"
            gradientUnits="userSpaceOnUse">
            <stop stop-color="#6F4FF2" />
            <stop offset="1" stop-color="#61FCAE" />
        </linearGradient>
        <linearGradient id="paint14_linear_161_81" x1="55.4556" y1="85.2232" x2="125.541" y2="43.1621"
            gradientUnits="userSpaceOnUse">
            <stop stop-color="#6F4FF2" />
            <stop offset="1" stop-color="#61FCAE" />
        </linearGradient>
        <linearGradient id="paint15_linear_161_81" x1="21.3472" y1="64.2554" x2="159.739" y2="64.2554"
            gradientUnits="userSpaceOnUse">
            <stop stop-color="#6F4FF2" />
            <stop offset="1" stop-color="#61FCAE" />
        </linearGradient>
        <clipPath id="clip0_161_81">
            <rect width="169.15" height="236" fill="white" />
        </clipPath>
    </defs>
</svg>