<svg width="170" height="224" viewBox="0 0 170 224" fill="none" xmlns="http://www.w3.org/2000/svg">
    <path d="M0.664062 174.66L84.8828 223.543L168.872 175.093L84.3976 129.833L0.664062 174.66Z" stroke="#6F4FF2"
        stroke-miterlimit="10" />
    <path d="M142.569 170.604L142.033 178.257L84.3208 211.552L84.8571 203.898L142.569 170.604Z"
        fill="url(#paint0_linear_170_119)" />
    <path d="M84.8571 203.898L84.3208 211.552L26.4556 177.951L26.9663 170.297L84.8571 203.898Z"
        fill="url(#paint1_linear_170_119)" />
    <path d="M26.9663 170.297L84.8571 203.898L142.569 170.603L84.5251 139.478L26.9663 170.297Z"
        fill="url(#paint2_linear_170_119)" />
    <path d="M126.456 140.447L126.098 169.634L84.2954 193.896L84.6785 164.71L126.456 140.447Z"
        fill="url(#paint3_linear_170_119)" />
    <path d="M84.6785 164.71L84.2955 193.897L42.2627 169.634L42.6202 140.473L84.6785 164.71Z"
        fill="url(#paint4_linear_170_119)" />
    <path
        d="M67.6456 162.107V163.613C67.6456 163.995 67.2115 164.225 66.8796 164.046L45.9653 151.8C45.8121 151.698 45.71 151.545 45.71 151.366V149.861C45.71 149.478 46.1441 149.249 46.4761 149.427L67.3903 161.674C67.5435 161.776 67.6456 161.929 67.6456 162.107Z"
        fill="url(#paint5_linear_170_119)" />
    <path
        d="M67.6456 167.516V169.021C67.6456 169.404 67.2115 169.634 66.8796 169.455L45.9653 157.209C45.8121 157.107 45.71 156.954 45.71 156.775V155.27C45.71 154.887 46.1441 154.657 46.4761 154.836L67.3903 167.082C67.5435 167.184 67.6456 167.337 67.6456 167.516Z"
        fill="url(#paint6_linear_170_119)" />
    <path
        d="M67.6456 172.925V174.43C67.6456 174.813 67.2115 175.042 66.8796 174.864L45.9653 162.617C45.8121 162.515 45.71 162.362 45.71 162.184V160.678C45.71 160.296 46.1441 160.066 46.4761 160.245L67.3903 172.491C67.5435 172.593 67.6456 172.746 67.6456 172.925Z"
        fill="url(#paint7_linear_170_119)" />
    <path d="M42.6201 140.472L84.6784 164.71L126.456 140.447L84.2954 117.996L42.6201 140.472Z"
        fill="url(#paint8_linear_170_119)" />
    <path d="M126.405 105.29L126.048 134.477L84.2446 158.74L84.6277 129.553L126.405 105.29Z"
        fill="url(#paint9_linear_170_119)" />
    <path d="M84.6279 129.553L84.2448 158.74L42.1865 134.477L42.5696 105.315L84.6279 129.553Z"
        fill="url(#paint10_linear_170_119)" />
    <path
        d="M67.5954 126.951V128.456C67.5954 128.838 67.1612 129.068 66.8293 128.889L45.915 116.643C45.7618 116.541 45.6597 116.388 45.6597 116.21V114.704C45.6597 114.322 46.0938 114.092 46.4258 114.271L67.34 126.517C67.4932 126.619 67.5954 126.772 67.5954 126.951Z"
        fill="url(#paint11_linear_170_119)" />
    <path
        d="M67.5954 132.359V133.864C67.5954 134.247 67.1612 134.477 66.8293 134.298L45.915 122.052C45.7618 121.95 45.6597 121.797 45.6597 121.618V120.113C45.6597 119.73 46.0938 119.501 46.4258 119.679L67.34 131.925C67.4932 132.028 67.5954 132.181 67.5954 132.359Z"
        fill="url(#paint12_linear_170_119)" />
    <path
        d="M67.5954 137.768V139.273C67.5954 139.656 67.1612 139.885 66.8293 139.707L45.915 127.461C45.7618 127.359 45.6597 127.206 45.6597 127.027V125.522C45.6597 125.139 46.0938 124.909 46.4258 125.088L67.34 137.334C67.4932 137.436 67.5954 137.589 67.5954 137.768Z"
        fill="url(#paint13_linear_170_119)" />
    <path d="M42.5693 105.316L84.6276 129.553L126.405 105.29L84.2446 82.8643L42.5693 105.316Z"
        fill="url(#paint14_linear_170_119)" />
    <path
        d="M120.455 118.174C121.17 117.766 121.758 118.098 121.758 118.914C121.758 119.73 121.17 120.751 120.455 121.159C119.74 121.567 119.153 121.236 119.153 120.419C119.153 119.603 119.74 118.582 120.455 118.174Z"
        fill="url(#paint15_linear_170_119)" />
    <path
        d="M120.455 123.634C121.17 123.226 121.758 123.558 121.758 124.374C121.758 125.19 121.17 126.211 120.455 126.619C119.74 127.027 119.153 126.696 119.153 125.879C119.153 125.063 119.74 124.042 120.455 123.634Z"
        fill="url(#paint16_linear_170_119)" />
    <path
        d="M120.455 129.068C121.17 128.66 121.758 128.992 121.758 129.808C121.758 130.625 121.17 131.645 120.455 132.053C119.74 132.461 119.153 132.13 119.153 131.313C119.153 130.497 119.74 129.476 120.455 129.068Z"
        fill="url(#paint17_linear_170_119)" />
    <path
        d="M115.016 121.159C115.731 120.751 116.318 121.083 116.318 121.899C116.318 122.715 115.731 123.736 115.016 124.144C114.301 124.552 113.713 124.221 113.713 123.404C113.713 122.588 114.301 121.567 115.016 121.159Z"
        fill="url(#paint18_linear_170_119)" />
    <path
        d="M115.016 126.619C115.731 126.211 116.318 126.542 116.318 127.359C116.318 128.175 115.731 129.196 115.016 129.604C114.301 130.012 113.713 129.681 113.713 128.864C113.713 128.048 114.301 127.027 115.016 126.619Z"
        fill="url(#paint19_linear_170_119)" />
    <path
        d="M115.016 132.053C115.731 131.645 116.318 131.977 116.318 132.793C116.318 133.609 115.731 134.63 115.016 135.038C114.301 135.446 113.713 135.115 113.713 134.298C113.713 133.482 114.301 132.461 115.016 132.053Z"
        fill="url(#paint20_linear_170_119)" />
    <path
        d="M109.551 124.144C110.266 123.736 110.853 124.067 110.853 124.884C110.853 125.7 110.266 126.721 109.551 127.129C108.836 127.537 108.249 127.205 108.249 126.389C108.249 125.573 108.836 124.552 109.551 124.144Z"
        fill="url(#paint21_linear_170_119)" />
    <path
        d="M109.551 129.604C110.266 129.196 110.853 129.527 110.853 130.344C110.853 131.16 110.266 132.181 109.551 132.589C108.836 132.997 108.249 132.665 108.249 131.849C108.249 131.033 108.836 130.012 109.551 129.604Z"
        fill="url(#paint22_linear_170_119)" />
    <path
        d="M109.551 135.038C110.266 134.63 110.853 134.961 110.853 135.778C110.853 136.594 110.266 137.615 109.551 138.023C108.836 138.431 108.249 138.1 108.249 137.283C108.249 136.467 108.836 135.446 109.551 135.038Z"
        fill="url(#paint23_linear_170_119)" />
    <g clip-path="url(#clip0_170_119)">
        <path
            d="M76.0241 98.9611C88.6891 100.983 101.463 87.3305 104.555 68.4669C107.647 49.6034 99.8865 32.6722 87.2215 30.6501C74.5565 28.628 61.7829 42.2807 58.6908 61.1443C55.5987 80.0079 63.3591 96.939 76.0241 98.9611Z"
            fill="url(#paint24_linear_170_119)" />
        <path
            d="M79.8781 99.6726C92.5431 101.695 105.317 88.0419 108.409 69.1784C111.501 50.3148 103.741 33.3836 91.0755 31.3615C78.4105 29.3394 65.6369 42.9921 62.5448 61.8557C59.4527 80.7193 67.2131 97.6505 79.8781 99.6726Z"
            fill="url(#paint25_linear_170_119)" />
        <path
            d="M80.7263 94.4983C91.4759 96.2146 102.317 84.6306 104.941 68.6247C107.564 52.6187 100.977 38.2521 90.2275 36.5358C79.4779 34.8195 68.6368 46.4036 66.0131 62.4095C63.3894 78.4154 69.9768 92.7821 80.7263 94.4983Z"
            fill="url(#paint26_linear_170_119)" />
        <path
            d="M80.7263 94.4983C91.4759 96.2146 102.317 84.6306 104.941 68.6247C107.564 52.6187 100.977 38.2521 90.2275 36.5358C79.4779 34.8195 68.6368 46.4036 66.0131 62.4095C63.3894 78.4154 69.9768 92.7821 80.7263 94.4983Z"
            stroke="#111119" stroke-linecap="round" stroke-linejoin="round" />
        <path
            d="M103.733 63.628C102.948 79.6969 93.3745 93.5313 82.331 94.5242C81.9722 94.555 81.6227 94.5737 81.2734 94.5771C82.1791 94.6819 83.1041 94.7013 84.0456 94.6139C95.08 93.6178 104.663 79.7866 105.448 63.7177C106.211 48.168 98.448 36.2189 87.9408 36.3727C97.5576 37.4739 104.45 48.9366 103.733 63.628Z"
            fill="#111119" stroke="#111119" stroke-linecap="round" stroke-linejoin="round" />
        <path
            d="M87.0519 42.8989L88.2321 43.6597L86.8333 47.3429C88.9416 47.3012 90.4853 48.1504 91.4521 49.8965C92.4189 51.6425 92.8532 54.4234 92.7457 58.2511L89.1607 60.4721L87.9805 59.7113C88.0379 58.1565 88.0061 56.9035 87.8849 55.9676C87.7669 55.0225 87.5569 54.3578 87.261 53.9705C86.9621 53.5771 86.5872 53.4031 86.1364 53.4485C85.5598 53.5021 85.1732 53.8199 84.9706 54.405C84.7679 54.9901 84.6508 55.5942 84.6223 56.2234C84.5503 57.717 84.7323 58.965 85.1623 59.9553C85.5923 60.9455 86.2062 61.9219 87.001 62.8936L89.0587 65.4365C89.6385 66.1865 90.1566 66.9666 90.6193 67.7738C91.0821 68.581 91.439 69.531 91.6931 70.6299C91.9443 71.7226 92.0365 73.0525 91.9638 74.6072C91.8246 77.4477 91.1554 79.7342 89.9565 81.4512C88.7576 83.1683 87.2109 84.2196 85.3041 84.5959L84.7066 89.7642L83.5264 89.0034L83.7333 84.7854C82.5444 84.8037 81.6073 84.4939 80.9221 83.8561C80.2369 83.2183 79.7376 82.3986 79.4303 81.394C79.1169 80.3924 78.9298 79.3216 78.8477 78.1843C78.7717 77.044 78.7469 75.9774 78.7703 74.9938L83.5917 73.7112C83.5861 73.9342 84.7718 74.472 84.7718 74.472C84.7718 74.472 83.567 75.8957 83.5936 76.5284C83.6274 77.3322 83.7401 77.9381 83.9346 78.3521C84.1352 78.7631 84.4641 78.9367 84.9398 78.864C85.4519 78.8191 85.8512 78.4647 86.1311 77.8191C86.4081 77.1674 86.5623 76.53 86.5908 75.9008C86.6592 74.4622 86.4636 73.3271 86.0013 72.4893C85.5389 71.6516 85.0299 70.8746 84.4744 70.1431L82.5046 67.6865C81.8526 66.8198 81.2535 65.8893 80.7224 64.8952C80.1913 63.9011 79.7782 62.7735 79.486 61.5184C79.1999 60.2604 79.0969 58.7991 79.1772 57.1192C79.2564 55.5309 79.5518 54.0574 80.0664 52.7048C80.5842 51.343 81.2862 50.2179 82.1665 49.3172C83.0467 48.4166 84.0797 47.8288 85.2594 47.5415L85.4785 43.0516L87.0488 42.908L87.0519 42.8989Z"
            fill="#111119" stroke="#111119" stroke-linecap="round" stroke-linejoin="round" />
        <path
            d="M88.2384 43.6567L88.0198 48.1007C90.1281 48.059 91.6718 48.9082 92.6386 50.6543C93.6054 52.4003 94.0398 55.1812 93.9322 59.0089L89.1671 60.4691C89.2244 58.9143 89.1926 57.6613 89.0714 56.7254C88.9534 55.7803 88.7434 55.1156 88.4475 54.7284C88.1486 54.3349 87.7738 54.1609 87.3229 54.2063C86.7463 54.2599 86.3598 54.5777 86.1571 55.1628C85.9544 55.7479 85.8373 56.352 85.8088 56.9812C85.7368 58.4748 85.9188 59.7228 86.3488 60.7131C86.7788 61.7033 87.3928 62.6798 88.1876 63.6515L90.2452 66.1943C90.825 66.9443 91.3432 67.7245 91.8059 68.5316C92.2686 69.3388 92.6255 70.2888 92.8796 71.3877C93.1308 72.4805 93.223 73.8103 93.1503 75.365C93.0111 78.2055 92.3419 80.492 91.143 82.209C89.9441 83.9261 88.3974 84.9774 86.4906 85.3537L86.2832 89.6176L84.713 89.7612L84.9198 85.5432C83.7309 85.5615 82.7939 85.2517 82.1087 84.6139C81.4235 83.9761 80.9241 83.1564 80.6168 82.1518C80.3034 81.1503 80.1163 80.0794 80.0342 78.9421C79.9582 77.8018 79.9335 76.7352 79.9568 75.7516L84.7782 74.469C84.7477 75.5473 84.7463 76.4823 84.7801 77.2862C84.814 78.09 84.9266 78.6959 85.1211 79.1099C85.3217 79.5209 85.6506 79.6945 86.1263 79.6218C86.6385 79.5769 87.0377 79.2225 87.3176 78.5769C87.5946 77.9252 87.7488 77.2878 87.7774 76.6586C87.8457 75.22 87.6501 74.0849 87.1878 73.2471C86.7254 72.4094 86.2164 71.6324 85.661 70.9009L83.6911 68.4443C83.0392 67.5776 82.44 66.6471 81.9089 65.653C81.3779 64.6589 80.9647 63.5313 80.6725 62.2763C80.3865 61.0182 80.2835 59.5569 80.3637 57.877C80.4429 56.2888 80.7383 54.8152 81.2529 53.4626C81.7707 52.1008 82.4728 50.9757 83.353 50.075C84.2332 49.1744 85.2662 48.5866 86.4459 48.2993L86.665 43.8095L88.2353 43.6658L88.2384 43.6567Z"
            fill="url(#paint27_linear_170_119)" />
    </g>
    <path style="mix-blend-mode:screen"
        d="M83.1667 0.074707L41.3638 24.3375V105.316L83.4221 129.553L125.199 105.29V24.3375L83.1667 0.074707Z"
        fill="url(#paint28_linear_170_119)" />
    <defs>
        <linearGradient id="paint0_linear_170_119" x1="84.3208" y1="191.078" x2="142.569" y2="191.078"
            gradientUnits="userSpaceOnUse">
            <stop stop-color="#6F4FF2" />
            <stop offset="1" stop-color="#61FCAE" />
        </linearGradient>
        <linearGradient id="paint1_linear_170_119" x1="84.8571" y1="190.925" x2="26.4556" y2="190.925"
            gradientUnits="userSpaceOnUse">
            <stop stop-color="#6F4FF2" />
            <stop offset="1" stop-color="#61FCAE" />
        </linearGradient>
        <linearGradient id="paint2_linear_170_119" x1="201.952" y1="171.688" x2="26.9663" y2="171.688"
            gradientUnits="userSpaceOnUse">
            <stop stop-color="#6F4FF2" />
            <stop offset="1" stop-color="#61FCAE" />
        </linearGradient>
        <linearGradient id="paint3_linear_170_119" x1="84.2954" y1="167.172" x2="126.456" y2="167.172"
            gradientUnits="userSpaceOnUse">
            <stop stop-color="#6F4FF2" />
            <stop offset="1" stop-color="#61FCAE" />
        </linearGradient>
        <linearGradient id="paint4_linear_170_119" x1="84.6785" y1="167.185" x2="42.2627" y2="167.185"
            gradientUnits="userSpaceOnUse">
            <stop stop-color="#6F4FF2" />
            <stop offset="1" stop-color="#61FCAE" />
        </linearGradient>
        <linearGradient id="paint5_linear_170_119" x1="45.71" y1="156.737" x2="67.6456" y2="156.737"
            gradientUnits="userSpaceOnUse">
            <stop stop-color="#6F4FF2" />
            <stop offset="1" stop-color="#111119" />
        </linearGradient>
        <linearGradient id="paint6_linear_170_119" x1="45.71" y1="162.145" x2="67.6456" y2="162.145"
            gradientUnits="userSpaceOnUse">
            <stop stop-color="#6F4FF2" />
            <stop offset="1" stop-color="#111119" />
        </linearGradient>
        <linearGradient id="paint7_linear_170_119" x1="45.71" y1="167.554" x2="67.6456" y2="167.554"
            gradientUnits="userSpaceOnUse">
            <stop stop-color="#6F4FF2" />
            <stop offset="1" stop-color="#111119" />
        </linearGradient>
        <linearGradient id="paint8_linear_170_119" x1="42.6201" y1="141.353" x2="126.456" y2="141.353"
            gradientUnits="userSpaceOnUse">
            <stop stop-color="#AD99FF" />
            <stop offset="1" stop-color="#61FCAE" />
        </linearGradient>
        <linearGradient id="paint9_linear_170_119" x1="84.2446" y1="132.015" x2="126.405" y2="132.015"
            gradientUnits="userSpaceOnUse">
            <stop stop-color="#6F4FF2" />
            <stop offset="1" stop-color="#61FCAE" />
        </linearGradient>
        <linearGradient id="paint10_linear_170_119" x1="84.6279" y1="132.027" x2="42.1865" y2="132.027"
            gradientUnits="userSpaceOnUse">
            <stop stop-color="#6F4FF2" />
            <stop offset="1" stop-color="#61FCAE" />
        </linearGradient>
        <linearGradient id="paint11_linear_170_119" x1="45.6597" y1="121.58" x2="67.5954" y2="121.58"
            gradientUnits="userSpaceOnUse">
            <stop stop-color="#6F4FF2" />
            <stop offset="1" stop-color="#111119" />
        </linearGradient>
        <linearGradient id="paint12_linear_170_119" x1="45.6597" y1="126.989" x2="67.5954" y2="126.989"
            gradientUnits="userSpaceOnUse">
            <stop stop-color="#6F4FF2" />
            <stop offset="1" stop-color="#111119" />
        </linearGradient>
        <linearGradient id="paint13_linear_170_119" x1="45.6597" y1="132.397" x2="67.5954" y2="132.397"
            gradientUnits="userSpaceOnUse">
            <stop stop-color="#6F4FF2" />
            <stop offset="1" stop-color="#111119" />
        </linearGradient>
        <linearGradient id="paint14_linear_170_119" x1="42.5693" y1="106.209" x2="126.405" y2="106.209"
            gradientUnits="userSpaceOnUse">
            <stop stop-color="#AD99FF" />
            <stop offset="1" stop-color="#61FCAE" />
        </linearGradient>
        <linearGradient id="paint15_linear_170_119" x1="119.153" y1="119.667" x2="121.758" y2="119.667"
            gradientUnits="userSpaceOnUse">
            <stop stop-color="#6F4FF2" />
            <stop offset="1" stop-color="#111119" />
        </linearGradient>
        <linearGradient id="paint16_linear_170_119" x1="119.153" y1="125.127" x2="121.758" y2="125.127"
            gradientUnits="userSpaceOnUse">
            <stop stop-color="#6F4FF2" />
            <stop offset="1" stop-color="#111119" />
        </linearGradient>
        <linearGradient id="paint17_linear_170_119" x1="119.153" y1="130.561" x2="121.758" y2="130.561"
            gradientUnits="userSpaceOnUse">
            <stop stop-color="#6F4FF2" />
            <stop offset="1" stop-color="#111119" />
        </linearGradient>
        <linearGradient id="paint18_linear_170_119" x1="113.713" y1="122.652" x2="116.318" y2="122.652"
            gradientUnits="userSpaceOnUse">
            <stop stop-color="#6F4FF2" />
            <stop offset="1" stop-color="#111119" />
        </linearGradient>
        <linearGradient id="paint19_linear_170_119" x1="113.713" y1="128.112" x2="116.318" y2="128.112"
            gradientUnits="userSpaceOnUse">
            <stop stop-color="#6F4FF2" />
            <stop offset="1" stop-color="#111119" />
        </linearGradient>
        <linearGradient id="paint20_linear_170_119" x1="113.713" y1="133.546" x2="116.318" y2="133.546"
            gradientUnits="userSpaceOnUse">
            <stop stop-color="#6F4FF2" />
            <stop offset="1" stop-color="#111119" />
        </linearGradient>
        <linearGradient id="paint21_linear_170_119" x1="108.249" y1="125.636" x2="110.853" y2="125.636"
            gradientUnits="userSpaceOnUse">
            <stop stop-color="#6F4FF2" />
            <stop offset="1" stop-color="#111119" />
        </linearGradient>
        <linearGradient id="paint22_linear_170_119" x1="108.249" y1="131.096" x2="110.853" y2="131.096"
            gradientUnits="userSpaceOnUse">
            <stop stop-color="#6F4FF2" />
            <stop offset="1" stop-color="#111119" />
        </linearGradient>
        <linearGradient id="paint23_linear_170_119" x1="108.249" y1="136.53" x2="110.853" y2="136.53"
            gradientUnits="userSpaceOnUse">
            <stop stop-color="#6F4FF2" />
            <stop offset="1" stop-color="#111119" />
        </linearGradient>
        <linearGradient id="paint24_linear_170_119" x1="88.9391" y1="101.023" x2="114.027" y2="82.5604"
            gradientUnits="userSpaceOnUse">
            <stop stop-color="#6F4FF2" />
            <stop offset="1" stop-color="#61FCAE" />
        </linearGradient>
        <linearGradient id="paint25_linear_170_119" x1="62.5448" y1="61.8557" x2="108.378" y2="69.3686"
            gradientUnits="userSpaceOnUse">
            <stop stop-color="#AD99FF" />
            <stop offset="1" stop-color="#61FCAE" />
        </linearGradient>
        <linearGradient id="paint26_linear_170_119" x1="66.0131" y1="62.4095" x2="104.914" y2="68.7861"
            gradientUnits="userSpaceOnUse">
            <stop stop-color="#6F4FF2" />
            <stop offset="1" stop-color="#61FCAE" />
        </linearGradient>
        <linearGradient id="paint27_linear_170_119" x1="94.0769" y1="85.813" x2="106.16" y2="73.2613"
            gradientUnits="userSpaceOnUse">
            <stop stop-color="#AD99FF" />
            <stop offset="1" stop-color="#61FCAE" />
        </linearGradient>
        <linearGradient id="paint28_linear_170_119" x1="83.2944" y1="127.818" x2="83.2944" y2="-256.381"
            gradientUnits="userSpaceOnUse">
            <stop stop-color="#85FFC4" stop-opacity="0.6" />
            <stop offset="0.03" stop-color="#9FFFD0" stop-opacity="0.47" />
            <stop offset="0.06" stop-color="#B9FFDD" stop-opacity="0.34" />
            <stop offset="0.09" stop-color="#CEFFE7" stop-opacity="0.24" />
            <stop offset="0.13" stop-color="#E0FFF0" stop-opacity="0.15" />
            <stop offset="0.18" stop-color="#EEFFF6" stop-opacity="0.08" />
            <stop offset="0.23" stop-color="#F7FFFB" stop-opacity="0.03" />
            <stop offset="0.31" stop-color="#FDFFFE" stop-opacity="0" />
            <stop offset="0.51" stop-color="white" stop-opacity="0" />
        </linearGradient>
        <clipPath id="clip0_170_119">
            <rect width="65.4964" height="59.039" fill="white" transform="translate(95.7041 22.7842) rotate(63.9801)" />
        </clipPath>
    </defs>
</svg>