<svg width="170" height="236" viewBox="0 0 170 236" fill="none" xmlns="http://www.w3.org/2000/svg">
    <g clip-path="url(#clip0_173_110)">
        <path d="M0.662598 186.955L84.7026 235.644L168.513 187.387L84.2184 142.307L0.662598 186.955Z" stroke="#6F4FF2"
            stroke-miterlimit="10" />
        <path d="M142.267 182.889L141.732 190.513L84.1421 223.675L84.6772 216.052L142.267 182.889Z"
            fill="url(#paint0_linear_173_110)" />
        <path d="M84.677 216.051L84.1419 223.675L26.3994 190.208L26.9091 182.584L84.677 216.051Z"
            fill="url(#paint1_linear_173_110)" />
        <path d="M26.9092 182.584L84.6771 216.052L142.267 182.889L84.3458 151.912L26.9092 182.584Z"
            fill="url(#paint2_linear_173_110)" />
        <path style="mix-blend-mode:screen"
            d="M83.7666 45L28.7266 76.9458V183.566L84.1029 215.478L139.109 183.532V76.9458L83.7666 45Z"
            fill="url(#paint3_linear_173_110)" />
        <rect width="103.53" height="108.642" rx="8.52178"
            transform="matrix(0.866009 -0.500028 -3.18609e-05 1 34.5176 65.7676)" fill="url(#paint4_linear_173_110)" />
        <rect width="103.53" height="108.642" rx="8.52178"
            transform="matrix(0.866009 -0.500028 -3.18609e-05 1 44.8291 69.1606)" fill="url(#paint5_linear_173_110)" />
        <rect x="1.47593" y="0.852131" width="37.4919" height="37.4919" rx="18.7459"
            transform="matrix(0.866009 -0.500028 -3.18631e-05 1 81.1851 64.3591)" stroke="white"
            stroke-width="3.40871" />
        <g clip-path="url(#clip1_173_110)">
            <g clip-path="url(#clip2_173_110)">
                <g clip-path="url(#clip3_173_110)">
                    <path
                        d="M98.7002 90.8895C100.64 89.775 102.561 88.2284 104.354 86.3386C106.147 84.4489 107.776 82.2531 109.148 79.8775C110.519 77.5019 111.606 74.9932 112.346 72.4956C113.087 69.9981 113.465 67.5608 113.461 65.3238C113.465 63.0814 113.087 61.0813 112.347 59.4384C111.607 57.7954 110.52 56.5421 109.148 55.7503C107.777 54.9585 106.148 54.6438 104.355 54.8244C102.562 55.0049 100.641 55.6772 98.7013 56.8025C96.7617 57.9169 94.8402 59.4635 93.0473 61.3533C91.2544 63.243 89.6253 65.4388 88.2537 67.8144C86.8822 70.1901 85.7951 72.6988 85.055 75.1963C84.3148 77.694 83.9362 80.1313 83.9409 82.3682C83.9362 84.6106 84.3147 86.6108 85.0547 88.2536C85.7947 89.8966 86.8817 91.15 88.2532 91.9417C89.6246 92.7335 91.2535 93.0482 93.0464 92.8676C94.8392 92.6871 96.7606 92.0148 98.7002 90.8895Z"
                        fill="#2775CA" />
                    <path
                        d="M102.76 74.2007C102.761 71.7151 101.469 71.6061 98.8858 72.745C97.0409 73.5267 96.6719 73.1712 96.6719 72.1772C96.6719 71.1832 97.2872 70.1858 98.5169 69.4757C99.6239 68.8366 100.239 68.9075 100.547 69.7954C100.578 69.8799 100.637 69.9355 100.714 69.9544C100.791 69.9734 100.883 69.9549 100.977 69.9014L101.961 69.3335C102.018 69.3022 102.074 69.2579 102.127 69.2029C102.18 69.148 102.228 69.0837 102.268 69.014C102.309 68.9442 102.341 68.8704 102.362 68.7971C102.383 68.7239 102.393 68.6525 102.392 68.5876L102.392 68.5195C102.273 67.8186 101.937 67.3099 101.436 67.0723C100.936 66.8348 100.299 66.8817 99.624 67.2058L99.624 65.5015C99.6241 65.2179 99.4399 65.1109 99.1323 65.2176L98.2095 65.7504C97.9639 65.8922 97.7791 66.2116 97.7177 66.6022L97.7176 68.2384C95.8726 69.588 94.7066 71.6813 94.7066 73.4538C94.7065 75.7976 95.9362 76.0106 98.5191 74.8745C100.241 74.2353 100.794 74.3419 100.794 75.4776C100.794 76.6134 99.9336 77.8924 98.7652 78.567C97.1658 79.4905 96.6127 79.0286 96.428 78.0697C96.3689 77.8202 96.1824 77.7854 95.9976 77.8921L94.9473 78.4986C94.8903 78.53 94.8337 78.5746 94.7809 78.6295C94.728 78.6846 94.68 78.7488 94.6398 78.8186C94.5996 78.8883 94.5679 78.9621 94.5468 79.0354C94.5256 79.1086 94.5155 79.1799 94.5169 79.2448L94.5169 79.3129C94.763 80.9433 95.7471 81.6561 97.7762 80.8396L97.7762 82.544C97.7762 82.8276 97.961 82.9343 98.268 82.8279L99.1908 82.2951C99.437 82.153 99.6212 81.8339 99.6826 81.4433L99.6826 79.7389C101.528 78.3184 102.758 76.1164 102.758 74.1993L102.76 74.2007Z"
                        fill="white" />
                    <path
                        d="M95.5637 85.8116C90.7668 86.5934 88.3068 81.8353 90.0906 75.3372C91.0134 71.8218 93.0427 68.3779 95.5643 65.8571C95.8105 65.5725 95.9333 65.2889 95.9333 64.9337L95.9334 63.9397C95.9334 63.6554 95.8106 63.5129 95.5644 63.5842C95.5053 63.6183 95.3802 63.6905 95.3182 63.7945C89.4762 69.2981 86.2778 78.3172 88.1225 83.9984C88.6584 85.6377 89.5916 86.8707 90.8436 87.5936C92.0956 88.3165 93.6298 88.5084 95.3174 88.1531C95.5636 88.1527 95.8098 87.8688 95.8712 87.5491C95.9302 87.4468 95.9302 87.3732 95.9303 87.2307L95.9303 86.2367C95.9327 86.0226 95.7485 85.8474 95.5637 85.8116ZM102.083 59.891C101.837 59.8914 101.591 60.1753 101.53 60.495C101.471 60.5973 101.471 60.6709 101.471 60.8134L101.471 61.8074C101.471 62.0917 101.655 62.2686 101.84 62.3047C106.636 61.5229 109.096 66.281 107.313 72.7791C106.39 76.2946 104.361 79.7385 101.839 82.2599C101.593 82.5439 101.47 82.8275 101.47 83.1827L101.47 84.1773C101.47 84.4609 101.593 84.6034 101.839 84.5322C101.898 84.4981 102.024 84.4255 102.085 84.3219C107.93 78.8166 111.125 69.7991 109.281 64.1179C108.747 62.4686 107.815 61.2246 106.563 60.4896C105.312 59.7546 103.777 59.5498 102.086 59.8924L102.083 59.891Z"
                        fill="white" />
                </g>
            </g>
        </g>
        <rect x="1.47593" y="0.852131" width="37.4919" height="37.4919" rx="18.7459"
            transform="matrix(0.866009 -0.500028 -3.18631e-05 1 63.4751 74.5847)" stroke="white"
            stroke-width="3.40871" />
        <g clip-path="url(#clip4_173_110)">
            <g clip-path="url(#clip5_173_110)">
                <g clip-path="url(#clip6_173_110)">
                    <mask id="mask0_173_110" style="mask-type:luminance" maskUnits="userSpaceOnUse" x="66" y="58"
                        width="30" height="52">
                        <path d="M95.7488 58.5063L66.229 75.5508L66.2279 109.638L95.7477 92.5934L95.7488 58.5063Z"
                            fill="white" />
                    </mask>
                    <g mask="url(#mask0_173_110)">
                        <path
                            d="M66.2285 92.5943C66.2282 102.007 72.836 105.822 80.9876 101.116C89.1393 96.409 95.7479 84.9627 95.7482 75.5498C95.7485 66.1369 89.1404 62.3219 80.9887 67.0287C72.837 71.7353 66.2288 83.1813 66.2285 92.5943Z"
                            fill="#0C0C4F" />
                        <path fill-rule="evenodd" clip-rule="evenodd"
                            d="M66.2285 92.5943C66.2288 83.1813 72.837 71.7353 80.9887 67.0287C89.1404 62.3219 95.7485 66.1368 95.7482 75.5498C95.7479 84.9627 89.1393 96.409 80.9876 101.116C72.836 105.822 66.2282 102.007 66.2285 92.5943ZM80.9886 68.5512C73.5652 72.8374 67.5472 83.2609 67.547 91.833C67.5467 100.405 73.5642 103.879 80.9876 99.5933C88.4112 95.307 94.4294 84.8831 94.4297 76.3111C94.43 67.739 88.4122 64.2649 80.9886 68.5512Z"
                            fill="url(#paint6_linear_173_110)" />
                        <path fill-rule="evenodd" clip-rule="evenodd"
                            d="M74.6068 83.8211L74.9639 82.3409C75.0365 82.0399 75.2137 81.736 75.4389 81.5264L76.5476 80.4925C76.701 80.3498 76.7023 80.0991 76.5501 80.13L75.4464 80.3549C75.2224 80.4003 75.0478 80.2966 74.9785 80.0766L74.6381 78.993C74.5912 78.8433 74.3747 78.9664 74.3253 79.1712L73.9681 80.6513C73.8956 80.9519 73.7185 81.2558 73.4932 81.4658L72.3845 82.4992C72.2311 82.6424 72.2294 82.8929 72.382 82.8618L73.4857 82.6369C73.7097 82.5914 73.8843 82.6955 73.9535 82.9156L74.2941 83.9988C74.3409 84.1489 74.5575 84.0258 74.6068 83.8211Z"
                            fill="#FAFAFA" />
                        <path fill-rule="evenodd" clip-rule="evenodd"
                            d="M92.13 72.9614C91.673 72.6351 90.9597 72.7146 90.2662 72.9788C89.5672 73.2516 88.8342 73.687 88.1442 74.2269C86.7478 75.3059 85.4793 76.7059 84.3729 78.1684C83.7983 78.9043 83.3083 79.655 82.8007 80.4244C82.5561 80.8065 82.3331 81.1919 82.1008 81.5788L81.4662 82.6742C80.7767 83.9047 80.0971 85.0551 79.4395 86.063C78.7793 87.0697 78.162 87.9011 77.5537 88.5841C76.9457 89.2685 76.2952 89.8401 75.4474 90.3611C74.607 90.8805 73.6127 91.2795 72.5491 91.6045C71.4799 91.934 70.3571 92.1721 69.1023 92.5436C69.5401 93.6934 70.1993 94.5521 71.0457 95.1964C71.9021 95.8153 72.9714 96.2125 74.3451 96.0866C75.699 95.9871 77.4005 95.2496 78.9913 93.9616C80.5864 92.686 81.9863 91.0255 83.1177 89.3865C84.2521 87.7357 85.1699 86.0715 85.9437 84.4455C86.1572 83.9963 86.2702 83.7488 86.4247 83.4049L86.852 82.4275C87.1489 81.8041 87.4191 81.1335 87.7129 80.516C88.2891 79.2456 88.8571 77.9808 89.5171 76.7366C89.8493 76.1071 90.1997 75.4861 90.6132 74.845C90.8194 74.5295 91.0423 74.2085 91.2891 73.8929C91.5396 73.5615 91.8042 73.2626 92.13 72.9614Z"
                            fill="url(#paint7_linear_173_110)" />
                        <path fill-rule="evenodd" clip-rule="evenodd"
                            d="M92.1299 72.9617C91.639 71.8144 90.7262 71.1372 89.5009 70.9559C88.2832 70.7801 86.5918 71.3081 84.9157 72.6583C84.0877 73.3212 83.2855 74.1404 82.5815 75.021C81.8807 75.8979 81.2527 76.8289 80.7091 77.7526C80.4377 78.2153 80.1913 78.6767 79.9466 79.1389L79.3123 80.439L78.3325 82.5079C77.0835 85.1631 75.7384 88.2064 73.5312 90.1524C71.3644 92.0628 70.4247 92.0215 69.1022 92.5439C69.344 93.1251 69.6435 93.6523 70.0495 94.0337C70.448 94.432 70.9187 94.7503 71.5039 94.9184C71.7996 94.9907 72.1118 95.0502 72.4586 95.0534C72.8038 95.0506 73.176 95.0085 73.5734 94.9092C74.3637 94.703 75.2535 94.277 76.1151 93.6448C76.977 93.0144 77.8009 92.2233 78.5211 91.3886C79.2466 90.5546 79.8786 89.6844 80.4429 88.8253C81.5647 87.1019 82.4372 85.4096 83.1743 83.7826C83.545 82.9679 83.8816 82.1615 84.1928 81.3696L84.5591 80.4294C84.6711 80.1516 84.7843 79.872 84.8993 79.6059C85.3636 78.5358 85.8176 77.6305 86.3689 76.8295C86.9127 76.0203 87.6699 75.2172 88.6817 74.5481C89.6892 73.8804 90.8524 73.3676 92.1299 72.9617Z"
                            fill="#FAFAFA" />
                        <path fill-rule="evenodd" clip-rule="evenodd"
                            d="M86.6806 87.9959C86.6806 89.0469 87.4188 89.4729 88.3287 88.9475C89.2388 88.422 89.9759 87.1442 89.976 86.0932C89.976 85.0425 89.2389 84.6157 88.3288 85.1411C87.4189 85.6665 86.6806 86.9452 86.6806 87.9959Z"
                            fill="url(#paint8_linear_173_110)" />
                    </g>
                </g>
            </g>
        </g>
        <path
            d="M65.4572 127.029L65.4566 146.861L60.7938 149.554L60.7943 134.679L60.6936 134.737L56.9365 139.502L56.9366 134.931L61.1634 129.508L65.4572 127.029ZM76.4636 141.048C74.9037 141.942 73.5563 142.304 72.4214 142.133C71.2865 141.962 70.4116 141.276 69.7966 140.075C69.1817 138.874 68.877 137.185 68.8827 135.006C68.8884 132.82 69.1959 130.79 69.8054 128.915C70.4204 127.036 71.2926 125.373 72.422 123.927C73.557 122.478 74.9044 121.303 76.4642 120.402C78.0241 119.502 79.3715 119.124 80.5064 119.269C81.6413 119.408 82.5162 120.061 83.1312 121.23C83.7461 122.398 84.0508 124.072 84.0451 126.251C84.0451 128.44 83.7375 130.489 83.1225 132.4C82.5074 134.311 81.6324 136.008 80.4974 137.489C79.368 138.961 78.0234 140.148 76.4636 141.048ZM76.4637 136.671C77.2688 136.206 77.9285 135.341 78.4429 134.076C78.9629 132.801 79.2201 131.122 79.2146 129.04C79.2147 127.678 79.0973 126.632 78.8625 125.903C78.6277 125.173 78.3035 124.721 77.8897 124.547C77.476 124.366 77.0008 124.431 76.4641 124.741C75.659 125.205 75.0021 126.056 74.4933 127.292C73.9845 128.529 73.7245 130.17 73.7132 132.217C73.7076 133.608 73.8221 134.684 74.0569 135.446C74.2917 136.201 74.616 136.673 75.0297 136.86C75.449 137.044 75.927 136.981 76.4637 136.671ZM93.7142 131.088C92.1543 131.982 90.807 132.344 89.672 132.173C88.5371 132.001 87.6622 131.316 87.0472 130.115C86.4323 128.914 86.1276 127.224 86.1333 125.045C86.139 122.86 86.4465 120.83 87.056 118.954C87.671 117.075 88.5432 115.413 89.6726 113.967C90.8076 112.518 92.155 111.343 93.7148 110.442C95.2747 109.541 96.6221 109.164 97.757 109.309C98.8919 109.447 99.7669 110.101 100.382 111.27C100.997 112.438 101.301 114.112 101.296 116.291C101.296 118.479 100.988 120.529 100.373 122.44C99.758 124.351 98.883 126.047 97.748 127.529C96.6187 129.001 95.274 130.187 93.7142 131.088ZM93.7143 126.711C94.5194 126.246 95.1791 125.381 95.6935 124.115C96.2135 122.84 96.4707 121.162 96.4652 119.08C96.4653 117.718 96.3479 116.672 96.1131 115.942C95.8783 115.213 95.5541 114.761 95.1404 114.587C94.7266 114.406 94.2514 114.47 93.7147 114.78C92.9096 115.245 92.2527 116.096 91.7439 117.332C91.2351 118.568 90.9751 120.21 90.9638 122.256C90.9582 123.647 91.0728 124.724 91.3075 125.486C91.5423 126.241 91.8666 126.712 92.2803 126.9C92.6996 127.084 93.1776 127.021 93.7143 126.711ZM113.313 115.511L113.313 114.465C113.313 113.626 113.47 112.761 113.783 111.87C114.102 110.975 114.563 110.138 115.167 109.357C115.77 108.575 116.506 107.935 117.372 107.434C118.261 106.921 119.008 106.703 119.611 106.781C120.221 106.855 120.682 107.157 120.995 107.686C121.308 108.215 121.465 108.906 121.465 109.758L121.465 110.804C121.465 111.643 121.305 112.51 120.986 113.404C120.673 114.295 120.212 115.133 119.603 115.917C118.993 116.702 118.25 117.347 117.372 117.854C116.494 118.361 115.753 118.572 115.15 118.488C114.546 118.405 114.087 118.098 113.774 117.569C113.467 117.036 113.313 116.35 113.313 115.511ZM116.232 112.78L116.232 113.826C116.232 114.194 116.31 114.513 116.466 114.784C116.628 115.046 116.93 115.049 117.372 114.794C117.836 114.526 118.141 114.176 118.286 113.743C118.437 113.307 118.513 112.896 118.513 112.509L118.513 111.463C118.513 111.075 118.443 110.741 118.303 110.46C118.163 110.18 117.853 110.178 117.372 110.456C116.93 110.711 116.629 111.066 116.466 111.521C116.31 111.973 116.232 112.392 116.232 112.78ZM104.323 109.352L104.323 108.306C104.323 107.454 104.483 106.581 104.801 105.687C105.126 104.789 105.59 103.953 106.194 103.179C106.797 102.404 107.527 101.77 108.382 101.276C109.271 100.762 110.018 100.544 110.622 100.622C111.231 100.696 111.692 100.998 112.005 101.527C112.318 102.057 112.475 102.747 112.475 103.6L112.475 104.645C112.475 105.498 112.315 106.368 111.997 107.255C111.684 108.14 111.222 108.968 110.613 109.739C110.004 110.511 109.26 111.15 108.382 111.657C107.504 112.164 106.764 112.378 106.16 112.301C105.556 112.223 105.098 111.923 104.785 111.4C104.477 110.874 104.323 110.191 104.323 109.352ZM107.275 106.602L107.275 107.648C107.275 108.035 107.354 108.358 107.51 108.616C107.667 108.874 107.957 108.881 108.382 108.635C108.846 108.367 109.151 108.017 109.296 107.585C109.447 107.149 109.523 106.737 109.523 106.35L109.523 105.304C109.523 104.917 109.453 104.583 109.313 104.302C109.174 104.021 108.863 104.019 108.382 104.297C107.941 104.552 107.644 104.91 107.493 105.372C107.348 105.824 107.275 106.234 107.275 106.602ZM105.749 123.597L117.557 96.9467L119.939 95.5715L108.13 122.222L105.749 123.597Z"
            fill="black" />
    </g>
    <defs>
        <linearGradient id="paint0_linear_173_110" x1="84.1421" y1="203.282" x2="142.267" y2="203.282"
            gradientUnits="userSpaceOnUse">
            <stop stop-color="#6F4FF2" />
            <stop offset="1" stop-color="#61FCAE" />
        </linearGradient>
        <linearGradient id="paint1_linear_173_110" x1="84.677" y1="203.129" x2="26.3994" y2="203.129"
            gradientUnits="userSpaceOnUse">
            <stop stop-color="#6F4FF2" />
            <stop offset="1" stop-color="#61FCAE" />
        </linearGradient>
        <linearGradient id="paint2_linear_173_110" x1="85.453" y1="86.751" x2="81.5433" y2="535.973"
            gradientUnits="userSpaceOnUse">
            <stop stop-color="#85FFC4" />
            <stop offset="0.06" stop-color="#83F5C3" />
            <stop offset="0.16" stop-color="#7FDCC2" />
            <stop offset="0.29" stop-color="#78B2C1" />
            <stop offset="0.44" stop-color="#6F79BF" />
            <stop offset="0.57" stop-color="#6742BD" />
            <stop offset="0.87" stop-color="#411D87" />
            <stop offset="0.99" stop-color="#3C148A" />
        </linearGradient>
        <linearGradient id="paint3_linear_173_110" x1="83.9348" y1="213.194" x2="83.9348" y2="-292.664"
            gradientUnits="userSpaceOnUse">
            <stop stop-color="#85FFC4" stop-opacity="0.6" />
            <stop offset="0.03" stop-color="#9FFFD0" stop-opacity="0.47" />
            <stop offset="0.06" stop-color="#B9FFDD" stop-opacity="0.34" />
            <stop offset="0.09" stop-color="#CEFFE7" stop-opacity="0.24" />
            <stop offset="0.13" stop-color="#E0FFF0" stop-opacity="0.15" />
            <stop offset="0.18" stop-color="#EEFFF6" stop-opacity="0.08" />
            <stop offset="0.23" stop-color="#F7FFFB" stop-opacity="0.03" />
            <stop offset="0.31" stop-color="#FDFFFE" stop-opacity="0" />
            <stop offset="0.51" stop-color="white" stop-opacity="0" />
        </linearGradient>
        <linearGradient id="paint4_linear_173_110" x1="1.24603e-06" y1="54.3211" x2="142.759" y2="39.684"
            gradientUnits="userSpaceOnUse">
            <stop stop-color="#6F4FF2" />
            <stop offset="1" stop-color="#61FCAE" />
        </linearGradient>
        <linearGradient id="paint5_linear_173_110" x1="0" y1="54.3211" x2="103.53" y2="54.3211"
            gradientUnits="userSpaceOnUse">
            <stop stop-color="#AD99FF" />
            <stop offset="1" stop-color="#61FCAE" />
        </linearGradient>
        <linearGradient id="paint6_linear_173_110" x1="93.8989" y1="68.4767" x2="64.8692" y2="73.6175"
            gradientUnits="userSpaceOnUse">
            <stop stop-color="#EC796B" />
            <stop offset="1" stop-color="#E175B1" />
        </linearGradient>
        <linearGradient id="paint7_linear_173_110" x1="92.007" y1="72.5304" x2="66.5698" y2="89.4778"
            gradientUnits="userSpaceOnUse">
            <stop stop-color="#EC796B" />
            <stop offset="1" stop-color="#E175B1" />
        </linearGradient>
        <linearGradient id="paint8_linear_173_110" x1="89.9749" y1="84.7589" x2="86.4881" y2="85.0961"
            gradientUnits="userSpaceOnUse">
            <stop stop-color="#EC796B" />
            <stop offset="1" stop-color="#E175B1" />
        </linearGradient>
        <clipPath id="clip0_173_110">
            <rect width="169.15" height="236" fill="white" />
        </clipPath>
        <clipPath id="clip1_173_110">
            <rect width="34.0871" height="34.0871" rx="17.0436"
                transform="matrix(0.866009 -0.500028 -3.18631e-05 1 83.9395 65.3247)" fill="white" />
        </clipPath>
        <clipPath id="clip2_173_110">
            <rect width="34.0871" height="34.0871" fill="white"
                transform="matrix(0.866009 -0.500028 -3.18631e-05 1 83.9399 65.3247)" />
        </clipPath>
        <clipPath id="clip3_173_110">
            <rect width="34.0871" height="34.0871" fill="white"
                transform="matrix(0.866009 -0.500028 -3.18631e-05 1 83.9409 65.3247)" />
        </clipPath>
        <clipPath id="clip4_173_110">
            <rect width="34.0871" height="34.0871" rx="17.0436"
                transform="matrix(0.866009 -0.500028 -3.18631e-05 1 66.229 75.5508)" fill="white" />
        </clipPath>
        <clipPath id="clip5_173_110">
            <rect width="34.0871" height="34.0871" fill="white"
                transform="matrix(0.866009 -0.500028 -3.18631e-05 1 66.229 75.5508)" />
        </clipPath>
        <clipPath id="clip6_173_110">
            <rect width="34.0871" height="34.0871" fill="white"
                transform="matrix(0.866009 -0.500028 -3.18631e-05 1 66.229 75.5508)" />
        </clipPath>
    </defs>
</svg>