<svg width="170" height="236" viewBox="0 0 170 236" fill="none" xmlns="http://www.w3.org/2000/svg">
    <g clip-path="url(#clip0_161_391)">
        <path d="M0.662598 186.955L84.7026 235.644L168.513 187.387L84.2184 142.307L0.662598 186.955Z" stroke="#6F4FF2"
            stroke-miterlimit="10" />
        <path d="M142.267 182.889L141.732 190.513L84.1421 223.675L84.6772 216.052L142.267 182.889Z"
            fill="url(#paint0_linear_161_391)" />
        <path d="M84.677 216.051L84.1419 223.675L26.3994 190.208L26.9091 182.584L84.677 216.051Z"
            fill="url(#paint1_linear_161_391)" />
        <path d="M26.9092 182.584L84.6771 216.052L142.267 182.889L84.3458 151.912L26.9092 182.584Z"
            fill="url(#paint2_linear_161_391)" />
        <path style="mix-blend-mode:screen"
            d="M53.0255 178.862C53 179.395 53.0255 179.955 53.0255 180.488C53.0255 180.615 53.051 180.768 53.0764 180.895C53.1274 181.327 53.2039 181.733 53.3058 182.165C53.3313 182.292 53.3567 182.42 53.4077 182.572C53.5606 183.106 53.739 183.639 53.9683 184.173C54.0193 184.275 54.0702 184.376 54.1212 184.478C54.3251 184.91 54.5289 185.342 54.7837 185.774C54.8857 185.977 55.0131 186.155 55.1405 186.358C55.3444 186.689 55.5992 187.019 55.8285 187.349C56.0069 187.604 56.2107 187.858 56.4146 188.086C56.7714 188.518 57.1536 188.95 57.5613 189.357C57.5868 189.382 57.6123 189.408 57.6377 189.459C58.1219 189.941 58.657 190.399 59.1922 190.856C59.345 190.983 59.4979 191.11 59.6508 191.237C60.2369 191.695 60.874 192.178 61.5365 192.61C62.2245 193.067 62.9635 193.524 63.728 193.931C63.9828 194.058 64.2376 194.185 64.4924 194.338C65.0021 194.617 65.5372 194.871 66.0723 195.125C66.3781 195.278 66.6839 195.405 66.9897 195.532C67.4993 195.761 68.0344 195.989 68.5696 196.193C68.9008 196.32 69.2066 196.447 69.5379 196.574C69.9711 196.726 70.4043 196.879 70.812 197.006C71.5 197.235 72.2135 197.438 72.927 197.641C73.3347 197.768 73.7679 197.87 74.1756 197.972C74.6343 198.073 75.0675 198.175 75.5262 198.277C76.0613 198.404 76.5964 198.505 77.157 198.607C77.5138 198.683 77.845 198.734 78.2018 198.785C78.8389 198.886 79.5014 198.988 80.1384 199.064C80.3933 199.09 80.6736 199.141 80.9284 199.166C81.8203 199.268 82.7376 199.369 83.6295 199.42C83.7824 199.42 83.9353 199.42 84.0882 199.42C84.8526 199.471 85.6171 199.496 86.3816 199.496C86.6364 199.496 86.8912 199.496 87.146 199.496C87.9614 199.496 88.7769 199.496 89.5668 199.445C89.6687 199.445 89.7707 199.445 89.8726 199.445C90.7645 199.395 91.6564 199.344 92.5482 199.242C92.803 199.217 93.0833 199.191 93.3382 199.166C93.9752 199.09 94.6123 199.013 95.2238 198.912C95.5551 198.861 95.8609 198.81 96.1922 198.759C96.7528 198.658 97.2879 198.556 97.823 198.429C98.2053 198.353 98.613 198.277 98.9952 198.175C99.4029 198.073 99.8106 197.946 100.218 197.845C100.804 197.692 101.391 197.514 101.977 197.336C102.512 197.158 103.021 196.981 103.531 196.803C103.786 196.701 104.041 196.625 104.27 196.523C105.06 196.218 105.824 195.888 106.563 195.507C112.781 192.432 116.17 188.112 116.629 183.563L116.833 111.215L53.1784 111.063L53 179.929V178.836L53.0255 178.862Z"
            fill="url(#paint3_linear_161_391)" />
        <path style="mix-blend-mode:screen"
            d="M59.3454 179.319C59.3199 179.751 59.3454 180.183 59.3454 180.64C59.3454 180.742 59.3454 180.844 59.3709 180.971C59.4218 181.301 59.4728 181.657 59.5493 181.987C59.5493 182.089 59.6002 182.191 59.6257 182.318C59.7531 182.75 59.8805 183.156 60.0589 183.588C60.0844 183.664 60.1353 183.741 60.1608 183.817C60.3137 184.173 60.4921 184.503 60.696 184.859C60.7979 185.011 60.8743 185.164 60.9763 185.316C61.1546 185.57 61.333 185.85 61.5369 186.104C61.6898 186.307 61.8426 186.511 61.9955 186.688C62.2758 187.044 62.5816 187.375 62.9129 187.705C62.9129 187.705 62.9639 187.756 62.9893 187.781C63.3716 188.162 63.8048 188.544 64.238 188.899C64.3654 189.001 64.4673 189.103 64.5947 189.204C65.0789 189.585 65.563 189.941 66.0982 190.322C66.6588 190.704 67.2449 191.059 67.8564 191.39C68.0603 191.491 68.2641 191.593 68.468 191.695C68.8757 191.923 69.3089 192.127 69.7421 192.33C69.9714 192.432 70.2263 192.559 70.4811 192.66C70.8888 192.838 71.322 193.016 71.7297 193.194C71.9845 193.296 72.2393 193.397 72.5196 193.499C72.8509 193.626 73.2077 193.728 73.5389 193.855C74.0995 194.033 74.6601 194.21 75.2207 194.363C75.552 194.465 75.8833 194.541 76.24 194.642C76.5968 194.744 76.9535 194.82 77.3103 194.897C77.7435 194.998 78.1767 195.074 78.6099 195.176C78.8902 195.227 79.1705 195.278 79.4508 195.329C79.9604 195.405 80.4955 195.481 81.0052 195.557C81.209 195.583 81.4129 195.608 81.6422 195.633C82.3557 195.71 83.0947 195.786 83.8082 195.837C83.9356 195.837 84.063 195.837 84.165 195.837C84.7765 195.862 85.3881 195.888 85.9997 195.913C86.2035 195.913 86.4074 195.913 86.6112 195.913C87.2483 195.913 87.9108 195.913 88.5479 195.888C88.6243 195.888 88.7008 195.888 88.8027 195.888C89.5162 195.862 90.2297 195.786 90.9432 195.735C91.1471 195.735 91.3764 195.684 91.5803 195.659C92.0899 195.608 92.5995 195.532 93.0837 195.456C93.3385 195.405 93.5933 195.379 93.8482 195.329C94.2814 195.252 94.7146 195.151 95.1732 195.074C95.479 194.998 95.8103 194.947 96.1161 194.871C96.4473 194.795 96.7786 194.693 97.0844 194.617C97.5686 194.49 98.0272 194.363 98.4859 194.21C98.8936 194.083 99.3268 193.931 99.7345 193.778C99.9384 193.702 100.142 193.626 100.346 193.55C100.983 193.296 101.595 193.041 102.181 192.736C107.175 190.272 109.876 186.816 110.259 183.182L110.59 64.1271L59.6002 64L59.2944 180.234V179.37L59.3454 179.319Z"
            fill="url(#paint4_linear_161_391)" />
        <g style="mix-blend-mode:multiply" opacity="0.75">
            <path
                d="M58.179 117.738C58.1532 108.494 71.0655 100.964 87.0194 100.92C102.973 100.875 115.927 108.333 115.953 117.577C115.979 126.82 103.067 134.35 87.1129 134.395C71.159 134.439 58.2048 126.982 58.179 117.738Z"
                fill="url(#paint5_radial_161_391)" />
        </g>
        <path fill-rule="evenodd" clip-rule="evenodd"
            d="M99.4745 60.0941L106.565 64.2103C102.334 61.7594 96.4895 62.1051 90.027 65.8338L82.9361 61.7175C89.3986 57.9888 95.2535 57.6431 99.4745 60.0941ZM73.644 120.853L66.5545 116.738C62.3859 114.318 59.7988 109.155 59.7778 101.833C59.7359 87.0859 70.1052 69.123 82.9358 61.7179L90.0267 65.8342C77.1961 73.2393 66.8268 91.2021 66.8687 105.95C66.8897 113.27 69.4761 118.433 73.644 120.853Z"
            fill="url(#paint6_linear_161_391)" />
        <path
            d="M90.0271 65.8342C77.1965 73.2393 66.8272 91.2022 66.8691 105.95C66.911 120.697 77.3431 126.646 90.1737 119.241C103.015 111.825 113.384 93.8626 113.342 79.1152C113.3 64.3678 102.868 58.4186 90.0271 65.8342Z"
            fill="url(#paint7_linear_161_391)" />
        <path
            d="M90.0373 70.9765C79.6786 76.9571 71.3099 91.4531 71.3413 103.373C71.3727 115.281 79.8043 120.089 90.163 114.098C100.532 108.107 108.901 93.6108 108.87 81.7018C108.838 69.7929 100.407 64.9854 90.0478 70.9765H90.0373Z"
            fill="#0C0C4F" />
        <path fill-rule="evenodd" clip-rule="evenodd"
            d="M85.3548 86.7397C85.3444 83.5661 87.5753 79.7012 90.3405 78.1091C93.1056 76.5171 95.347 77.7949 95.3575 80.9685C95.368 84.1421 93.137 88.007 90.3719 89.5991C87.6067 91.1911 85.3653 89.9133 85.3548 86.7397ZM81.4274 106.326C81.4169 101.351 84.9153 95.2868 89.2515 92.7836L91.5139 91.4743C95.8396 88.971 99.3693 90.982 99.3798 95.9572C99.3903 97.7901 98.102 100.011 96.5099 100.932L84.3182 107.971C82.7262 108.893 81.4274 108.159 81.4274 106.326Z"
            fill="url(#paint8_linear_161_391)" />
    </g>
    <defs>
        <linearGradient id="paint0_linear_161_391" x1="84.1421" y1="203.282" x2="142.267" y2="203.282"
            gradientUnits="userSpaceOnUse">
            <stop stop-color="#6F4FF2" />
            <stop offset="1" stop-color="#61FCAE" />
        </linearGradient>
        <linearGradient id="paint1_linear_161_391" x1="84.677" y1="203.129" x2="26.3994" y2="203.129"
            gradientUnits="userSpaceOnUse">
            <stop stop-color="#6F4FF2" />
            <stop offset="1" stop-color="#61FCAE" />
        </linearGradient>
        <linearGradient id="paint2_linear_161_391" x1="85.453" y1="86.751" x2="81.5433" y2="535.973"
            gradientUnits="userSpaceOnUse">
            <stop stop-color="#85FFC4" />
            <stop offset="0.06" stop-color="#83F5C3" />
            <stop offset="0.16" stop-color="#7FDCC2" />
            <stop offset="0.29" stop-color="#78B2C1" />
            <stop offset="0.44" stop-color="#6F79BF" />
            <stop offset="0.57" stop-color="#6742BD" />
            <stop offset="0.87" stop-color="#411D87" />
            <stop offset="0.99" stop-color="#3C148A" />
        </linearGradient>
        <linearGradient id="paint3_linear_161_391" x1="84.8005" y1="198.346" x2="85.485" y2="-63.8527"
            gradientUnits="userSpaceOnUse">
            <stop offset="0.04" stop-color="#85FFC4" stop-opacity="0.6" />
            <stop offset="0.09" stop-color="#AAFFD6" stop-opacity="0.41" />
            <stop offset="0.16" stop-color="#D8FFEC" stop-opacity="0.19" />
            <stop offset="0.21" stop-color="#F4FFF9" stop-opacity="0.05" />
            <stop offset="0.23" stop-color="white" stop-opacity="0" />
        </linearGradient>
        <linearGradient id="paint4_linear_161_391" x1="84.812" y1="194.102" x2="85.8335" y2="-197.188"
            gradientUnits="userSpaceOnUse">
            <stop stop-color="#85FFC4" />
            <stop offset="0.05" stop-color="#B8FFDC" stop-opacity="0.58" />
            <stop offset="0.1" stop-color="#DEFFEF" stop-opacity="0.27" />
            <stop offset="0.195" stop-color="#F5FFFA" stop-opacity="0.07" />
            <stop offset="0.26" stop-color="white" stop-opacity="0" />
        </linearGradient>
        <radialGradient id="paint5_radial_161_391" cx="0" cy="0" r="1" gradientUnits="userSpaceOnUse"
            gradientTransform="translate(87.0767 117.6) rotate(180) scale(28.5102 16.2508)">
            <stop offset="0.28" stop-color="#C1CAEE" />
            <stop offset="0.35" stop-color="#C1CAEE" stop-opacity="0.97" />
            <stop offset="0.45" stop-color="#C4CCEE" stop-opacity="0.88" />
            <stop offset="0.56" stop-color="#C7CFEF" stop-opacity="0.74" />
            <stop offset="0.7" stop-color="#CDD4F1" stop-opacity="0.55" />
            <stop offset="0.84" stop-color="#D3DAF2" stop-opacity="0.3" />
            <stop offset="1" stop-color="#DCE1F5" stop-opacity="0" />
        </radialGradient>
        <linearGradient id="paint6_linear_161_391" x1="59.7777" y1="89.6911" x2="106.565" y2="89.6911"
            gradientUnits="userSpaceOnUse">
            <stop stop-color="#6F4FF2" />
            <stop offset="1" stop-color="#61FCAE" />
        </linearGradient>
        <linearGradient id="paint7_linear_161_391" x1="113.342" y1="92.5342" x2="66.869" y2="92.5342"
            gradientUnits="userSpaceOnUse">
            <stop stop-color="#6F4FF2" />
            <stop offset="1" stop-color="#61FCAE" />
        </linearGradient>
        <linearGradient id="paint8_linear_161_391" x1="99.3799" y1="92.8965" x2="81.4274" y2="92.8965"
            gradientUnits="userSpaceOnUse">
            <stop stop-color="#6F4FF2" />
            <stop offset="1" stop-color="#61FCAE" />
        </linearGradient>
        <clipPath id="clip0_161_391">
            <rect width="169.15" height="236" fill="white" />
        </clipPath>
    </defs>
</svg>