<svg width="165" height="45" viewBox="0 0 165 45" fill="none" xmlns="http://www.w3.org/2000/svg">
    <g clip-path="url(#clip0_160_1376)">
        <path
            d="M52.7182 35.5117C51.1886 35.5117 50.1268 35.239 49.533 34.6931C49.2318 34.4063 48.9963 34.0572 48.8423 33.6708C48.6883 33.2845 48.6197 32.8699 48.641 32.4542C48.6384 32.0048 48.7443 31.5616 48.9498 31.1617C49.1738 30.7374 49.4626 30.3511 49.8056 30.0154L58.2152 21.6395C58.2603 21.5973 58.2963 21.5466 58.3213 21.4903C58.3462 21.4341 58.3594 21.3736 58.36 21.3118C58.36 21.0936 58.1535 20.9847 57.742 20.9847H49.4419C49.392 20.9927 49.3409 20.9884 49.2929 20.9725C49.2449 20.9566 49.2012 20.9303 49.1655 20.8942C49.1297 20.8588 49.103 20.8148 49.0873 20.7671C49.0715 20.7188 49.0673 20.668 49.075 20.6179V16.905C49.0679 16.8555 49.0725 16.8047 49.0884 16.757C49.1044 16.7094 49.1313 16.6659 49.1669 16.6305C49.2026 16.5956 49.246 16.5687 49.2938 16.5534C49.3415 16.5376 49.3923 16.5339 49.4419 16.5412H61.3815C62.8134 16.5412 63.7963 16.8139 64.3302 17.3599C64.9151 18.0532 65.2027 18.9494 65.1305 19.8537C65.1415 20.3006 65.0677 20.7451 64.9129 21.1639C64.7736 21.5185 64.5627 21.8407 64.2935 22.1103L56.101 30.3028C55.9571 30.4208 55.8656 30.5907 55.8461 30.776C55.8461 30.9704 55.9787 31.067 56.2459 31.067H72.203C72.2528 31.0596 72.3038 31.0639 72.3518 31.0792C72.3998 31.0951 72.4433 31.122 72.479 31.1575C72.5147 31.1935 72.5415 31.2369 72.5573 31.2852C72.573 31.3329 72.5773 31.3837 72.5698 31.4338V35.1467C72.5769 35.1962 72.5724 35.247 72.5564 35.2947C72.5404 35.3424 72.5135 35.3858 72.4779 35.4206C72.4423 35.4561 72.3988 35.483 72.351 35.4983C72.3033 35.5142 72.2526 35.5178 72.203 35.5105L52.7182 35.5117Z"
            fill="#F8F8FF" />
        <path
            d="M68.771 9.41194H72.4839C72.5335 9.40461 72.5842 9.40888 72.6319 9.42416C72.6796 9.44006 72.7229 9.46635 72.7586 9.50181C72.7942 9.53727 72.8211 9.58007 72.8371 9.62776C72.8531 9.67545 72.8578 9.72619 72.8508 9.77572V35.148C72.8578 35.1975 72.8531 35.2482 72.8371 35.2959C72.8211 35.3436 72.7942 35.3864 72.7586 35.4219C72.7229 35.4573 72.6796 35.4836 72.6319 35.4995C72.5842 35.5148 72.5335 35.5191 72.4839 35.5117H68.771C68.7213 35.5191 68.6706 35.5154 68.6229 35.4995C68.5751 35.4842 68.5317 35.4573 68.496 35.4225C68.4603 35.387 68.4335 35.3436 68.4175 35.2959C68.4016 35.2482 68.397 35.1975 68.4042 35.148V9.77572C68.3972 9.72619 68.4018 9.67545 68.4178 9.62776C68.4338 9.58007 68.4607 9.53727 68.4963 9.50181C68.5319 9.46635 68.5753 9.44006 68.623 9.42416C68.6707 9.40888 68.7214 9.40461 68.771 9.41194ZM79.9489 16.8378C80.0307 16.7406 80.1341 16.6635 80.2508 16.6128C80.3675 16.5626 80.4943 16.54 80.6213 16.5467H85.7716C85.903 16.5467 85.9752 16.5828 85.9893 16.6562C86.0034 16.7296 85.9551 16.8139 85.8505 16.9105L78.4418 24.664C78.3886 24.7136 78.3299 24.7735 78.2639 24.8474C78.2102 24.8951 78.1749 24.9599 78.1642 25.0309C78.1772 25.1116 78.2116 25.1868 78.2639 25.2497C78.3148 25.3292 78.3745 25.402 78.4418 25.468L86.2858 35.2605C86.4178 35.4304 86.3783 35.5154 86.1672 35.5148H81.0567C80.927 35.5154 80.7989 35.4861 80.6823 35.4292C80.5658 35.3723 80.4637 35.2892 80.3841 35.1871L73.4902 26.5966C73.2998 26.3698 73.1402 26.1191 73.0158 25.8501C72.8886 25.5958 72.8206 25.3151 72.8171 25.0309C72.8312 24.7826 72.899 24.5411 73.0158 24.3217C73.15 24.038 73.3233 23.7745 73.5306 23.5385L79.9489 16.8378Z"
            fill="#F8F8FF" />
        <path
            d="M103.768 31.1439V35.1479C103.775 35.1974 103.77 35.2481 103.754 35.2958C103.738 35.3435 103.711 35.3863 103.676 35.4218C103.64 35.4572 103.597 35.4835 103.549 35.4994C103.501 35.5147 103.451 35.519 103.401 35.5116H92.8468C92.7005 35.5141 92.5543 35.5019 92.4102 35.4756C90.3956 35.3062 88.9637 34.7181 88.1147 33.7099C87.2657 32.7017 86.841 31.1794 86.8406 29.1417V9.7756C86.8335 9.72608 86.8383 9.67533 86.8542 9.62764C86.8702 9.57996 86.8971 9.53715 86.9328 9.50169C86.9684 9.46623 87.0118 9.43995 87.0594 9.42405C87.1071 9.40877 87.1578 9.40449 87.2074 9.41183H91.7579C91.8075 9.40449 91.8583 9.40815 91.906 9.42405C91.9538 9.43933 91.9973 9.46624 92.0329 9.50109C92.0685 9.53655 92.0954 9.57996 92.1114 9.62764C92.1273 9.67533 92.1319 9.72608 92.1247 9.7756V29.5782C92.1247 30.3791 92.5979 30.7796 93.5443 30.7796H103.405C103.455 30.7728 103.505 30.7777 103.552 30.7936C103.599 30.8095 103.642 30.8364 103.677 30.8712C103.712 30.9067 103.739 30.9501 103.754 30.9972C103.77 31.0443 103.775 31.0944 103.768 31.1439Z"
            fill="#F8F8FF" />
        <path
            d="M108.584 28.7218C108.581 29.0764 108.682 29.4242 108.875 29.7226C109.081 30.0381 109.347 30.3101 109.658 30.5235C110.019 30.7699 110.419 30.9545 110.841 31.0695C111.315 31.2046 111.805 31.2718 112.297 31.2694H122.431C122.48 31.262 122.531 31.2669 122.579 31.2828C122.626 31.2987 122.669 31.3256 122.705 31.3617C122.74 31.3972 122.766 31.4406 122.782 31.4883C122.797 31.5359 122.802 31.5867 122.794 31.6362V35.3491C122.801 35.3986 122.797 35.4488 122.781 35.4965C122.765 35.5435 122.739 35.5863 122.703 35.6218C122.668 35.6572 122.625 35.6835 122.578 35.6994C122.53 35.7153 122.48 35.7202 122.431 35.7129H114.809C113.089 35.7465 111.373 35.5759 109.694 35.2036C108.475 34.9395 107.338 34.3837 106.381 33.5835C105.534 32.8284 104.916 31.8514 104.598 30.7625C104.219 29.4249 104.041 28.0388 104.07 26.6491C104.013 24.9953 104.318 23.3496 104.962 21.826C105.486 20.6424 106.285 19.6 107.292 18.7862C108.248 18.0355 109.352 17.4956 110.532 17.2028C111.716 16.902 112.932 16.7491 114.153 16.7479C115.471 16.7216 116.785 16.8995 118.049 17.2755C119.044 17.5739 119.962 18.0825 120.743 18.7679C121.444 19.4105 121.976 20.2169 122.289 21.1156C122.628 22.1115 122.794 23.1582 122.779 24.2103V27.996C122.786 28.0455 122.782 28.0963 122.766 28.144C122.751 28.1917 122.724 28.235 122.689 28.2711C122.654 28.3066 122.61 28.3335 122.563 28.3494C122.515 28.3653 122.464 28.3702 122.415 28.3629H108.948C108.899 28.3562 108.849 28.3604 108.802 28.3763C108.756 28.3916 108.713 28.4179 108.678 28.4521C108.642 28.487 108.616 28.5292 108.599 28.5763C108.583 28.6227 108.578 28.6729 108.584 28.7218ZM118.305 24.0985C118.355 24.1052 118.405 24.1009 118.453 24.085C118.501 24.0691 118.543 24.0422 118.579 24.0061C118.614 23.9707 118.641 23.9273 118.656 23.8796C118.672 23.8319 118.676 23.7812 118.668 23.7317C118.671 23.2848 118.555 22.8446 118.331 22.4576C118.108 22.0706 117.784 21.7508 117.395 21.5307C116.307 20.9261 115.07 20.6423 113.827 20.712C113.281 20.72 112.737 20.7928 112.207 20.9303C111.618 21.0734 111.045 21.2746 110.495 21.5307C109.986 21.76 109.523 22.081 109.129 22.4771C108.96 22.6398 108.824 22.8348 108.731 23.05C108.637 23.2658 108.587 23.4981 108.584 23.7329C108.576 23.783 108.58 23.8338 108.596 23.8821C108.612 23.9298 108.638 23.9738 108.674 24.0093C108.71 24.0453 108.754 24.0716 108.802 24.0875C108.85 24.1034 108.901 24.1076 108.951 24.0997L118.305 24.0985Z"
            fill="#F8F8FF" />
        <path
            d="M131.141 34.347C131.141 35.1241 130.801 35.5123 130.122 35.5117H127.682C127.529 35.5191 127.377 35.4824 127.245 35.4047C127.112 35.3271 127.005 35.2128 126.936 35.0752C126.773 34.7609 126.691 34.41 126.7 34.056V18.9495C126.705 18.637 126.774 18.3289 126.902 18.044C127.031 17.7591 127.216 17.5035 127.446 17.2926C127.697 17.0444 127.996 16.8506 128.324 16.7222C128.653 16.5938 129.004 16.5345 129.357 16.5467H137.584C138.426 16.54 139.259 16.7204 140.023 17.0744C140.763 17.4186 141.435 17.893 142.007 18.4756C142.573 19.0528 143.024 19.732 143.336 20.4779C143.648 21.2152 143.809 22.0076 143.809 22.8079V35.148C143.809 35.3925 143.675 35.5117 143.408 35.5117H139.732C139.682 35.5191 139.632 35.5154 139.584 35.4995C139.536 35.4842 139.493 35.4573 139.457 35.4219C139.421 35.387 139.395 35.3436 139.379 35.2959C139.363 35.2482 139.358 35.1975 139.365 35.148V23.5721C139.384 23.0604 139.29 22.5517 139.092 22.0797C138.927 21.7111 138.662 21.3956 138.328 21.1694C137.98 20.9432 137.59 20.7885 137.181 20.7145C136.713 20.6271 136.238 20.5843 135.762 20.5867H132.23C131.955 20.5904 131.689 20.6937 131.484 20.8784C131.384 20.9487 131.301 21.041 131.241 21.1486C131.181 21.2556 131.146 21.3748 131.138 21.4971L131.141 34.347Z"
            fill="#F8F8FF" />
        <path
            d="M159.935 16.1822V9.7756C159.928 9.72608 159.933 9.67594 159.949 9.62825C159.964 9.58117 159.991 9.53777 160.026 9.50293C160.061 9.46747 160.105 9.44117 160.152 9.42527C160.199 9.40938 160.25 9.40449 160.299 9.41183H164.012C164.061 9.40449 164.112 9.40815 164.16 9.42405C164.208 9.43933 164.251 9.46624 164.287 9.50109C164.323 9.53655 164.349 9.57996 164.365 9.62764C164.381 9.67533 164.386 9.72608 164.379 9.7756V35.1479C164.386 35.1974 164.381 35.2481 164.365 35.2958C164.349 35.3434 164.323 35.3869 164.287 35.4223C164.251 35.4572 164.208 35.4841 164.16 35.4994C164.112 35.5153 164.061 35.519 164.012 35.5116H152.692C151.627 35.5422 150.58 35.2297 149.706 34.6202C148.872 34.0161 148.177 33.2404 147.668 32.3453C147.126 31.4019 146.726 30.3839 146.484 29.3232C146.236 28.2857 146.108 27.2232 146.102 26.1563C146.091 24.8363 146.219 23.5181 146.484 22.2251C146.695 21.1497 147.095 20.1202 147.668 19.186C148.173 18.3753 148.874 17.7058 149.706 17.2381C150.625 16.7545 151.654 16.5161 152.692 16.5467H159.571C159.62 16.5534 159.671 16.549 159.718 16.5331C159.765 16.5172 159.809 16.491 159.844 16.4556C159.88 16.4201 159.906 16.3773 159.922 16.3296C159.938 16.2819 159.942 16.2317 159.935 16.1822ZM159.935 21.3514C159.943 21.3019 159.938 21.2512 159.922 21.2035C159.906 21.1558 159.879 21.1124 159.844 21.077C159.808 21.0421 159.764 21.0152 159.716 20.9999C159.669 20.984 159.618 20.9803 159.568 20.9877H155.601C154.91 20.9815 154.221 21.0482 153.545 21.1876C152.955 21.3062 152.405 21.5691 151.942 21.9524C151.46 22.3773 151.101 22.924 150.903 23.5353C150.636 24.3827 150.513 25.2686 150.54 26.1563C150.513 26.9847 150.636 27.8113 150.903 28.5957C151.108 29.1728 151.459 29.687 151.922 30.0881C152.383 30.4635 152.925 30.7252 153.506 30.8523C154.193 31.0052 154.896 31.0785 155.599 31.0706H159.567C159.616 31.0779 159.667 31.0742 159.715 31.0583C159.762 31.043 159.806 31.0161 159.842 30.9806C159.877 30.9458 159.904 30.9024 159.92 30.8548C159.936 30.8071 159.941 30.7563 159.933 30.7067L159.935 21.3514Z"
            fill="#F8F8FF" />
    </g>
    <mask id="mask0_160_1376" style="mask-type:luminance" maskUnits="userSpaceOnUse" x="0" y="0" width="45" height="45">
        <path d="M44.377 0H0V44.377H44.377V0Z" fill="white" />
    </mask>
    <g mask="url(#mask0_160_1376)">
        <path
            d="M26.0409 23.5715V30.1809C26.0466 30.302 26.0269 30.4231 25.9831 30.5363C25.9394 30.6496 25.8723 30.7525 25.7865 30.8383C25.7007 30.9241 25.5979 30.9912 25.4847 31.0349C25.3715 31.0789 25.2504 31.0987 25.1291 31.0931H9.29018C7.86909 31.0931 6.8825 30.8211 6.27416 30.2622C5.65912 29.6973 5.34723 28.9297 5.34723 27.9806C5.34516 27.5156 5.45528 27.0568 5.66827 26.6434C5.88029 26.2405 6.15361 25.8728 6.47847 25.5537L12.8266 19.2297H0.194884C0.0651945 20.2068 9.02703e-05 21.1911 0 22.1767C0 34.4376 9.93412 44.377 22.1886 44.377C25.1632 44.3804 28.1081 43.7836 30.8469 42.6225C33.5856 41.4614 36.062 39.7595 38.1278 37.6189L26.0502 23.5836L26.0409 23.5715Z"
            fill="#F8F8FF" />
        <path
            d="M19.2091 15.2265C19.7591 15.7899 20.038 16.6197 20.038 17.6932C20.0469 18.1363 19.9714 18.5771 19.8158 18.992C19.6709 19.3587 19.4528 19.692 19.1746 19.9713L12.9133 26.236H21.1861V0C12.1124 0.403642 4.45691 6.25923 1.41113 14.3726H16.3627C17.7165 14.3726 18.6475 14.6519 19.2091 15.2265Z"
            fill="#F8F8FF" />
        <path
            d="M26.0763 20.3119L26.1132 20.2658L33.5147 13.9908C33.6317 13.8553 33.7772 13.7474 33.9409 13.6746C34.1044 13.6019 34.2821 13.5661 34.461 13.5699H38.3242C38.7841 13.5699 39.0417 13.8711 39.0934 14.1697C39.124 14.3578 39.1003 14.6348 38.8182 14.917L38.7885 14.9448L30.7828 21.9602L41.0195 33.9215C43.2198 30.3997 44.3835 26.3293 44.3774 22.1766C44.3774 11.2304 36.4592 2.13539 26.041 0.310547V20.3585C26.053 20.3431 26.0643 20.3271 26.0763 20.3119Z"
            fill="#F8F8FF" />
    </g>
    <defs>
        <clipPath id="clip0_160_1376">
            <rect width="116.162" height="26.2893" fill="white" transform="translate(48.4277 9.40894)" />
        </clipPath>
    </defs>
</svg>